<svg width="22" height="22" viewBox="0 0 22 22" fill="none" xmlns="http://www.w3.org/2000/svg">
<circle cx="11" cy="11" r="10.5" fill="#6C6AEB" stroke="#6C6AEB"/>
<path d="M6.9735 16.6499V15.6299L11.2485 11.5049C11.6285 11.1449 11.9085 10.8299 12.0885 10.5599C12.2785 10.2799 12.4035 10.0249 12.4635 9.7949C12.5335 9.5549 12.5685 9.3249 12.5685 9.1049C12.5685 8.5649 12.3785 8.1399 11.9985 7.8299C11.6185 7.5199 11.0635 7.3649 10.3335 7.3649C9.7735 7.3649 9.2685 7.4599 8.8185 7.6499C8.3685 7.8299 7.9785 8.1149 7.6485 8.5049L6.6285 7.6199C7.0285 7.1099 7.5635 6.7199 8.2335 6.4499C8.9135 6.1699 9.6585 6.0299 10.4685 6.0299C11.1985 6.0299 11.8335 6.1499 12.3735 6.3899C12.9135 6.6199 13.3285 6.9549 13.6185 7.3949C13.9185 7.8349 14.0685 8.3549 14.0685 8.9549C14.0685 9.2949 14.0235 9.6299 13.9335 9.9599C13.8435 10.2899 13.6735 10.6399 13.4235 11.0099C13.1735 11.3799 12.8135 11.7949 12.3435 12.2549L8.5335 15.9299L8.1735 15.3449H14.5185V16.6499H6.9735Z" fill="white"/>
</svg>
