<svg width="22" height="22" viewBox="0 0 22 22" fill="none" xmlns="http://www.w3.org/2000/svg">
<circle cx="11" cy="11" r="10.5" fill="#6C6AEB" stroke="#6C6AEB"/>
<path d="M10.3632 16.7699C9.62318 16.7699 8.90318 16.6549 8.20318 16.4249C7.51318 16.1949 6.94818 15.8849 6.50818 15.4949L7.19818 14.3099C7.54818 14.6399 8.00318 14.9099 8.56318 15.1199C9.12318 15.3299 9.72318 15.4349 10.3632 15.4349C11.1432 15.4349 11.7482 15.2699 12.1782 14.9399C12.6182 14.5999 12.8382 14.1449 12.8382 13.5749C12.8382 13.0249 12.6282 12.5849 12.2082 12.2549C11.7982 11.9149 11.1432 11.7449 10.2432 11.7449H9.40318V10.6949L12.5232 6.8549L12.7332 7.4549H6.98818V6.1499H13.9182V7.1699L10.8132 10.9949L10.0332 10.5299H10.5282C11.7982 10.5299 12.7482 10.8149 13.3782 11.3849C14.0182 11.9549 14.3382 12.6799 14.3382 13.5599C14.3382 14.1499 14.1932 14.6899 13.9032 15.1799C13.6132 15.6699 13.1732 16.0599 12.5832 16.3499C12.0032 16.6299 11.2632 16.7699 10.3632 16.7699Z" fill="white"/>
</svg>
