<svg  class="ionicon" width="512" height="512" viewBox="0 0 512 512" xmlns="http://www.w3.org/2000/svg">
  <title>ew-bag-outline</title>
<path class="ionicon-fill-none" stroke-width="20px" stroke-linecap="round" stroke-linejoin="round" d="M306.526 156.541C306.526 136.36 296.421 96 256 96C224.611 96 211.503 120.339 207.213 140.666C205.388 149.312 198.31 156.541 189.474 156.541H180.493C165.551 156.541 152.598 166.881 149.288 181.451L104.881 376.91C100.332 396.934 115.552 416 136.086 416H374.53C395.499 416 410.801 396.169 405.484 375.886L363.314 215.021C359.625 200.948 346.908 191.135 332.36 191.135H223.422C208.107 191.135 194.94 201.986 192.012 217.018L163.368 364.108"/>
</svg>
