<svg class="ionicon" width="512" height="512" viewBox="0 0 512 512" xmlns="http://www.w3.org/2000/svg">
  <title>ew-close</title>
<path class="ionicon-fill-none" stroke-width="20px" stroke-linecap="round" stroke-linejoin="round" d="M218.288 168.004L193.146 142.863C179.261 128.977 156.748 128.977 142.863 142.863C128.978 156.748 128.978 179.26 142.863 193.146L205.717 256L142.863 318.854C128.978 332.739 128.978 355.252 142.863 369.137C156.748 383.022 179.261 383.022 193.146 369.137L256 306.283L318.854 369.137C332.739 383.022 355.252 383.022 369.137 369.137C383.022 355.252 383.022 332.739 369.137 318.854L306.283 256L369.137 193.146C383.022 179.261 383.022 156.748 369.137 142.863C355.252 128.977 332.739 128.977 318.854 142.863L256 205.717"/>
</svg>
