<svg class="ionicon" width="512" height="512" viewBox="0 0 512 512" xmlns="http://www.w3.org/2000/svg">
  <title>ew-hide</title>
<path class="ionicon-fill" stroke-width="20px" stroke-linecap="round" stroke-linejoin="round"  d="M369.573 386.447L321.844 338.717C301.251 348.093 278.847 352.818 256.222 352.556C232.896 352.846 209.811 347.811 188.724 337.836C172.378 329.86 157.7 318.846 145.474 305.38C132.496 291.469 122.296 275.206 115.422 257.466L114 253L115.493 248.506C125.773 222.284 143.074 199.399 165.499 182.358L128.222 145.082L148.318 125L389.655 366.337L369.602 386.447H369.573ZM185.623 202.497C167.446 215.239 153.092 232.701 144.108 253C163.371 297.443 207.808 325.628 256.222 324.111C271.153 324.233 285.997 321.829 300.126 317L274.526 291.4C268.828 294.193 262.568 295.652 256.222 295.667C232.719 295.519 213.703 276.503 213.556 253C213.562 246.639 215.022 240.364 217.822 234.653L185.623 202.497ZM367.895 304.342L348.098 284.559C356.427 275.143 363.253 264.498 368.336 253C349.098 208.535 304.645 180.34 256.222 181.889C252.709 181.889 249.182 182.017 245.769 182.259L220.667 157.128C232.352 154.628 244.273 153.393 256.222 153.444C279.548 153.155 302.633 158.189 323.721 168.164C340.067 176.139 354.745 187.154 366.971 200.62C379.942 214.514 390.142 230.758 397.022 248.477L398.444 253L396.951 257.494C390.292 274.818 380.441 290.738 367.909 304.428L367.895 304.342Z"/>
</svg>
