<svg class="ionicon" width="512" height="512" viewBox="0 0 512 512" xmlns="http://www.w3.org/2000/svg">
  <title>ew-hanger</title>
<path class="ionicon-fill-none" stroke-width="20px" stroke-linecap="round" stroke-linejoin="round"  d="M230.598 245.63L115.586 300.973C107.919 303.812 93.3509 312.894 96.4178 326.517C100.252 343.545 111.753 343.545 123.254 343.545C132.455 343.545 311.107 343.545 399.282 343.545C403.116 343.545 411.55 340.991 414.617 330.774C418.451 318.002 414.617 309.488 399.282 300.973C387.014 294.162 299.605 252.725 257.434 232.858V220.086C257.017 207.315 283.086 207.315 280.019 190.286C276.952 173.257 263.824 169 257.434 169C251.045 169 237.499 173.257 234.432 190.286"/>
</svg>
