<svg class="ionicon" width="512" height="512" viewBox="0 0 512 512" xmlns="http://www.w3.org/2000/svg">
  <title>ew-instagram</title>
<path class="ionicon-fill-none" stroke-width="20px" stroke-linecap="round" stroke-linejoin="round"  d="M362.667 161.395C362.667 176 342.625 186.895 327.111 167.111C318.222 155.776 321.376 121.46 362.667 122.158C403.957 122.856 415.427 156.163 416 172.73C416 183.775 416 226.093 416 307.008C416 387.924 358.652 413.384 329.979 416C314.495 416 264.946 416 190.624 416C116.301 416 96.5735 358.452 96 329.678C96 318.343 96 275.967 96 197.144C96 118.322 148.76 96.8719 175.14 96H300.731C259.728 114.311 172.622 150.533 175.14 238.997C177.72 329.678 263.247 353.147 300.731 315.728C338.216 278.308 318.222 197.144 256 197.144"/>
</svg>
