<svg class="ionicon" width="512" height="512" viewBox="0 0 512 512" xmlns="http://www.w3.org/2000/svg">
<path class="ionicon-fill-none" stroke-width="20px" stroke-linecap="round" stroke-linejoin="round"  d="M400.02 230.194C400.02 274.925 400.02 360.258 400.02 385.032C400.02 409.806 381.44 416 372.15 416C307.118 416 169.622 416 139.893 416C110.164 416 112.023 395.355 112.023 385.032C112.023 354.065 112.023 283.871 112.023 250.839C112.023 217.806 127.506 209.548 139.893 209.548C211.118 209.548 355.427 209.548 362.859 209.548C372.15 209.548 372.287 196.359 362.859 172.881C352.017 145.879 344.016 136.003 336.016 128.002C325.89 117.877 303.402 96 251.376 96C214.215 96 174.178 110.816 149.183 157.935" />
<path class="ionicon-fill-none" stroke-width="20px" stroke-linecap="round" stroke-linejoin="round"  d="M251.376 281.806V354.064"/>
</svg>
