<svg class="ionicon" width="512" height="512" viewBox="0 0 512 512" xmlns="http://www.w3.org/2000/svg">
<path class="ionicon-fill-none" stroke-width="20px" stroke-linecap="round" stroke-linejoin="round"  d="M349 140.444V321.778C349 339.451 334.673 353.778 317 353.778H162.333C152.515 353.778 144.556 345.818 144.556 336V336C144.556 326.182 152.515 318.222 162.333 318.222H291.222C303.495 318.222 313.444 308.273 313.444 296V296C313.444 283.727 303.495 273.778 291.222 273.778H166.778C154.505 273.778 144.556 263.829 144.556 251.556V251.556C144.556 239.283 154.505 229.333 166.778 229.333H291.222C303.495 229.333 313.444 219.384 313.444 207.111V207.111C313.444 194.838 303.495 184.889 291.222 184.889H153.444M349 140.444V128C349 110.327 334.673 96 317 96H141C123.327 96 109 110.327 109 128V384C109 401.673 123.327 416 141 416H354.333C380.843 416 402.333 394.51 402.333 368V172.444C402.333 154.771 388.006 140.444 370.333 140.444H349Z"/>
</svg>
