<svg class="ionicon" width="512" height="512" viewBox="0 0 512 512" xmlns="http://www.w3.org/2000/svg">
<path class="ionicon-fill-none" stroke-width="15px" stroke-linecap="round" stroke-linejoin="round"  d="M242.062 289.603L242.062 278.284C242.062 241.824 253.627 247.169 272.794 228.003C290.469 210.328 267.194 193.212 255.603 193.212C238.86 193.212 232.129 205.624 229.53 217.826C227.69 226.469 220.83 233.722 211.994 233.722L209.574 233.722C201.085 233.722 194.148 227.07 195.234 218.651C197.99 197.298 209.45 160.803 255.603 160.803C316.765 160.803 337.156 225.62 296.382 253.978C277.486 267.119 268.784 274.233 269.259 286.386L269.259 292.421C269.259 300.863 262.503 307.639 254.711 310.888C249.507 313.057 244.564 316.4 242.062 321.36C235.704 333.958 240.296 350.866 255.837 351.197C271.378 351.529 278.442 337.273 269.259 327.659"/>
<circle class="ionicon-fill-none" stroke-width="15px" stroke-linecap="round" stroke-linejoin="round"  cx="256" cy="256" r="132" transform="rotate(90 256 256)"/>
</svg>
