<svg class="ionicon" width="512" height="512" viewBox="0 0 512 512" xmlns="http://www.w3.org/2000/svg">
  <title>ew-show</title>
<path class="ionicon-fill" stroke-width="20px" stroke-linecap="round" stroke-linejoin="round"  d="M256.222 355.123C232.896 355.413 209.811 350.379 188.724 340.403C172.378 332.427 157.7 321.413 145.474 307.948C132.523 294.026 122.327 277.778 115.422 260.062L114 255.567L115.493 251.073C122.403 233.373 132.578 217.129 145.488 203.187C157.71 189.723 172.383 178.709 188.724 170.732C209.811 160.756 232.896 155.722 256.222 156.012C279.548 155.722 302.633 160.757 323.721 170.732C340.067 178.707 354.745 189.721 366.971 203.187C379.945 217.09 390.145 233.343 397.022 251.073L398.444 255.567L396.951 260.062C374.639 318.142 318.433 356.109 256.222 355.123ZM256.222 184.456C207.808 182.939 163.371 211.124 144.108 255.567C163.368 300.013 207.807 328.2 256.222 326.679C304.635 328.192 349.07 300.008 368.336 255.567C349.098 211.103 304.645 182.907 256.222 184.456ZM256.222 298.234C235.704 298.37 217.955 283.974 213.854 263.87C209.752 243.766 220.443 223.568 239.374 215.655C258.306 207.742 280.19 214.325 291.615 231.368C303.04 248.412 300.814 271.156 286.302 285.662C278.357 293.701 267.525 298.228 256.222 298.234Z"/>
</svg>
