<svg class="ionicon" width="512" height="512" viewBox="0 0 512 512" xmlns="http://www.w3.org/2000/svg">
  <title>ew-setting</title>
<path class="ionicon-fill" stroke-linecap="round" stroke-linejoin="round"  d="M154.474 145.601L152.528 153.361L154.474 145.601ZM210.934 113.004L203.241 110.808L210.934 113.004ZM109.408 223.658L115.155 218.093L109.408 223.658ZM109.408 288.853L103.66 283.288H103.66L109.408 288.853ZM154.474 366.909L156.419 374.669L154.474 366.909ZM210.934 399.507L203.241 401.702L210.934 399.507ZM301.066 399.507L308.759 401.702L301.066 399.507ZM357.526 366.909L359.472 359.149L357.526 366.909ZM402.592 288.853L396.845 294.417H396.845L402.592 288.853ZM402.592 223.658L396.845 218.093H396.845L402.592 223.658ZM356.389 147.502L358.204 155.293L358.269 155.278L358.334 155.262L356.389 147.502ZM301.066 113.004L308.759 110.808L301.066 113.004ZM256 206.062L255.435 214.042L255.717 214.061H256V206.062ZM304.46 135.846C307.336 139.2 312.387 139.587 315.741 136.71C319.094 133.834 319.481 128.783 316.605 125.43L304.46 135.846ZM152.528 153.361C181.249 160.561 210.501 143.672 218.627 115.199L203.241 110.808C197.485 130.978 176.764 142.941 156.419 137.842L152.528 153.361ZM115.155 218.093C87.9588 190.001 114.601 143.855 152.528 153.361L156.419 137.842C102.878 124.421 65.267 189.565 103.66 229.222L115.155 218.093ZM115.155 294.417C135.751 273.144 135.751 239.367 115.155 218.093L103.66 229.222C118.249 244.292 118.249 268.219 103.66 283.288L115.155 294.417ZM152.528 359.149C114.601 368.656 87.9588 322.51 115.155 294.417L103.66 283.288C65.267 322.946 102.878 388.09 156.419 374.669L152.528 359.149ZM218.627 397.311C210.501 368.839 181.249 351.95 152.528 359.149L156.419 374.669C176.764 369.569 197.485 381.533 203.241 401.702L218.627 397.311ZM293.373 397.311C282.643 434.911 229.357 434.911 218.627 397.311L203.241 401.702C218.389 454.78 293.611 454.78 308.759 401.702L293.373 397.311ZM359.472 359.149C330.751 351.95 301.499 368.839 293.373 397.311L308.759 401.702C314.515 381.533 335.236 369.569 355.581 374.669L359.472 359.149ZM396.845 294.417C424.041 322.51 397.399 368.656 359.472 359.149L355.581 374.669C409.122 388.09 446.733 322.946 408.34 283.288L396.845 294.417ZM396.845 218.093C376.249 239.367 376.249 273.144 396.845 294.417L408.34 283.288C393.751 268.219 393.751 244.292 408.34 229.222L396.845 218.093ZM358.334 155.262C377.499 150.458 393.834 159.217 402.114 172.753C410.355 186.222 410.434 204.056 396.845 218.093L408.34 229.222C427.545 209.385 427.39 183.409 415.763 164.403C404.176 145.463 381.012 133.082 354.443 139.742L358.334 155.262ZM308.759 110.808C293.611 57.7305 218.389 57.7305 203.241 110.808L218.627 115.199C229.357 77.6002 282.643 77.6002 293.373 115.199L308.759 110.808ZM197.806 256.255C197.806 288.395 223.86 314.449 256 314.449V298.449C232.697 298.449 213.806 279.558 213.806 256.255H197.806ZM256 314.449C288.14 314.449 314.194 288.395 314.194 256.255H298.194C298.194 279.558 279.303 298.449 256 298.449V314.449ZM314.194 256.255C314.194 224.116 288.14 198.062 256 198.062V214.061C279.303 214.061 298.194 232.952 298.194 256.255H314.194ZM293.373 115.199C295.609 123.036 299.456 130.011 304.46 135.846L316.605 125.43C313.072 121.31 310.349 116.381 308.759 110.808L293.373 115.199ZM354.573 139.711C334.096 144.483 305.73 153.241 278.846 165.95C252.173 178.559 225.9 195.545 210.802 217.268L223.941 226.4C236.623 208.152 259.815 192.644 285.684 180.415C311.341 168.287 338.593 159.864 358.204 155.293L354.573 139.711ZM210.802 217.268C202.799 228.784 197.806 241.825 197.806 256.255H213.806C213.806 245.709 217.412 235.794 223.941 226.4L210.802 217.268ZM256.565 198.081C251.186 197.7 242.848 198.178 234.434 200.751C226.036 203.318 216.693 208.253 210.676 217.456L224.067 226.212C227.303 221.264 232.763 217.993 239.111 216.052C245.443 214.116 251.793 213.784 255.435 214.042L256.565 198.081Z"/>
</svg>
