<svg class="ionicon" width="512" height="512" viewBox="0 0 512 512" xmlns="http://www.w3.org/2000/svg">
  <title>ew-shopping</title>
<circle cx="256" cy="256" r="224" class="ionicon-fill-none" stroke-width="30px" stroke-linecap="round" stroke-linejoin="round" />
<path class="ionicon-fill-none" stroke-width="30px" stroke-linecap="round" stroke-linejoin="round"  d="M294.271 162.337C294.271 146.092 286.136 113.602 253.597 113.602C229.71 113.602 218.975 131.11 214.955 146.848C212.813 155.23 205.91 162.337 197.259 162.337V162.337C182.631 162.337 169.95 172.46 166.709 186.725L133.678 332.112C129.128 352.136 144.348 371.202 164.883 371.202H340.927C361.896 371.202 377.198 351.371 371.881 331.087L341.206 214.071C337.517 199.998 324.8 190.185 310.252 190.185H232.514C217.199 190.185 204.031 201.036 201.104 216.069L179.028 329.429"/>
</svg>
