<svg width="512" height="512" viewBox="0 0 512 512" fill="none" xmlns="http://www.w3.org/2000/svg">
<path d="M222.978 242.463L73.4624 312.854C63.4947 316.463 44.5561 328.015 48.5432 345.341C53.527 367 68.4785 367 83.4301 367C95.3913 367 327.639 367 442.267 367C447.251 367 458.215 363.751 462.202 350.756C467.186 334.512 462.202 323.683 442.267 312.854C426.319 304.19 312.687 251.488 257.865 226.22V209.976C257.322 193.732 291.212 193.732 287.225 172.073C283.238 150.415 266.171 145 257.865 145C249.558 145 231.949 150.415 227.962 172.073" stroke="url(#paint0_linear_2927_23031)" stroke-width="30" stroke-linecap="round"/>
<defs>
<linearGradient id="paint0_linear_2927_23031" x1="135.226" y1="190.706" x2="324.004" y2="404.764" gradientUnits="userSpaceOnUse">
<stop stop-color="#5050AF"/>
<stop offset="1" stop-color="#EA5820"/>
</linearGradient>
</defs>
</svg>
