<svg width="1000" height="1000" viewBox="0 0 1000 1000" fill="none" xmlns="http://www.w3.org/2000/svg">
<g clip-path="url(#clip0_2906_23320)">
<g filter="url(#filter0_d_2906_23320)">
<circle cx="500" cy="500" r="440" fill="white"/>
</g>
<path d="M460.627 436.225L282.359 519.442C270.474 523.71 247.894 537.366 252.648 557.851C258.59 583.456 276.417 583.456 294.244 583.456C308.505 583.456 585.415 583.456 722.088 583.456C728.03 583.456 741.103 579.615 745.857 564.252C751.799 545.048 745.857 532.245 722.088 519.442C703.072 509.2 567.588 446.894 502.223 417.021V397.816C501.576 378.612 541.983 378.612 537.229 353.007C532.476 327.401 512.127 321 502.223 321C492.32 321 471.323 327.401 466.57 353.007" stroke="url(#paint0_linear_2906_23320)" stroke-width="20" stroke-linecap="round"/>
</g>
<defs>
<filter id="filter0_d_2906_23320" x="50" y="40" width="960" height="960" filterUnits="userSpaceOnUse" color-interpolation-filters="sRGB">
<feFlood flood-opacity="0" result="BackgroundImageFix"/>
<feColorMatrix in="SourceAlpha" type="matrix" values="0 0 0 0 0 0 0 0 0 0 0 0 0 0 0 0 0 0 127 0" result="hardAlpha"/>
<feOffset dx="30" dy="20"/>
<feGaussianBlur stdDeviation="20"/>
<feComposite in2="hardAlpha" operator="out"/>
<feColorMatrix type="matrix" values="0 0 0 0 0 0 0 0 0 0 0 0 0 0 0 0 0 0 0.25 0"/>
<feBlend mode="normal" in2="BackgroundImageFix" result="effect1_dropShadow_2906_23320"/>
<feBlend mode="normal" in="SourceGraphic" in2="effect1_dropShadow_2906_23320" result="shape"/>
</filter>
<linearGradient id="paint0_linear_2906_23320" x1="356" y1="375.035" x2="578.936" y2="629.979" gradientUnits="userSpaceOnUse">
<stop stop-color="#5050AF"/>
<stop offset="1" stop-color="#EA5820"/>
</linearGradient>
<clipPath id="clip0_2906_23320">
<rect width="1000" height="1000" fill="white"/>
</clipPath>
</defs>
</svg>
