<svg width="30" height="30" viewBox="0 0 30 30" fill="none" xmlns="http://www.w3.org/2000/svg">
<path d="M16.6978 9.94783L16.6978 7.40109C16.6978 6.4634 15.9377 5.70326 15 5.70326C14.0623 5.70326 13.3022 6.4634 13.3022 7.40109L13.3022 12.4946L8.2087 12.4946C7.27102 12.4946 6.51087 13.2547 6.51087 14.1924C6.51087 15.1301 7.27102 15.8902 8.2087 15.8902L13.3022 15.8902L13.3022 20.9837C13.3022 21.9214 14.0623 22.6815 15 22.6815C15.9377 22.6815 16.6978 21.9214 16.6978 20.9837V15.8902L21.7913 15.8902C22.729 15.8902 23.4891 15.1301 23.4891 14.1924C23.4891 13.2547 22.729 12.4946 21.7913 12.4946L16.6978 12.4946" stroke="white" stroke-linecap="round" stroke-linejoin="round"/>
</svg>
