<svg width="30" height="30" viewBox="0 0 30 30" fill="none" xmlns="http://www.w3.org/2000/svg">
<path d="M12.3484 8.81284L9.69672 6.16119C8.72041 5.18488 7.1375 5.18488 6.16119 6.16119C5.18488 7.1375 5.18488 8.72041 6.16119 9.69672L11.4645 15L6.16119 20.3033C5.18488 21.2796 5.18488 22.8625 6.16119 23.8389C7.1375 24.8152 8.72041 24.8152 9.69672 23.8389L15 18.5356L20.3033 23.8389C21.2796 24.8152 22.8625 24.8152 23.8389 23.8389C24.8152 22.8625 24.8152 21.2796 23.8389 20.3033L18.5356 15L23.8389 9.69672C24.8152 8.72041 24.8152 7.1375 23.8389 6.16119C22.8625 5.18488 21.2796 5.18488 20.3033 6.16119L15 11.4645" stroke="black" stroke-linecap="round" stroke-linejoin="round"/>
</svg>
