<svg width="150" height="150" viewBox="0 0 150 150" fill="none" xmlns="http://www.w3.org/2000/svg">
<path d="M19 95.2506L19 52.0161C19 46.4221 24.9277 43.2643 29.0312 46.6391C29.0681 46.6694 29.1075 46.6982 29.1481 46.7234L34 49.7362M19 114.001L19 125.998C19 129.727 21.7982 132.751 25.25 132.751L125.25 132.751C128.702 132.751 131.5 129.727 131.5 125.998V52.0161C131.5 46.3966 125.518 43.2356 121.413 46.6856L115.697 52.0161M34 49.7362L59.9015 72.5812C68.9293 80.1678 81.5708 80.1678 90.5985 72.5812L115.697 52.0161M34 49.7362V23C34 20.2386 36.2386 18 39 18L76.25 18L110.697 18C113.458 18 115.697 20.2386 115.697 23V52.0161" stroke="url(#paint0_linear_1619_21458)" stroke-width="5" stroke-linecap="round" stroke-linejoin="round"/>
<defs>
<linearGradient id="paint0_linear_1619_21458" x1="75.25" y1="45.2495" x2="75.25" y2="132.75" gradientUnits="userSpaceOnUse">
<stop stop-color="#5050AF"/>
<stop offset="1" stop-color="#EA5820"/>
</linearGradient>
</defs>
</svg>
