<svg width="96" height="96" viewBox="0 0 96 96" fill="none" xmlns="http://www.w3.org/2000/svg">
<path d="M70.3147 74.6893L60.7687 65.1434C56.6503 67.0185 52.1694 67.9634 47.6445 67.911C42.9792 67.969 38.3622 66.9621 34.1447 64.967C30.8755 63.372 27.94 61.1691 25.4948 58.476C22.8992 55.6937 20.8592 52.4411 19.4845 48.8931L19.2 47.9999L19.4987 47.1011C21.5547 41.8567 25.0148 37.2797 29.4997 33.8715L22.0445 26.4163L26.0637 22.3999L74.331 70.6673L70.3204 74.6893H70.3147ZM33.5246 37.8993C29.8892 40.4477 27.0184 43.9401 25.2217 47.9999C29.0743 56.8885 37.9616 62.5255 47.6445 62.2221C50.6306 62.2466 53.5995 61.7657 56.4253 60.7999L51.3053 55.6799C50.1656 56.2386 48.9137 56.5304 47.6445 56.5332C42.9439 56.5037 39.1406 52.7005 39.1111 47.9999C39.1125 46.7278 39.4043 45.4728 39.9645 44.3306L33.5246 37.8993ZM69.979 58.2683L66.0196 54.3117C67.6853 52.4285 69.0506 50.2995 70.0672 47.9999C66.2197 39.107 57.3291 33.4679 47.6445 33.7777C46.9419 33.7777 46.2365 33.8033 45.5538 33.8516L40.5333 28.8255C42.8704 28.3255 45.2545 28.0786 47.6445 28.0888C52.3097 28.0309 56.9267 29.0378 61.1442 31.0328C64.4134 32.6278 67.349 34.8307 69.7941 37.5238C72.3885 40.3027 74.4284 43.5514 75.8044 47.0954L76.0889 47.9999L75.7902 48.8987C74.4585 52.3635 72.4883 55.5475 69.9819 58.2854L69.979 58.2683Z" fill="#252856"/>
</svg>
