<svg width="96" height="96" viewBox="0 0 96 96" fill="none" xmlns="http://www.w3.org/2000/svg">
<path d="M76.8 42.8366C76.8 51.7822 76.8 68.8475 76.8 73.802C76.8 78.7565 73.0842 79.9951 71.2263 79.9951C58.2208 79.9951 30.7236 79.9951 24.7782 79.9951C18.8329 79.9951 19.2046 75.8664 19.2046 73.802C19.2046 67.6089 19.2046 53.5713 19.2046 46.9654C19.2046 40.3594 22.301 38.7079 24.7782 38.7079C39.0223 38.7079 67.882 38.7079 69.3684 38.7079C71.2263 38.7079 71.2537 36.0702 69.3684 31.375C67.2 25.975 65.6 24 64 22.4C61.975 20.375 57.4777 16 47.0733 16C39.6416 16 31.6347 18.963 26.6362 28.3861" stroke="white" stroke-width="5" stroke-linecap="round"/>
<path d="M47.0733 53.1582V67.6087" stroke="white" stroke-width="5" stroke-linecap="round"/>
</svg>
