<svg width="30" height="30" viewBox="0 0 30 30" fill="none" xmlns="http://www.w3.org/2000/svg">
<path d="M8.72673 8.24475L8.60516 8.72975L8.72673 8.24475ZM12.3252 6.16719L11.8444 6.02998L12.3252 6.16719ZM5.85452 13.2196L6.21376 12.8718L5.85452 13.2196ZM5.85452 17.3747L5.49529 17.0269H5.49529L5.85452 17.3747ZM8.72673 22.3495L8.8483 22.8345L8.72673 22.3495ZM12.3252 24.427L11.8444 24.5643L12.3252 24.427ZM18.0696 24.427L18.5504 24.5643L18.0696 24.427ZM21.668 22.3495L21.7896 21.8645L21.668 22.3495ZM24.5402 17.3747L24.181 17.7225L24.5402 17.3747ZM24.5402 13.2196L24.181 12.8718L24.5402 13.2196ZM21.5955 8.36587L21.709 8.85288L21.7171 8.85086L21.5955 8.36587ZM18.0696 6.16719L18.5504 6.02998L18.0696 6.16719ZM15.1974 12.0981L15.162 12.5968L15.1797 12.5981H15.1974V12.0981ZM18.2934 7.61657C18.4732 7.82618 18.7888 7.85036 18.9984 7.67059C19.208 7.49081 19.2322 7.17516 19.0524 6.96555L18.2934 7.61657ZM8.60516 8.72975C10.4305 9.18729 12.2896 8.11395 12.806 6.30441L11.8444 6.02998C11.476 7.32056 10.1501 8.08608 8.8483 7.75976L8.60516 8.72975ZM6.21376 12.8718C4.47351 11.0742 6.17831 8.12143 8.60516 8.72975L8.8483 7.75976C5.44558 6.90682 3.05527 11.047 5.49529 13.5673L6.21376 12.8718ZM6.21376 17.7225C7.52265 16.3705 7.52265 14.2238 6.21376 12.8718L5.49529 13.5673C6.42881 14.5316 6.42881 16.0626 5.49529 17.0269L6.21376 17.7225ZM8.60516 21.8645C6.17831 22.4728 4.47351 19.52 6.21376 17.7225L5.49529 17.0269C3.05527 19.5473 5.44558 23.6874 8.8483 22.8345L8.60516 21.8645ZM12.806 24.2898C12.2896 22.4803 10.4305 21.407 8.60516 21.8645L8.8483 22.8345C10.1501 22.5082 11.476 23.2737 11.8444 24.5643L12.806 24.2898ZM17.5888 24.2898C16.9022 26.6957 13.4926 26.6957 12.806 24.2898L11.8444 24.5643C12.8071 27.9376 17.5877 27.9376 18.5504 24.5643L17.5888 24.2898ZM21.7896 21.8645C19.9643 21.407 18.1052 22.4803 17.5888 24.2898L18.5504 24.5643C18.9187 23.2737 20.2446 22.5082 21.5464 22.8345L21.7896 21.8645ZM24.181 17.7225C25.9212 19.52 24.2164 22.4728 21.7896 21.8645L21.5464 22.8345C24.9492 23.6874 27.3395 19.5473 24.8995 17.0269L24.181 17.7225ZM24.181 12.8718C22.8721 14.2238 22.8721 16.3705 24.181 17.7225L24.8995 17.0269C23.9659 16.0626 23.9659 14.5316 24.8995 13.5673L24.181 12.8718ZM21.7171 8.85086C22.9431 8.54354 23.9884 9.10405 24.5182 9.97004C25.0455 10.8319 25.0506 11.9736 24.181 12.8718L24.8995 13.5673C26.12 12.3066 26.1102 10.6561 25.3712 9.44819C24.6348 8.24442 23.1627 7.45756 21.4739 7.88087L21.7171 8.85086ZM18.5504 6.02998C17.5877 2.65667 12.8071 2.65667 11.8444 6.02998L12.806 6.30441C13.4926 3.89853 16.9022 3.89853 17.5888 6.30441L18.5504 6.02998ZM11.4983 15.2971C11.4983 17.34 13.1545 18.9961 15.1974 18.9961V17.9961C13.7067 17.9961 12.4983 16.7878 12.4983 15.2971H11.4983ZM15.1974 18.9961C17.2403 18.9961 18.8964 17.34 18.8964 15.2971H17.8964C17.8964 16.7878 16.688 17.9961 15.1974 17.9961V18.9961ZM18.8964 15.2971C18.8964 13.2542 17.2403 11.5981 15.1974 11.5981V12.5981C16.688 12.5981 17.8964 13.8065 17.8964 15.2971H18.8964ZM17.5888 6.30441C17.7309 6.80244 17.9754 7.24577 18.2934 7.61657L19.0524 6.96555C18.8264 6.70196 18.6521 6.38654 18.5504 6.02998L17.5888 6.30441ZM21.482 7.87892C20.1775 8.18297 18.3703 8.74094 16.6576 9.55057C14.9581 10.3539 13.2856 11.4356 12.3249 12.818L13.146 13.3887C13.9558 12.2236 15.4358 11.2342 17.085 10.4546C18.721 9.68129 20.4585 9.14427 21.709 8.85281L21.482 7.87892ZM12.3249 12.818C11.8157 13.5506 11.4983 14.3798 11.4983 15.2971H12.4983C12.4983 14.6226 12.729 13.9887 13.146 13.3887L12.3249 12.818ZM15.2327 11.5993C14.891 11.5751 14.3607 11.6055 13.8258 11.7691C13.2918 11.9323 12.6987 12.2458 12.3169 12.8297L13.1539 13.3769C13.3618 13.0589 13.7122 12.8495 14.1181 12.7254C14.523 12.6016 14.9288 12.5803 15.162 12.5968L15.2327 11.5993Z" fill="white"/>
</svg>
