<svg width="30" height="30" viewBox="0 0 30 30" fill="none" xmlns="http://www.w3.org/2000/svg">
<circle cx="15" cy="15" r="14" stroke="white" stroke-width="2"/>
<path d="M17.3922 9.14604C17.3922 8.13073 16.8837 6.1001 14.85 6.1001C13.3571 6.1001 12.6862 7.19439 12.4349 8.178C12.3011 8.70188 11.8696 9.14604 11.3289 9.14604V9.14604C10.4147 9.14604 9.62209 9.77874 9.41954 10.6703L7.3551 19.757C7.07077 21.0085 8.02202 22.2001 9.3054 22.2001H20.3082C21.6187 22.2001 22.5751 20.9607 22.2428 19.6929L20.3256 12.3794C20.095 11.4999 19.3002 10.8866 18.391 10.8866H13.5324C12.5752 10.8866 11.7522 11.5648 11.5692 12.5043L10.1895 19.5893" stroke="white" stroke-width="1.5" stroke-linecap="round"/>
</svg>
