<svg width="96" height="96" viewBox="0 0 96 96" fill="none" xmlns="http://www.w3.org/2000/svg">
<path d="M47.6445 68.6244C42.9792 68.6825 38.3622 67.6756 34.1447 65.6804C30.8756 64.0853 27.94 61.8824 25.4948 59.1894C22.9047 56.405 20.8653 53.1553 19.4845 49.6121L19.2 48.7133L19.4987 47.8144C20.8806 44.2743 22.9155 41.0255 25.4976 38.2372C27.942 35.5444 30.8766 33.3415 34.1447 31.7462C38.3622 29.751 42.9792 28.7442 47.6445 28.8022C52.3097 28.7443 56.9267 29.7511 61.1442 31.7462C64.4134 33.3412 67.349 35.5441 69.7941 38.2372C72.3891 41.0178 74.4291 44.2685 75.8044 47.8144L76.0889 48.7133L75.7902 49.6121C71.3279 61.2282 60.0866 68.8216 47.6445 68.6244ZM47.6445 34.4911C37.9616 34.1876 29.0743 39.8247 25.2217 48.7133C29.0736 57.6024 37.9614 63.2397 47.6445 62.9355C57.3271 63.2381 66.214 57.6014 70.0672 48.7133C66.2197 39.8204 57.3291 34.1812 47.6445 34.4911ZM47.6445 57.2466C43.5408 57.2738 39.9911 54.3947 39.1708 50.3738C38.3504 46.3529 40.4886 42.3134 44.2749 40.7308C48.0612 39.1483 52.438 40.4648 54.723 43.8735C57.008 47.2822 56.5628 51.831 53.6605 54.7321C52.0713 56.34 49.9051 57.2454 47.6445 57.2466Z" fill="#252856"/>
</svg>
