<svg width="30" height="30" viewBox="0 0 30 30" fill="none" xmlns="http://www.w3.org/2000/svg">
<circle cx="15" cy="15" r="14.25" stroke="white" stroke-width="1.5"/>
<path d="M13.2536 12.2683L5.34657 16.0732C4.81943 16.2683 3.81787 16.8927 4.02873 17.8293C4.2923 19 5.083 19 5.87371 19C6.50627 19 18.7886 19 24.8507 19C25.1142 19 25.6941 18.8244 25.9049 18.122C26.1685 17.2439 25.9049 16.6585 24.8507 16.0732C24.0072 15.6049 17.9979 12.7561 15.0986 11.3902V10.5122C15.0699 9.63415 16.8622 9.63415 16.6513 8.46341C16.4404 7.29268 15.5379 7 15.0986 7C14.6593 7 13.7281 7.29268 13.5172 8.46341" stroke="white" stroke-width="1.5" stroke-linecap="round"/>
</svg>
