<svg width="150" height="25" viewBox="0 0 150 25" fill="none" xmlns="http://www.w3.org/2000/svg">
<path d="M36.4056 18V7.5H40.5006C41.4206 7.5 42.2056 7.645 42.8556 7.935C43.5056 8.225 44.0056 8.645 44.3556 9.195C44.7056 9.745 44.8806 10.4 44.8806 11.16C44.8806 11.92 44.7056 12.575 44.3556 13.125C44.0056 13.665 43.5056 14.085 42.8556 14.385C42.2056 14.675 41.4206 14.82 40.5006 14.82H37.2306L37.9056 14.115V18H36.4056ZM37.9056 14.265L37.2306 13.515H40.4556C41.4156 13.515 42.1406 13.31 42.6306 12.9C43.1306 12.49 43.3806 11.91 43.3806 11.16C43.3806 10.41 43.1306 9.83 42.6306 9.42C42.1406 9.01 41.4156 8.805 40.4556 8.805H37.2306L37.9056 8.055V14.265ZM47.0843 18V7.5H51.1793C52.0993 7.5 52.8843 7.645 53.5343 7.935C54.1843 8.225 54.6843 8.645 55.0343 9.195C55.3843 9.745 55.5593 10.4 55.5593 11.16C55.5593 11.92 55.3843 12.575 55.0343 13.125C54.6843 13.665 54.1843 14.08 53.5343 14.37C52.8843 14.66 52.0993 14.805 51.1793 14.805H47.9093L48.5843 14.115V18H47.0843ZM54.1043 18L51.4343 14.19H53.0393L55.7393 18H54.1043ZM48.5843 14.265L47.9093 13.53H51.1343C52.0943 13.53 52.8193 13.325 53.3093 12.915C53.8093 12.495 54.0593 11.91 54.0593 11.16C54.0593 10.41 53.8093 9.83 53.3093 9.42C52.8193 9.01 52.0943 8.805 51.1343 8.805H47.9093L48.5843 8.055V14.265ZM59.3477 12.03H64.7477V13.305H59.3477V12.03ZM59.4827 16.695H65.6027V18H57.9827V7.5H65.3927V8.805H59.4827V16.695ZM68.0315 18V7.5H72.1265C73.0465 7.5 73.8315 7.645 74.4815 7.935C75.1315 8.225 75.6315 8.645 75.9815 9.195C76.3315 9.745 76.5065 10.4 76.5065 11.16C76.5065 11.92 76.3315 12.575 75.9815 13.125C75.6315 13.665 75.1315 14.085 74.4815 14.385C73.8315 14.675 73.0465 14.82 72.1265 14.82H68.8565L69.5315 14.115V18H68.0315ZM69.5315 14.265L68.8565 13.515H72.0815C73.0415 13.515 73.7665 13.31 74.2565 12.9C74.7565 12.49 75.0065 11.91 75.0065 11.16C75.0065 10.41 74.7565 9.83 74.2565 9.42C73.7665 9.01 73.0415 8.805 72.0815 8.805H68.8565L69.5315 8.055V14.265ZM76.5929 18L81.3479 7.5H82.8329L87.6029 18H86.0279L81.7829 8.34H82.3829L78.1379 18H76.5929ZM78.6179 15.375L79.0229 14.175H84.9329L85.3679 15.375H78.6179ZM89.1692 18V7.5H93.2642C94.1842 7.5 94.9692 7.645 95.6192 7.935C96.2692 8.225 96.7692 8.645 97.1192 9.195C97.4692 9.745 97.6442 10.4 97.6442 11.16C97.6442 11.92 97.4692 12.575 97.1192 13.125C96.7692 13.665 96.2692 14.08 95.6192 14.37C94.9692 14.66 94.1842 14.805 93.2642 14.805H89.9942L90.6692 14.115V18H89.1692ZM96.1892 18L93.5192 14.19H95.1242L97.8242 18H96.1892ZM90.6692 14.265L89.9942 13.53H93.2192C94.1792 13.53 94.9042 13.325 95.3942 12.915C95.8942 12.495 96.1442 11.91 96.1442 11.16C96.1442 10.41 95.8942 9.83 95.3942 9.42C94.9042 9.01 94.1792 8.805 93.2192 8.805H89.9942L90.6692 8.055V14.265ZM98.4777 18L103.233 7.5H104.718L109.488 18H107.913L103.668 8.34H104.268L100.023 18H98.4777ZM100.503 15.375L100.908 14.175H106.818L107.253 15.375H100.503ZM112.612 18V8.805H109.012V7.5H117.697V8.805H114.097V18H112.612ZM119.33 18V7.5H120.83V18H119.33ZM128.714 18.12C127.914 18.12 127.169 17.985 126.479 17.715C125.799 17.445 125.209 17.07 124.709 16.59C124.209 16.1 123.819 15.53 123.539 14.88C123.259 14.23 123.119 13.52 123.119 12.75C123.119 11.98 123.259 11.27 123.539 10.62C123.819 9.97 124.209 9.405 124.709 8.925C125.209 8.435 125.799 8.055 126.479 7.785C127.159 7.515 127.904 7.38 128.714 7.38C129.514 7.38 130.249 7.515 130.919 7.785C131.599 8.045 132.189 8.42 132.689 8.91C133.199 9.39 133.589 9.955 133.859 10.605C134.139 11.255 134.279 11.97 134.279 12.75C134.279 13.53 134.139 14.245 133.859 14.895C133.589 15.545 133.199 16.115 132.689 16.605C132.189 17.085 131.599 17.46 130.919 17.73C130.249 17.99 129.514 18.12 128.714 18.12ZM128.714 16.785C129.294 16.785 129.829 16.685 130.319 16.485C130.819 16.285 131.249 16.005 131.609 15.645C131.979 15.275 132.264 14.845 132.464 14.355C132.674 13.865 132.779 13.33 132.779 12.75C132.779 12.17 132.674 11.635 132.464 11.145C132.264 10.655 131.979 10.23 131.609 9.87C131.249 9.5 130.819 9.215 130.319 9.015C129.829 8.815 129.294 8.715 128.714 8.715C128.124 8.715 127.579 8.815 127.079 9.015C126.589 9.215 126.159 9.5 125.789 9.87C125.419 10.23 125.129 10.655 124.919 11.145C124.719 11.635 124.619 12.17 124.619 12.75C124.619 13.33 124.719 13.865 124.919 14.355C125.129 14.845 125.419 15.275 125.789 15.645C126.159 16.005 126.589 16.285 127.079 16.485C127.579 16.685 128.124 16.785 128.714 16.785ZM136.572 18V7.5H137.802L144.747 16.125H144.102V7.5H145.602V18H144.372L137.427 9.375H138.072V18H136.572Z" fill="white"/>
<circle cx="11" cy="13" r="10.5" fill="#6C6AEB" stroke="#6C6AEB"/>
<path d="M10.4393 18.6499V8.7499L11.0843 9.4549H8.06926V8.1499H11.9243V18.6499H10.4393Z" fill="white"/>
</svg>
