<svg width="112" height="25" viewBox="0 0 112 25" fill="none" xmlns="http://www.w3.org/2000/svg">
<path d="M36.5657 18V7.5H40.6607C41.5807 7.5 42.3657 7.645 43.0157 7.935C43.6657 8.225 44.1657 8.645 44.5157 9.195C44.8657 9.745 45.0407 10.4 45.0407 11.16C45.0407 11.92 44.8657 12.575 44.5157 13.125C44.1657 13.665 43.6657 14.085 43.0157 14.385C42.3657 14.675 41.5807 14.82 40.6607 14.82H37.3907L38.0657 14.115V18H36.5657ZM38.0657 14.265L37.3907 13.515H40.6157C41.5757 13.515 42.3007 13.31 42.7907 12.9C43.2907 12.49 43.5407 11.91 43.5407 11.16C43.5407 10.41 43.2907 9.83 42.7907 9.42C42.3007 9.01 41.5757 8.805 40.6157 8.805H37.3907L38.0657 8.055V14.265ZM52.1309 18.12C51.3309 18.12 50.5859 17.985 49.8959 17.715C49.2159 17.445 48.6259 17.07 48.1259 16.59C47.6259 16.1 47.2359 15.53 46.9559 14.88C46.6759 14.23 46.5359 13.52 46.5359 12.75C46.5359 11.98 46.6759 11.27 46.9559 10.62C47.2359 9.97 47.6259 9.405 48.1259 8.925C48.6259 8.435 49.2159 8.055 49.8959 7.785C50.5759 7.515 51.3209 7.38 52.1309 7.38C52.9309 7.38 53.6659 7.515 54.3359 7.785C55.0159 8.045 55.6059 8.42 56.1059 8.91C56.6159 9.39 57.0059 9.955 57.2759 10.605C57.5559 11.255 57.6959 11.97 57.6959 12.75C57.6959 13.53 57.5559 14.245 57.2759 14.895C57.0059 15.545 56.6159 16.115 56.1059 16.605C55.6059 17.085 55.0159 17.46 54.3359 17.73C53.6659 17.99 52.9309 18.12 52.1309 18.12ZM52.1309 16.785C52.7109 16.785 53.2459 16.685 53.7359 16.485C54.2359 16.285 54.6659 16.005 55.0259 15.645C55.3959 15.275 55.6809 14.845 55.8809 14.355C56.0909 13.865 56.1959 13.33 56.1959 12.75C56.1959 12.17 56.0909 11.635 55.8809 11.145C55.6809 10.655 55.3959 10.23 55.0259 9.87C54.6659 9.5 54.2359 9.215 53.7359 9.015C53.2459 8.815 52.7109 8.715 52.1309 8.715C51.5409 8.715 50.9959 8.815 50.4959 9.015C50.0059 9.215 49.5759 9.5 49.2059 9.87C48.8359 10.23 48.5459 10.655 48.3359 11.145C48.1359 11.635 48.0359 12.17 48.0359 12.75C48.0359 13.33 48.1359 13.865 48.3359 14.355C48.5459 14.845 48.8359 15.275 49.2059 15.645C49.5759 16.005 50.0059 16.285 50.4959 16.485C50.9959 16.685 51.5409 16.785 52.1309 16.785ZM63.0486 18.12C62.2486 18.12 61.4836 18 60.7536 17.76C60.0236 17.51 59.4486 17.19 59.0286 16.8L59.5836 15.63C59.9836 15.98 60.4936 16.27 61.1136 16.5C61.7336 16.73 62.3786 16.845 63.0486 16.845C63.6586 16.845 64.1536 16.775 64.5336 16.635C64.9136 16.495 65.1936 16.305 65.3736 16.065C65.5536 15.815 65.6436 15.535 65.6436 15.225C65.6436 14.865 65.5236 14.575 65.2836 14.355C65.0536 14.135 64.7486 13.96 64.3686 13.83C63.9986 13.69 63.5886 13.57 63.1386 13.47C62.6886 13.37 62.2336 13.255 61.7736 13.125C61.3236 12.985 60.9086 12.81 60.5286 12.6C60.1586 12.39 59.8586 12.11 59.6286 11.76C59.3986 11.4 59.2836 10.94 59.2836 10.38C59.2836 9.84 59.4236 9.345 59.7036 8.895C59.9936 8.435 60.4336 8.07 61.0236 7.8C61.6236 7.52 62.3836 7.38 63.3036 7.38C63.9136 7.38 64.5186 7.46 65.1186 7.62C65.7186 7.78 66.2386 8.01 66.6786 8.31L66.1836 9.51C65.7336 9.21 65.2586 8.995 64.7586 8.865C64.2586 8.725 63.7736 8.655 63.3036 8.655C62.7136 8.655 62.2286 8.73 61.8486 8.88C61.4686 9.03 61.1886 9.23 61.0086 9.48C60.8386 9.73 60.7536 10.01 60.7536 10.32C60.7536 10.69 60.8686 10.985 61.0986 11.205C61.3386 11.425 61.6436 11.6 62.0136 11.73C62.3936 11.86 62.8086 11.98 63.2586 12.09C63.7086 12.19 64.1586 12.305 64.6086 12.435C65.0686 12.565 65.4836 12.735 65.8536 12.945C66.2336 13.155 66.5386 13.435 66.7686 13.785C66.9986 14.135 67.1136 14.585 67.1136 15.135C67.1136 15.665 66.9686 16.16 66.6786 16.62C66.3886 17.07 65.9386 17.435 65.3286 17.715C64.7286 17.985 63.9686 18.12 63.0486 18.12ZM71.2435 18V8.805H67.6435V7.5H76.3285V8.805H72.7285V18H71.2435ZM82.1218 18.12C80.7418 18.12 79.6568 17.725 78.8668 16.935C78.0768 16.145 77.6818 14.99 77.6818 13.47V7.5H79.1818V13.41C79.1818 14.58 79.4368 15.435 79.9468 15.975C80.4668 16.515 81.1968 16.785 82.1368 16.785C83.0868 16.785 83.8168 16.515 84.3268 15.975C84.8468 15.435 85.1068 14.58 85.1068 13.41V7.5H86.5618V13.47C86.5618 14.99 86.1668 16.145 85.3768 16.935C84.5968 17.725 83.5118 18.12 82.1218 18.12ZM89.637 18V7.5H93.732C94.652 7.5 95.437 7.645 96.087 7.935C96.737 8.225 97.237 8.645 97.587 9.195C97.937 9.745 98.112 10.4 98.112 11.16C98.112 11.92 97.937 12.575 97.587 13.125C97.237 13.665 96.737 14.08 96.087 14.37C95.437 14.66 94.652 14.805 93.732 14.805H90.462L91.137 14.115V18H89.637ZM96.657 18L93.987 14.19H95.592L98.292 18H96.657ZM91.137 14.265L90.462 13.53H93.687C94.647 13.53 95.372 13.325 95.862 12.915C96.362 12.495 96.612 11.91 96.612 11.16C96.612 10.41 96.362 9.83 95.862 9.42C95.372 9.01 94.647 8.805 93.687 8.805H90.462L91.137 8.055V14.265ZM101.9 12.03H107.3V13.305H101.9V12.03ZM102.035 16.695H108.155V18H100.535V7.5H107.945V8.805H102.035V16.695Z" fill="white"/>
<circle cx="11" cy="13" r="10.5" fill="#6C6AEB" stroke="#6C6AEB"/>
<path d="M10.3632 18.7699C9.62318 18.7699 8.90318 18.6549 8.20318 18.4249C7.51318 18.1949 6.94818 17.8849 6.50818 17.4949L7.19818 16.3099C7.54818 16.6399 8.00318 16.9099 8.56318 17.1199C9.12318 17.3299 9.72318 17.4349 10.3632 17.4349C11.1432 17.4349 11.7482 17.2699 12.1782 16.9399C12.6182 16.5999 12.8382 16.1449 12.8382 15.5749C12.8382 15.0249 12.6282 14.5849 12.2082 14.2549C11.7982 13.9149 11.1432 13.7449 10.2432 13.7449H9.40318V12.6949L12.5232 8.8549L12.7332 9.4549H6.98818V8.1499H13.9182V9.1699L10.8132 12.9949L10.0332 12.5299H10.5282C11.7982 12.5299 12.7482 12.8149 13.3782 13.3849C14.0182 13.9549 14.3382 14.6799 14.3382 15.5599C14.3382 16.1499 14.1932 16.6899 13.9032 17.1799C13.6132 17.6699 13.1732 18.0599 12.5832 18.3499C12.0032 18.6299 11.2632 18.7699 10.3632 18.7699Z" fill="white"/>
</svg>
