<svg width="186" height="25" viewBox="0 0 186 25" fill="none" xmlns="http://www.w3.org/2000/svg">
<path d="M46.5762 18.12C45.7762 18.12 45.0362 17.99 44.3562 17.73C43.6862 17.46 43.1012 17.085 42.6012 16.605C42.1112 16.115 41.7262 15.545 41.4462 14.895C41.1662 14.245 41.0262 13.53 41.0262 12.75C41.0262 11.97 41.1662 11.255 41.4462 10.605C41.7262 9.955 42.1162 9.39 42.6162 8.91C43.1162 8.42 43.7012 8.045 44.3712 7.785C45.0512 7.515 45.7912 7.38 46.5912 7.38C47.4012 7.38 48.1462 7.52 48.8262 7.8C49.5162 8.07 50.1012 8.475 50.5812 9.015L49.6062 9.96C49.2062 9.54 48.7562 9.23 48.2562 9.03C47.7562 8.82 47.2212 8.715 46.6512 8.715C46.0612 8.715 45.5112 8.815 45.0012 9.015C44.5012 9.215 44.0662 9.495 43.6962 9.855C43.3262 10.215 43.0362 10.645 42.8262 11.145C42.6262 11.635 42.5262 12.17 42.5262 12.75C42.5262 13.33 42.6262 13.87 42.8262 14.37C43.0362 14.86 43.3262 15.285 43.6962 15.645C44.0662 16.005 44.5012 16.285 45.0012 16.485C45.5112 16.685 46.0612 16.785 46.6512 16.785C47.2212 16.785 47.7562 16.685 48.2562 16.485C48.7562 16.275 49.2062 15.955 49.6062 15.525L50.5812 16.47C50.1012 17.01 49.5162 17.42 48.8262 17.7C48.1462 17.98 47.3962 18.12 46.5762 18.12ZM50.882 18L55.637 7.5H57.122L61.892 18H60.317L56.072 8.34H56.672L52.427 18H50.882ZM52.907 15.375L53.312 14.175H59.222L59.657 15.375H52.907ZM63.4583 18V7.5H64.6883L69.3983 15.435H68.7383L73.3883 7.5H74.6183L74.6333 18H73.1933L73.1783 9.765H73.5233L69.3833 16.725H68.6933L64.5233 9.765H64.8983V18H63.4583ZM79.1495 12.03H84.5495V13.305H79.1495V12.03ZM79.2845 16.695H85.4045V18H77.7845V7.5H85.1945V8.805H79.2845V16.695ZM87.8333 18V7.5H91.9283C92.8483 7.5 93.6333 7.645 94.2833 7.935C94.9333 8.225 95.4333 8.645 95.7833 9.195C96.1333 9.745 96.3083 10.4 96.3083 11.16C96.3083 11.92 96.1333 12.575 95.7833 13.125C95.4333 13.665 94.9333 14.08 94.2833 14.37C93.6333 14.66 92.8483 14.805 91.9283 14.805H88.6583L89.3333 14.115V18H87.8333ZM94.8533 18L92.1833 14.19H93.7883L96.4883 18H94.8533ZM89.3333 14.265L88.6583 13.53H91.8833C92.8433 13.53 93.5683 13.325 94.0583 12.915C94.5583 12.495 94.8083 11.91 94.8083 11.16C94.8083 10.41 94.5583 9.83 94.0583 9.42C93.5683 9.01 92.8433 8.805 91.8833 8.805H88.6583L89.3333 8.055V14.265ZM97.1417 18L101.897 7.5H103.382L108.152 18H106.577L102.332 8.34H102.932L98.6867 18H97.1417ZM99.1667 15.375L99.5717 14.175H105.482L105.917 15.375H99.1667ZM116.806 18.12C116.006 18.12 115.241 18 114.511 17.76C113.781 17.51 113.206 17.19 112.786 16.8L113.341 15.63C113.741 15.98 114.251 16.27 114.871 16.5C115.491 16.73 116.136 16.845 116.806 16.845C117.416 16.845 117.911 16.775 118.291 16.635C118.671 16.495 118.951 16.305 119.131 16.065C119.311 15.815 119.401 15.535 119.401 15.225C119.401 14.865 119.281 14.575 119.041 14.355C118.811 14.135 118.506 13.96 118.126 13.83C117.756 13.69 117.346 13.57 116.896 13.47C116.446 13.37 115.991 13.255 115.531 13.125C115.081 12.985 114.666 12.81 114.286 12.6C113.916 12.39 113.616 12.11 113.386 11.76C113.156 11.4 113.041 10.94 113.041 10.38C113.041 9.84 113.181 9.345 113.461 8.895C113.751 8.435 114.191 8.07 114.781 7.8C115.381 7.52 116.141 7.38 117.061 7.38C117.671 7.38 118.276 7.46 118.876 7.62C119.476 7.78 119.996 8.01 120.436 8.31L119.941 9.51C119.491 9.21 119.016 8.995 118.516 8.865C118.016 8.725 117.531 8.655 117.061 8.655C116.471 8.655 115.986 8.73 115.606 8.88C115.226 9.03 114.946 9.23 114.766 9.48C114.596 9.73 114.511 10.01 114.511 10.32C114.511 10.69 114.626 10.985 114.856 11.205C115.096 11.425 115.401 11.6 115.771 11.73C116.151 11.86 116.566 11.98 117.016 12.09C117.466 12.19 117.916 12.305 118.366 12.435C118.826 12.565 119.241 12.735 119.611 12.945C119.991 13.155 120.296 13.435 120.526 13.785C120.756 14.135 120.871 14.585 120.871 15.135C120.871 15.665 120.726 16.16 120.436 16.62C120.146 17.07 119.696 17.435 119.086 17.715C118.486 17.985 117.726 18.12 116.806 18.12ZM124.428 12.03H129.828V13.305H124.428V12.03ZM124.563 16.695H130.683V18H123.063V7.5H130.473V8.805H124.563V16.695ZM135.197 18V8.805H131.597V7.5H140.282V8.805H136.682V18H135.197ZM144.147 18V8.805H140.547V7.5H149.232V8.805H145.632V18H144.147ZM150.866 18V7.5H152.366V18H150.866ZM155.509 18V7.5H156.739L163.684 16.125H163.039V7.5H164.539V18H163.309L156.364 9.375H157.009V18H155.509ZM172.422 18.12C171.612 18.12 170.867 17.99 170.187 17.73C169.507 17.46 168.917 17.085 168.417 16.605C167.917 16.115 167.527 15.545 167.247 14.895C166.967 14.245 166.827 13.53 166.827 12.75C166.827 11.97 166.967 11.255 167.247 10.605C167.527 9.955 167.917 9.39 168.417 8.91C168.927 8.42 169.522 8.045 170.202 7.785C170.882 7.515 171.632 7.38 172.452 7.38C173.282 7.38 174.042 7.515 174.732 7.785C175.422 8.055 176.007 8.46 176.487 9L175.557 9.93C175.127 9.51 174.657 9.205 174.147 9.015C173.647 8.815 173.102 8.715 172.512 8.715C171.912 8.715 171.352 8.815 170.832 9.015C170.322 9.215 169.877 9.495 169.497 9.855C169.127 10.215 168.837 10.645 168.627 11.145C168.427 11.635 168.327 12.17 168.327 12.75C168.327 13.32 168.427 13.855 168.627 14.355C168.837 14.845 169.127 15.275 169.497 15.645C169.877 16.005 170.322 16.285 170.832 16.485C171.342 16.685 171.897 16.785 172.497 16.785C173.057 16.785 173.592 16.7 174.102 16.53C174.622 16.35 175.102 16.055 175.542 15.645L176.397 16.785C175.877 17.225 175.267 17.56 174.567 17.79C173.877 18.01 173.162 18.12 172.422 18.12ZM174.957 16.59V12.69H176.397V16.785L174.957 16.59Z" fill="white"/>
<circle cx="11" cy="13" r="10.5" fill="#6C6AEB" stroke="#6C6AEB"/>
<path d="M6.97353 18.6499V17.6299L11.2485 13.5049C11.6285 13.1449 11.9085 12.8299 12.0885 12.5599C12.2785 12.2799 12.4035 12.0249 12.4635 11.7949C12.5335 11.5549 12.5685 11.3249 12.5685 11.1049C12.5685 10.5649 12.3785 10.1399 11.9985 9.8299C11.6185 9.5199 11.0635 9.3649 10.3335 9.3649C9.77353 9.3649 9.26853 9.4599 8.81853 9.6499C8.36853 9.8299 7.97853 10.1149 7.64853 10.5049L6.62853 9.6199C7.02853 9.1099 7.56353 8.7199 8.23353 8.4499C8.91353 8.1699 9.65853 8.0299 10.4685 8.0299C11.1985 8.0299 11.8335 8.1499 12.3735 8.3899C12.9135 8.6199 13.3285 8.9549 13.6185 9.3949C13.9185 9.8349 14.0685 10.3549 14.0685 10.9549C14.0685 11.2949 14.0235 11.6299 13.9335 11.9599C13.8435 12.2899 13.6735 12.6399 13.4235 13.0099C13.1735 13.3799 12.8135 13.7949 12.3435 14.2549L8.53353 17.9299L8.17353 17.3449H14.5185V18.6499H6.97353Z" fill="white"/>
</svg>
