<svg width="137" height="142" viewBox="0 0 137 142" fill="none" xmlns="http://www.w3.org/2000/svg">
<g filter="url(#filter0_d_1388_16785)">
<circle cx="68.5" cy="69.5" r="64.5" fill="white"/>
<path d="M60.9032 57.128L24.2432 74.5537C21.7992 75.4473 17.1556 78.307 18.1332 82.5964C19.3552 87.9581 23.0212 87.9581 26.6872 87.9581C29.62 87.9581 86.5652 87.9581 114.671 87.9581C115.893 87.9581 118.582 87.1539 119.559 83.9368C120.781 79.9155 119.559 77.2346 114.671 74.5537C110.761 72.409 82.8992 59.362 69.4572 53.1066V49.0853C69.324 45.064 77.6336 45.064 76.656 39.7022C75.6784 34.3404 71.4939 33 69.4572 33C67.4205 33 63.1028 34.3404 62.1252 39.7022" stroke="url(#paint0_linear_1388_16785)" stroke-width="5" stroke-linecap="round"/>
<circle cx="113" cy="20" r="20" fill="black"/>
<path d="M113.008 25.12C112.188 25.12 111.453 24.91 110.803 24.49C110.163 24.07 109.653 23.46 109.273 22.66C108.903 21.86 108.718 20.89 108.718 19.75C108.718 18.61 108.903 17.64 109.273 16.84C109.653 16.04 110.163 15.43 110.803 15.01C111.453 14.59 112.188 14.38 113.008 14.38C113.818 14.38 114.548 14.59 115.198 15.01C115.848 15.43 116.358 16.04 116.728 16.84C117.098 17.64 117.283 18.61 117.283 19.75C117.283 20.89 117.098 21.86 116.728 22.66C116.358 23.46 115.848 24.07 115.198 24.49C114.548 24.91 113.818 25.12 113.008 25.12ZM113.008 23.785C113.558 23.785 114.038 23.635 114.448 23.335C114.868 23.035 115.193 22.585 115.423 21.985C115.663 21.385 115.783 20.64 115.783 19.75C115.783 18.86 115.663 18.115 115.423 17.515C115.193 16.915 114.868 16.465 114.448 16.165C114.038 15.865 113.558 15.715 113.008 15.715C112.458 15.715 111.973 15.865 111.553 16.165C111.133 16.465 110.803 16.915 110.563 17.515C110.333 18.115 110.218 18.86 110.218 19.75C110.218 20.64 110.333 21.385 110.563 21.985C110.803 22.585 111.133 23.035 111.553 23.335C111.973 23.635 112.458 23.785 113.008 23.785Z" fill="white"/>
</g>
<defs>
<filter id="filter0_d_1388_16785" x="0" y="0" width="137" height="142" filterUnits="userSpaceOnUse" color-interpolation-filters="sRGB">
<feFlood flood-opacity="0" result="BackgroundImageFix"/>
<feColorMatrix in="SourceAlpha" type="matrix" values="0 0 0 0 0 0 0 0 0 0 0 0 0 0 0 0 0 0 127 0" result="hardAlpha"/>
<feOffset dy="4"/>
<feGaussianBlur stdDeviation="2"/>
<feComposite in2="hardAlpha" operator="out"/>
<feColorMatrix type="matrix" values="0 0 0 0 0 0 0 0 0 0 0 0 0 0 0 0 0 0 0.25 0"/>
<feBlend mode="normal" in2="BackgroundImageFix" result="effect1_dropShadow_1388_16785"/>
<feBlend mode="normal" in="SourceGraphic" in2="effect1_dropShadow_1388_16785" result="shape"/>
</filter>
<linearGradient id="paint0_linear_1388_16785" x1="39.3871" y1="44.3149" x2="86.175" y2="96.861" gradientUnits="userSpaceOnUse">
<stop stop-color="#5050AF"/>
<stop offset="1" stop-color="#EA5820"/>
</linearGradient>
</defs>
</svg>
