<svg width="250" height="40" viewBox="0 0 250 40" fill="none" xmlns="http://www.w3.org/2000/svg">
<rect x="0.5" y="0.5" width="249" height="39" rx="19.5" fill="#6C6AEB" stroke="#6C6AEB"/>
<path d="M76.925 24L81.65 13.5H83.57L88.31 24H86.27L82.205 14.535H82.985L78.935 24H76.925ZM79.1 21.57L79.625 20.04H85.295L85.82 21.57H79.1ZM92.7821 24.105C92.0121 24.105 91.3171 23.935 90.6971 23.595C90.0871 23.245 89.6071 22.765 89.2571 22.155C88.9071 21.545 88.7321 20.825 88.7321 19.995C88.7321 19.165 88.9071 18.445 89.2571 17.835C89.6071 17.225 90.0871 16.75 90.6971 16.41C91.3171 16.07 92.0121 15.9 92.7821 15.9C93.4521 15.9 94.0521 16.05 94.5821 16.35C95.1121 16.64 95.5321 17.085 95.8421 17.685C96.1521 18.285 96.3071 19.055 96.3071 19.995C96.3071 20.925 96.1571 21.695 95.8571 22.305C95.5571 22.905 95.1421 23.355 94.6121 23.655C94.0821 23.955 93.4721 24.105 92.7821 24.105ZM93.0071 22.5C93.4571 22.5 93.8571 22.4 94.2071 22.2C94.5671 22 94.8521 21.71 95.0621 21.33C95.2821 20.95 95.3921 20.505 95.3921 19.995C95.3921 19.475 95.2821 19.03 95.0621 18.66C94.8521 18.28 94.5671 17.99 94.2071 17.79C93.8571 17.59 93.4571 17.49 93.0071 17.49C92.5571 17.49 92.1521 17.59 91.7921 17.79C91.4421 17.99 91.1571 18.28 90.9371 18.66C90.7271 19.03 90.6221 19.475 90.6221 19.995C90.6221 20.505 90.7271 20.95 90.9371 21.33C91.1571 21.71 91.4421 22 91.7921 22.2C92.1521 22.4 92.5571 22.5 93.0071 22.5ZM95.4371 24V22.11L95.5121 19.98L95.3621 17.85V12.87H97.2221V24H95.4371ZM103.08 24.105C102.31 24.105 101.615 23.935 100.995 23.595C100.385 23.245 99.905 22.765 99.555 22.155C99.205 21.545 99.03 20.825 99.03 19.995C99.03 19.165 99.205 18.445 99.555 17.835C99.905 17.225 100.385 16.75 100.995 16.41C101.615 16.07 102.31 15.9 103.08 15.9C103.75 15.9 104.35 16.05 104.88 16.35C105.41 16.64 105.83 17.085 106.14 17.685C106.45 18.285 106.605 19.055 106.605 19.995C106.605 20.925 106.455 21.695 106.155 22.305C105.855 22.905 105.44 23.355 104.91 23.655C104.38 23.955 103.77 24.105 103.08 24.105ZM103.305 22.5C103.755 22.5 104.155 22.4 104.505 22.2C104.865 22 105.15 21.71 105.36 21.33C105.58 20.95 105.69 20.505 105.69 19.995C105.69 19.475 105.58 19.03 105.36 18.66C105.15 18.28 104.865 17.99 104.505 17.79C104.155 17.59 103.755 17.49 103.305 17.49C102.855 17.49 102.45 17.59 102.09 17.79C101.74 17.99 101.455 18.28 101.235 18.66C101.025 19.03 100.92 19.475 100.92 19.995C100.92 20.505 101.025 20.95 101.235 21.33C101.455 21.71 101.74 22 102.09 22.2C102.45 22.4 102.855 22.5 103.305 22.5ZM105.735 24V22.11L105.81 19.98L105.66 17.85V12.87H107.52V24H105.735ZM113.753 24.105C112.863 24.105 112.083 23.93 111.413 23.58C110.753 23.22 110.238 22.73 109.868 22.11C109.508 21.49 109.328 20.785 109.328 19.995C109.328 19.195 109.503 18.49 109.853 17.88C110.213 17.26 110.703 16.775 111.323 16.425C111.953 16.075 112.668 15.9 113.468 15.9C114.248 15.9 114.943 16.07 115.553 16.41C116.163 16.75 116.643 17.23 116.993 17.85C117.343 18.47 117.518 19.2 117.518 20.04C117.518 20.12 117.513 20.21 117.503 20.31C117.503 20.41 117.498 20.505 117.488 20.595H110.813V19.35H116.498L115.763 19.74C115.773 19.28 115.678 18.875 115.478 18.525C115.278 18.175 115.003 17.9 114.653 17.7C114.313 17.5 113.918 17.4 113.468 17.4C113.008 17.4 112.603 17.5 112.253 17.7C111.913 17.9 111.643 18.18 111.443 18.54C111.253 18.89 111.158 19.305 111.158 19.785V20.085C111.158 20.565 111.268 20.99 111.488 21.36C111.708 21.73 112.018 22.015 112.418 22.215C112.818 22.415 113.278 22.515 113.798 22.515C114.248 22.515 114.653 22.445 115.013 22.305C115.373 22.165 115.693 21.945 115.973 21.645L116.978 22.8C116.618 23.22 116.163 23.545 115.613 23.775C115.073 23.995 114.453 24.105 113.753 24.105ZM122.709 24.105C121.939 24.105 121.244 23.935 120.624 23.595C120.014 23.245 119.534 22.765 119.184 22.155C118.834 21.545 118.659 20.825 118.659 19.995C118.659 19.165 118.834 18.445 119.184 17.835C119.534 17.225 120.014 16.75 120.624 16.41C121.244 16.07 121.939 15.9 122.709 15.9C123.379 15.9 123.979 16.05 124.509 16.35C125.039 16.64 125.459 17.085 125.769 17.685C126.079 18.285 126.234 19.055 126.234 19.995C126.234 20.925 126.084 21.695 125.784 22.305C125.484 22.905 125.069 23.355 124.539 23.655C124.009 23.955 123.399 24.105 122.709 24.105ZM122.934 22.5C123.384 22.5 123.784 22.4 124.134 22.2C124.494 22 124.779 21.71 124.989 21.33C125.209 20.95 125.319 20.505 125.319 19.995C125.319 19.475 125.209 19.03 124.989 18.66C124.779 18.28 124.494 17.99 124.134 17.79C123.784 17.59 123.384 17.49 122.934 17.49C122.484 17.49 122.079 17.59 121.719 17.79C121.369 17.99 121.084 18.28 120.864 18.66C120.654 19.03 120.549 19.475 120.549 19.995C120.549 20.505 120.654 20.95 120.864 21.33C121.084 21.71 121.369 22 121.719 22.2C122.079 22.4 122.484 22.5 122.934 22.5ZM125.364 24V22.11L125.439 19.98L125.289 17.85V12.87H127.149V24H125.364ZM136.777 24.105C135.897 24.105 135.217 23.88 134.737 23.43C134.257 22.97 134.017 22.295 134.017 21.405V14.22H135.892V21.36C135.892 21.74 135.987 22.035 136.177 22.245C136.377 22.455 136.652 22.56 137.002 22.56C137.422 22.56 137.772 22.45 138.052 22.23L138.577 23.565C138.357 23.745 138.087 23.88 137.767 23.97C137.447 24.06 137.117 24.105 136.777 24.105ZM132.697 17.55V16.05H138.037V17.55H132.697ZM143.456 24.105C142.636 24.105 141.906 23.93 141.266 23.58C140.626 23.22 140.121 22.73 139.751 22.11C139.381 21.49 139.196 20.785 139.196 19.995C139.196 19.195 139.381 18.49 139.751 17.88C140.121 17.26 140.626 16.775 141.266 16.425C141.906 16.075 142.636 15.9 143.456 15.9C144.286 15.9 145.021 16.075 145.661 16.425C146.311 16.775 146.816 17.255 147.176 17.865C147.546 18.475 147.731 19.185 147.731 19.995C147.731 20.785 147.546 21.49 147.176 22.11C146.816 22.73 146.311 23.22 145.661 23.58C145.021 23.93 144.286 24.105 143.456 24.105ZM143.456 22.5C143.916 22.5 144.326 22.4 144.686 22.2C145.046 22 145.326 21.71 145.526 21.33C145.736 20.95 145.841 20.505 145.841 19.995C145.841 19.475 145.736 19.03 145.526 18.66C145.326 18.28 145.046 17.99 144.686 17.79C144.326 17.59 143.921 17.49 143.471 17.49C143.011 17.49 142.601 17.59 142.241 17.79C141.891 17.99 141.611 18.28 141.401 18.66C141.191 19.03 141.086 19.475 141.086 19.995C141.086 20.505 141.191 20.95 141.401 21.33C141.611 21.71 141.891 22 142.241 22.2C142.601 22.4 143.006 22.5 143.456 22.5ZM153.849 24V13.5H158.769C160.029 13.5 160.989 13.75 161.649 14.25C162.309 14.74 162.639 15.4 162.639 16.23C162.639 16.79 162.509 17.27 162.249 17.67C161.989 18.06 161.639 18.365 161.199 18.585C160.769 18.795 160.299 18.9 159.789 18.9L160.059 18.36C160.649 18.36 161.179 18.47 161.649 18.69C162.119 18.9 162.489 19.21 162.759 19.62C163.039 20.03 163.179 20.54 163.179 21.15C163.179 22.05 162.834 22.75 162.144 23.25C161.454 23.75 160.429 24 159.069 24H153.849ZM155.799 22.47H158.949C159.679 22.47 160.239 22.35 160.629 22.11C161.019 21.87 161.214 21.485 161.214 20.955C161.214 20.435 161.019 20.055 160.629 19.815C160.239 19.565 159.679 19.44 158.949 19.44H155.649V17.925H158.559C159.239 17.925 159.759 17.805 160.119 17.565C160.489 17.325 160.674 16.965 160.674 16.485C160.674 15.995 160.489 15.63 160.119 15.39C159.759 15.15 159.239 15.03 158.559 15.03H155.799V22.47ZM170.016 24V22.38L169.911 22.035V19.2C169.911 18.65 169.746 18.225 169.416 17.925C169.086 17.615 168.586 17.46 167.916 17.46C167.466 17.46 167.021 17.53 166.581 17.67C166.151 17.81 165.786 18.005 165.486 18.255L164.751 16.89C165.181 16.56 165.691 16.315 166.281 16.155C166.881 15.985 167.501 15.9 168.141 15.9C169.301 15.9 170.196 16.18 170.826 16.74C171.466 17.29 171.786 18.145 171.786 19.305V24H170.016ZM167.496 24.105C166.896 24.105 166.371 24.005 165.921 23.805C165.471 23.595 165.121 23.31 164.871 22.95C164.631 22.58 164.511 22.165 164.511 21.705C164.511 21.255 164.616 20.85 164.826 20.49C165.046 20.13 165.401 19.845 165.891 19.635C166.381 19.425 167.031 19.32 167.841 19.32H170.166V20.565H167.976C167.336 20.565 166.906 20.67 166.686 20.88C166.466 21.08 166.356 21.33 166.356 21.63C166.356 21.97 166.491 22.24 166.761 22.44C167.031 22.64 167.406 22.74 167.886 22.74C168.346 22.74 168.756 22.635 169.116 22.425C169.486 22.215 169.751 21.905 169.911 21.495L170.226 22.62C170.046 23.09 169.721 23.455 169.251 23.715C168.791 23.975 168.206 24.105 167.496 24.105ZM177.837 27.015C177.097 27.015 176.372 26.915 175.662 26.715C174.962 26.525 174.387 26.245 173.937 25.875L174.777 24.465C175.127 24.755 175.567 24.985 176.097 25.155C176.637 25.335 177.182 25.425 177.732 25.425C178.612 25.425 179.257 25.22 179.667 24.81C180.077 24.41 180.282 23.805 180.282 22.995V21.57L180.432 19.755L180.372 17.94V15.99H182.157V22.785C182.157 24.235 181.787 25.3 181.047 25.98C180.307 26.67 179.237 27.015 177.837 27.015ZM177.597 23.64C176.837 23.64 176.147 23.48 175.527 23.16C174.917 22.83 174.432 22.375 174.072 21.795C173.722 21.215 173.547 20.535 173.547 19.755C173.547 18.985 173.722 18.31 174.072 17.73C174.432 17.15 174.917 16.7 175.527 16.38C176.147 16.06 176.837 15.9 177.597 15.9C178.277 15.9 178.887 16.035 179.427 16.305C179.967 16.575 180.397 16.995 180.717 17.565C181.047 18.135 181.212 18.865 181.212 19.755C181.212 20.645 181.047 21.38 180.717 21.96C180.397 22.53 179.967 22.955 179.427 23.235C178.887 23.505 178.277 23.64 177.597 23.64ZM177.882 22.05C178.352 22.05 178.772 21.955 179.142 21.765C179.512 21.565 179.797 21.295 179.997 20.955C180.207 20.605 180.312 20.205 180.312 19.755C180.312 19.305 180.207 18.91 179.997 18.57C179.797 18.22 179.512 17.955 179.142 17.775C178.772 17.585 178.352 17.49 177.882 17.49C177.412 17.49 176.987 17.585 176.607 17.775C176.237 17.955 175.947 18.22 175.737 18.57C175.537 18.91 175.437 19.305 175.437 19.755C175.437 20.205 175.537 20.605 175.737 20.955C175.947 21.295 176.237 21.565 176.607 21.765C176.987 21.955 177.412 22.05 177.882 22.05Z" fill="white"/>
<path d="M30.1316 11.3514C30.1316 9.9009 29.4053 7 26.5 7C24.1675 7 23.2395 8.86987 22.9642 10.3577C22.8638 10.9008 22.4207 11.3514 21.8684 11.3514H20.8334C19.8996 11.3514 19.09 11.9976 18.8831 12.9083L15.5551 27.5569C15.2707 28.8084 16.222 30 17.5054 30H35.4081C36.7187 30 37.6751 28.7606 37.3428 27.4928L34.1545 15.3307C33.9239 14.4512 33.1291 13.8378 32.2199 13.8378H23.9113C22.9541 13.8378 22.1311 14.516 21.9481 15.4555L19.8421 26.2703" stroke="white" stroke-linecap="round"/>
</svg>
