<svg width="250" height="40" viewBox="0 0 250 40" fill="none" xmlns="http://www.w3.org/2000/svg">
<rect x="0.5" y="0.5" width="249" height="39" rx="19.5" stroke="white"/>
<path d="M86.925 24L91.65 13.5H93.57L98.31 24H96.27L92.205 14.535H92.985L88.935 24H86.925ZM89.1 21.57L89.625 20.04H95.295L95.82 21.57H89.1ZM102.782 24.105C102.012 24.105 101.317 23.935 100.697 23.595C100.087 23.245 99.6071 22.765 99.2571 22.155C98.9071 21.545 98.7321 20.825 98.7321 19.995C98.7321 19.165 98.9071 18.445 99.2571 17.835C99.6071 17.225 100.087 16.75 100.697 16.41C101.317 16.07 102.012 15.9 102.782 15.9C103.452 15.9 104.052 16.05 104.582 16.35C105.112 16.64 105.532 17.085 105.842 17.685C106.152 18.285 106.307 19.055 106.307 19.995C106.307 20.925 106.157 21.695 105.857 22.305C105.557 22.905 105.142 23.355 104.612 23.655C104.082 23.955 103.472 24.105 102.782 24.105ZM103.007 22.5C103.457 22.5 103.857 22.4 104.207 22.2C104.567 22 104.852 21.71 105.062 21.33C105.282 20.95 105.392 20.505 105.392 19.995C105.392 19.475 105.282 19.03 105.062 18.66C104.852 18.28 104.567 17.99 104.207 17.79C103.857 17.59 103.457 17.49 103.007 17.49C102.557 17.49 102.152 17.59 101.792 17.79C101.442 17.99 101.157 18.28 100.937 18.66C100.727 19.03 100.622 19.475 100.622 19.995C100.622 20.505 100.727 20.95 100.937 21.33C101.157 21.71 101.442 22 101.792 22.2C102.152 22.4 102.557 22.5 103.007 22.5ZM105.437 24V22.11L105.512 19.98L105.362 17.85V12.87H107.222V24H105.437ZM113.08 24.105C112.31 24.105 111.615 23.935 110.995 23.595C110.385 23.245 109.905 22.765 109.555 22.155C109.205 21.545 109.03 20.825 109.03 19.995C109.03 19.165 109.205 18.445 109.555 17.835C109.905 17.225 110.385 16.75 110.995 16.41C111.615 16.07 112.31 15.9 113.08 15.9C113.75 15.9 114.35 16.05 114.88 16.35C115.41 16.64 115.83 17.085 116.14 17.685C116.45 18.285 116.605 19.055 116.605 19.995C116.605 20.925 116.455 21.695 116.155 22.305C115.855 22.905 115.44 23.355 114.91 23.655C114.38 23.955 113.77 24.105 113.08 24.105ZM113.305 22.5C113.755 22.5 114.155 22.4 114.505 22.2C114.865 22 115.15 21.71 115.36 21.33C115.58 20.95 115.69 20.505 115.69 19.995C115.69 19.475 115.58 19.03 115.36 18.66C115.15 18.28 114.865 17.99 114.505 17.79C114.155 17.59 113.755 17.49 113.305 17.49C112.855 17.49 112.45 17.59 112.09 17.79C111.74 17.99 111.455 18.28 111.235 18.66C111.025 19.03 110.92 19.475 110.92 19.995C110.92 20.505 111.025 20.95 111.235 21.33C111.455 21.71 111.74 22 112.09 22.2C112.45 22.4 112.855 22.5 113.305 22.5ZM115.735 24V22.11L115.81 19.98L115.66 17.85V12.87H117.52V24H115.735ZM127.148 24.105C126.268 24.105 125.588 23.88 125.108 23.43C124.628 22.97 124.388 22.295 124.388 21.405V14.22H126.263V21.36C126.263 21.74 126.358 22.035 126.548 22.245C126.748 22.455 127.023 22.56 127.373 22.56C127.793 22.56 128.143 22.45 128.423 22.23L128.948 23.565C128.728 23.745 128.458 23.88 128.138 23.97C127.818 24.06 127.488 24.105 127.148 24.105ZM123.068 17.55V16.05H128.408V17.55H123.068ZM133.827 24.105C133.007 24.105 132.277 23.93 131.637 23.58C130.997 23.22 130.492 22.73 130.122 22.11C129.752 21.49 129.567 20.785 129.567 19.995C129.567 19.195 129.752 18.49 130.122 17.88C130.492 17.26 130.997 16.775 131.637 16.425C132.277 16.075 133.007 15.9 133.827 15.9C134.657 15.9 135.392 16.075 136.032 16.425C136.682 16.775 137.187 17.255 137.547 17.865C137.917 18.475 138.102 19.185 138.102 19.995C138.102 20.785 137.917 21.49 137.547 22.11C137.187 22.73 136.682 23.22 136.032 23.58C135.392 23.93 134.657 24.105 133.827 24.105ZM133.827 22.5C134.287 22.5 134.697 22.4 135.057 22.2C135.417 22 135.697 21.71 135.897 21.33C136.107 20.95 136.212 20.505 136.212 19.995C136.212 19.475 136.107 19.03 135.897 18.66C135.697 18.28 135.417 17.99 135.057 17.79C134.697 17.59 134.292 17.49 133.842 17.49C133.382 17.49 132.972 17.59 132.612 17.79C132.262 17.99 131.982 18.28 131.772 18.66C131.562 19.03 131.457 19.475 131.457 19.995C131.457 20.505 131.562 20.95 131.772 21.33C131.982 21.71 132.262 22 132.612 22.2C132.972 22.4 133.377 22.5 133.827 22.5ZM144.221 24V13.5H149.141C150.401 13.5 151.361 13.75 152.021 14.25C152.681 14.74 153.011 15.4 153.011 16.23C153.011 16.79 152.881 17.27 152.621 17.67C152.361 18.06 152.011 18.365 151.571 18.585C151.141 18.795 150.671 18.9 150.161 18.9L150.431 18.36C151.021 18.36 151.551 18.47 152.021 18.69C152.491 18.9 152.861 19.21 153.131 19.62C153.411 20.03 153.551 20.54 153.551 21.15C153.551 22.05 153.206 22.75 152.516 23.25C151.826 23.75 150.801 24 149.441 24H144.221ZM146.171 22.47H149.321C150.051 22.47 150.611 22.35 151.001 22.11C151.391 21.87 151.586 21.485 151.586 20.955C151.586 20.435 151.391 20.055 151.001 19.815C150.611 19.565 150.051 19.44 149.321 19.44H146.021V17.925H148.931C149.611 17.925 150.131 17.805 150.491 17.565C150.861 17.325 151.046 16.965 151.046 16.485C151.046 15.995 150.861 15.63 150.491 15.39C150.131 15.15 149.611 15.03 148.931 15.03H146.171V22.47ZM160.387 24V22.38L160.282 22.035V19.2C160.282 18.65 160.117 18.225 159.787 17.925C159.457 17.615 158.957 17.46 158.287 17.46C157.837 17.46 157.392 17.53 156.952 17.67C156.522 17.81 156.157 18.005 155.857 18.255L155.122 16.89C155.552 16.56 156.062 16.315 156.652 16.155C157.252 15.985 157.872 15.9 158.512 15.9C159.672 15.9 160.567 16.18 161.197 16.74C161.837 17.29 162.157 18.145 162.157 19.305V24H160.387ZM157.867 24.105C157.267 24.105 156.742 24.005 156.292 23.805C155.842 23.595 155.492 23.31 155.242 22.95C155.002 22.58 154.882 22.165 154.882 21.705C154.882 21.255 154.987 20.85 155.197 20.49C155.417 20.13 155.772 19.845 156.262 19.635C156.752 19.425 157.402 19.32 158.212 19.32H160.537V20.565H158.347C157.707 20.565 157.277 20.67 157.057 20.88C156.837 21.08 156.727 21.33 156.727 21.63C156.727 21.97 156.862 22.24 157.132 22.44C157.402 22.64 157.777 22.74 158.257 22.74C158.717 22.74 159.127 22.635 159.487 22.425C159.857 22.215 160.122 21.905 160.282 21.495L160.597 22.62C160.417 23.09 160.092 23.455 159.622 23.715C159.162 23.975 158.577 24.105 157.867 24.105ZM168.208 27.015C167.468 27.015 166.743 26.915 166.033 26.715C165.333 26.525 164.758 26.245 164.308 25.875L165.148 24.465C165.498 24.755 165.938 24.985 166.468 25.155C167.008 25.335 167.553 25.425 168.103 25.425C168.983 25.425 169.628 25.22 170.038 24.81C170.448 24.41 170.653 23.805 170.653 22.995V21.57L170.803 19.755L170.743 17.94V15.99H172.528V22.785C172.528 24.235 172.158 25.3 171.418 25.98C170.678 26.67 169.608 27.015 168.208 27.015ZM167.968 23.64C167.208 23.64 166.518 23.48 165.898 23.16C165.288 22.83 164.803 22.375 164.443 21.795C164.093 21.215 163.918 20.535 163.918 19.755C163.918 18.985 164.093 18.31 164.443 17.73C164.803 17.15 165.288 16.7 165.898 16.38C166.518 16.06 167.208 15.9 167.968 15.9C168.648 15.9 169.258 16.035 169.798 16.305C170.338 16.575 170.768 16.995 171.088 17.565C171.418 18.135 171.583 18.865 171.583 19.755C171.583 20.645 171.418 21.38 171.088 21.96C170.768 22.53 170.338 22.955 169.798 23.235C169.258 23.505 168.648 23.64 167.968 23.64ZM168.253 22.05C168.723 22.05 169.143 21.955 169.513 21.765C169.883 21.565 170.168 21.295 170.368 20.955C170.578 20.605 170.683 20.205 170.683 19.755C170.683 19.305 170.578 18.91 170.368 18.57C170.168 18.22 169.883 17.955 169.513 17.775C169.143 17.585 168.723 17.49 168.253 17.49C167.783 17.49 167.358 17.585 166.978 17.775C166.608 17.955 166.318 18.22 166.108 18.57C165.908 18.91 165.808 19.305 165.808 19.755C165.808 20.205 165.908 20.605 166.108 20.955C166.318 21.295 166.608 21.565 166.978 21.765C167.358 21.955 167.783 22.05 168.253 22.05Z" fill="white"/>
<path d="M30.1316 11.3514C30.1316 9.9009 29.4053 7 26.5 7C24.1675 7 23.2395 8.86987 22.9642 10.3577C22.8638 10.9008 22.4207 11.3514 21.8684 11.3514H20.8334C19.8996 11.3514 19.09 11.9976 18.8831 12.9083L15.5551 27.5569C15.2707 28.8084 16.222 30 17.5054 30H35.4081C36.7187 30 37.6751 28.7606 37.3428 27.4928L34.1545 15.3307C33.9239 14.4512 33.1291 13.8378 32.2199 13.8378H23.9113C22.9541 13.8378 22.1311 14.516 21.9481 15.4555L19.8421 26.2703" stroke="white" stroke-linecap="round"/>
</svg>
