<svg width="250" height="40" viewBox="0 0 250 40" fill="none" xmlns="http://www.w3.org/2000/svg">
<rect x="0.5" y="0.5" width="249" height="39" rx="19.5" stroke="white"/>
<path d="M56.925 25L61.65 14.5H63.57L68.31 25H66.27L62.205 15.535H62.985L58.935 25H56.925ZM59.1 22.57L59.625 21.04H65.295L65.82 22.57H59.1ZM72.7821 25.105C72.0121 25.105 71.3171 24.935 70.6971 24.595C70.0871 24.245 69.6071 23.765 69.2571 23.155C68.9071 22.545 68.7321 21.825 68.7321 20.995C68.7321 20.165 68.9071 19.445 69.2571 18.835C69.6071 18.225 70.0871 17.75 70.6971 17.41C71.3171 17.07 72.0121 16.9 72.7821 16.9C73.4521 16.9 74.0521 17.05 74.5821 17.35C75.1121 17.64 75.5321 18.085 75.8421 18.685C76.1521 19.285 76.3071 20.055 76.3071 20.995C76.3071 21.925 76.1571 22.695 75.8571 23.305C75.5571 23.905 75.1421 24.355 74.6121 24.655C74.0821 24.955 73.4721 25.105 72.7821 25.105ZM73.0071 23.5C73.4571 23.5 73.8571 23.4 74.2071 23.2C74.5671 23 74.8521 22.71 75.0621 22.33C75.2821 21.95 75.3921 21.505 75.3921 20.995C75.3921 20.475 75.2821 20.03 75.0621 19.66C74.8521 19.28 74.5671 18.99 74.2071 18.79C73.8571 18.59 73.4571 18.49 73.0071 18.49C72.5571 18.49 72.1521 18.59 71.7921 18.79C71.4421 18.99 71.1571 19.28 70.9371 19.66C70.7271 20.03 70.6221 20.475 70.6221 20.995C70.6221 21.505 70.7271 21.95 70.9371 22.33C71.1571 22.71 71.4421 23 71.7921 23.2C72.1521 23.4 72.5571 23.5 73.0071 23.5ZM75.4371 25V23.11L75.5121 20.98L75.3621 18.85V13.87H77.2221V25H75.4371ZM83.08 25.105C82.31 25.105 81.615 24.935 80.995 24.595C80.385 24.245 79.905 23.765 79.555 23.155C79.205 22.545 79.03 21.825 79.03 20.995C79.03 20.165 79.205 19.445 79.555 18.835C79.905 18.225 80.385 17.75 80.995 17.41C81.615 17.07 82.31 16.9 83.08 16.9C83.75 16.9 84.35 17.05 84.88 17.35C85.41 17.64 85.83 18.085 86.14 18.685C86.45 19.285 86.605 20.055 86.605 20.995C86.605 21.925 86.455 22.695 86.155 23.305C85.855 23.905 85.44 24.355 84.91 24.655C84.38 24.955 83.77 25.105 83.08 25.105ZM83.305 23.5C83.755 23.5 84.155 23.4 84.505 23.2C84.865 23 85.15 22.71 85.36 22.33C85.58 21.95 85.69 21.505 85.69 20.995C85.69 20.475 85.58 20.03 85.36 19.66C85.15 19.28 84.865 18.99 84.505 18.79C84.155 18.59 83.755 18.49 83.305 18.49C82.855 18.49 82.45 18.59 82.09 18.79C81.74 18.99 81.455 19.28 81.235 19.66C81.025 20.03 80.92 20.475 80.92 20.995C80.92 21.505 81.025 21.95 81.235 22.33C81.455 22.71 81.74 23 82.09 23.2C82.45 23.4 82.855 23.5 83.305 23.5ZM85.735 25V23.11L85.81 20.98L85.66 18.85V13.87H87.52V25H85.735ZM97.1483 25.105C96.2683 25.105 95.5883 24.88 95.1083 24.43C94.6283 23.97 94.3883 23.295 94.3883 22.405V15.22H96.2633V22.36C96.2633 22.74 96.3583 23.035 96.5483 23.245C96.7483 23.455 97.0233 23.56 97.3733 23.56C97.7933 23.56 98.1433 23.45 98.4233 23.23L98.9483 24.565C98.7283 24.745 98.4583 24.88 98.1383 24.97C97.8183 25.06 97.4883 25.105 97.1483 25.105ZM93.0683 18.55V17.05H98.4083V18.55H93.0683ZM103.827 25.105C103.007 25.105 102.277 24.93 101.637 24.58C100.997 24.22 100.492 23.73 100.122 23.11C99.7521 22.49 99.5671 21.785 99.5671 20.995C99.5671 20.195 99.7521 19.49 100.122 18.88C100.492 18.26 100.997 17.775 101.637 17.425C102.277 17.075 103.007 16.9 103.827 16.9C104.657 16.9 105.392 17.075 106.032 17.425C106.682 17.775 107.187 18.255 107.547 18.865C107.917 19.475 108.102 20.185 108.102 20.995C108.102 21.785 107.917 22.49 107.547 23.11C107.187 23.73 106.682 24.22 106.032 24.58C105.392 24.93 104.657 25.105 103.827 25.105ZM103.827 23.5C104.287 23.5 104.697 23.4 105.057 23.2C105.417 23 105.697 22.71 105.897 22.33C106.107 21.95 106.212 21.505 106.212 20.995C106.212 20.475 106.107 20.03 105.897 19.66C105.697 19.28 105.417 18.99 105.057 18.79C104.697 18.59 104.292 18.49 103.842 18.49C103.382 18.49 102.972 18.59 102.612 18.79C102.262 18.99 101.982 19.28 101.772 19.66C101.562 20.03 101.457 20.475 101.457 20.995C101.457 21.505 101.562 21.95 101.772 22.33C101.982 22.71 102.262 23 102.612 23.2C102.972 23.4 103.377 23.5 103.827 23.5ZM116.006 19.33H121.241V20.98H116.006V19.33ZM116.171 25H114.221V14.5H121.886V16.135H116.171V25ZM123.591 25V16.99H125.466V25H123.591ZM124.536 15.67C124.186 15.67 123.896 15.56 123.666 15.34C123.446 15.12 123.336 14.855 123.336 14.545C123.336 14.225 123.446 13.96 123.666 13.75C123.896 13.53 124.186 13.42 124.536 13.42C124.886 13.42 125.171 13.525 125.391 13.735C125.621 13.935 125.736 14.19 125.736 14.5C125.736 14.83 125.626 15.11 125.406 15.34C125.186 15.56 124.896 15.67 124.536 15.67ZM130.942 25.105C130.062 25.105 129.382 24.88 128.902 24.43C128.422 23.97 128.182 23.295 128.182 22.405V15.22H130.057V22.36C130.057 22.74 130.152 23.035 130.342 23.245C130.542 23.455 130.817 23.56 131.167 23.56C131.587 23.56 131.937 23.45 132.217 23.23L132.742 24.565C132.522 24.745 132.252 24.88 131.932 24.97C131.612 25.06 131.282 25.105 130.942 25.105ZM126.862 18.55V17.05H132.202V18.55H126.862ZM137.109 25.105C136.229 25.105 135.549 24.88 135.069 24.43C134.589 23.97 134.349 23.295 134.349 22.405V15.22H136.224V22.36C136.224 22.74 136.319 23.035 136.509 23.245C136.709 23.455 136.984 23.56 137.334 23.56C137.754 23.56 138.104 23.45 138.384 23.23L138.909 24.565C138.689 24.745 138.419 24.88 138.099 24.97C137.779 25.06 137.449 25.105 137.109 25.105ZM133.029 18.55V17.05H138.369V18.55H133.029ZM140.452 25V16.99H142.327V25H140.452ZM141.397 15.67C141.047 15.67 140.757 15.56 140.527 15.34C140.307 15.12 140.197 14.855 140.197 14.545C140.197 14.225 140.307 13.96 140.527 13.75C140.757 13.53 141.047 13.42 141.397 13.42C141.747 13.42 142.032 13.525 142.252 13.735C142.482 13.935 142.597 14.19 142.597 14.5C142.597 14.83 142.487 15.11 142.267 15.34C142.047 15.56 141.757 15.67 141.397 15.67ZM149.333 16.9C149.973 16.9 150.543 17.025 151.043 17.275C151.553 17.525 151.953 17.91 152.243 18.43C152.533 18.94 152.678 19.6 152.678 20.41V25H150.803V20.65C150.803 19.94 150.633 19.41 150.293 19.06C149.963 18.71 149.498 18.535 148.898 18.535C148.458 18.535 148.068 18.625 147.728 18.805C147.388 18.985 147.123 19.255 146.933 19.615C146.753 19.965 146.663 20.41 146.663 20.95V25H144.788V16.99H146.573V19.15L146.258 18.49C146.538 17.98 146.943 17.59 147.473 17.32C148.013 17.04 148.633 16.9 149.333 16.9ZM158.701 28.015C157.961 28.015 157.236 27.915 156.526 27.715C155.826 27.525 155.251 27.245 154.801 26.875L155.641 25.465C155.991 25.755 156.431 25.985 156.961 26.155C157.501 26.335 158.046 26.425 158.596 26.425C159.476 26.425 160.121 26.22 160.531 25.81C160.941 25.41 161.146 24.805 161.146 23.995V22.57L161.296 20.755L161.236 18.94V16.99H163.021V23.785C163.021 25.235 162.651 26.3 161.911 26.98C161.171 27.67 160.101 28.015 158.701 28.015ZM158.461 24.64C157.701 24.64 157.011 24.48 156.391 24.16C155.781 23.83 155.296 23.375 154.936 22.795C154.586 22.215 154.411 21.535 154.411 20.755C154.411 19.985 154.586 19.31 154.936 18.73C155.296 18.15 155.781 17.7 156.391 17.38C157.011 17.06 157.701 16.9 158.461 16.9C159.141 16.9 159.751 17.035 160.291 17.305C160.831 17.575 161.261 17.995 161.581 18.565C161.911 19.135 162.076 19.865 162.076 20.755C162.076 21.645 161.911 22.38 161.581 22.96C161.261 23.53 160.831 23.955 160.291 24.235C159.751 24.505 159.141 24.64 158.461 24.64ZM158.746 23.05C159.216 23.05 159.636 22.955 160.006 22.765C160.376 22.565 160.661 22.295 160.861 21.955C161.071 21.605 161.176 21.205 161.176 20.755C161.176 20.305 161.071 19.91 160.861 19.57C160.661 19.22 160.376 18.955 160.006 18.775C159.636 18.585 159.216 18.49 158.746 18.49C158.276 18.49 157.851 18.585 157.471 18.775C157.101 18.955 156.811 19.22 156.601 19.57C156.401 19.91 156.301 20.305 156.301 20.755C156.301 21.205 156.401 21.605 156.601 21.955C156.811 22.295 157.101 22.565 157.471 22.765C157.851 22.955 158.276 23.05 158.746 23.05ZM169.811 25V14.5H174.131C175.061 14.5 175.856 14.65 176.516 14.95C177.186 15.25 177.701 15.68 178.061 16.24C178.421 16.8 178.601 17.465 178.601 18.235C178.601 19.005 178.421 19.67 178.061 20.23C177.701 20.78 177.186 21.205 176.516 21.505C175.856 21.795 175.061 21.94 174.131 21.94H170.891L171.761 21.055V25H169.811ZM176.681 25L174.026 21.19H176.111L178.781 25H176.681ZM171.761 21.265L170.891 20.335H174.041C174.901 20.335 175.546 20.15 175.976 19.78C176.416 19.41 176.636 18.895 176.636 18.235C176.636 17.565 176.416 17.05 175.976 16.69C175.546 16.33 174.901 16.15 174.041 16.15H170.891L171.761 15.19V21.265ZM184.203 25.105C183.383 25.105 182.653 24.93 182.013 24.58C181.373 24.22 180.868 23.73 180.498 23.11C180.128 22.49 179.943 21.785 179.943 20.995C179.943 20.195 180.128 19.49 180.498 18.88C180.868 18.26 181.373 17.775 182.013 17.425C182.653 17.075 183.383 16.9 184.203 16.9C185.033 16.9 185.768 17.075 186.408 17.425C187.058 17.775 187.563 18.255 187.923 18.865C188.293 19.475 188.478 20.185 188.478 20.995C188.478 21.785 188.293 22.49 187.923 23.11C187.563 23.73 187.058 24.22 186.408 24.58C185.768 24.93 185.033 25.105 184.203 25.105ZM184.203 23.5C184.663 23.5 185.073 23.4 185.433 23.2C185.793 23 186.073 22.71 186.273 22.33C186.483 21.95 186.588 21.505 186.588 20.995C186.588 20.475 186.483 20.03 186.273 19.66C186.073 19.28 185.793 18.99 185.433 18.79C185.073 18.59 184.668 18.49 184.218 18.49C183.758 18.49 183.348 18.59 182.988 18.79C182.638 18.99 182.358 19.28 182.148 19.66C181.938 20.03 181.833 20.475 181.833 20.995C181.833 21.505 181.938 21.95 182.148 22.33C182.358 22.71 182.638 23 182.988 23.2C183.348 23.4 183.753 23.5 184.203 23.5ZM193.871 25.105C193.051 25.105 192.321 24.93 191.681 24.58C191.041 24.22 190.536 23.73 190.166 23.11C189.796 22.49 189.611 21.785 189.611 20.995C189.611 20.195 189.796 19.49 190.166 18.88C190.536 18.26 191.041 17.775 191.681 17.425C192.321 17.075 193.051 16.9 193.871 16.9C194.701 16.9 195.436 17.075 196.076 17.425C196.726 17.775 197.231 18.255 197.591 18.865C197.961 19.475 198.146 20.185 198.146 20.995C198.146 21.785 197.961 22.49 197.591 23.11C197.231 23.73 196.726 24.22 196.076 24.58C195.436 24.93 194.701 25.105 193.871 25.105ZM193.871 23.5C194.331 23.5 194.741 23.4 195.101 23.2C195.461 23 195.741 22.71 195.941 22.33C196.151 21.95 196.256 21.505 196.256 20.995C196.256 20.475 196.151 20.03 195.941 19.66C195.741 19.28 195.461 18.99 195.101 18.79C194.741 18.59 194.336 18.49 193.886 18.49C193.426 18.49 193.016 18.59 192.656 18.79C192.306 18.99 192.026 19.28 191.816 19.66C191.606 20.03 191.501 20.475 191.501 20.995C191.501 21.505 191.606 21.95 191.816 22.33C192.026 22.71 192.306 23 192.656 23.2C193.016 23.4 193.421 23.5 193.871 23.5ZM210.049 16.9C210.689 16.9 211.254 17.025 211.744 17.275C212.244 17.525 212.634 17.91 212.914 18.43C213.194 18.94 213.334 19.6 213.334 20.41V25H211.459V20.65C211.459 19.94 211.304 19.41 210.994 19.06C210.684 18.71 210.239 18.535 209.659 18.535C209.249 18.535 208.884 18.625 208.564 18.805C208.254 18.985 208.009 19.25 207.829 19.6C207.659 19.95 207.574 20.395 207.574 20.935V25H205.699V20.65C205.699 19.94 205.544 19.41 205.234 19.06C204.924 18.71 204.479 18.535 203.899 18.535C203.489 18.535 203.124 18.625 202.804 18.805C202.494 18.985 202.249 19.25 202.069 19.6C201.899 19.95 201.814 20.395 201.814 20.935V25H199.939V16.99H201.724V19.12L201.409 18.49C201.679 17.97 202.069 17.575 202.579 17.305C203.099 17.035 203.689 16.9 204.349 16.9C205.099 16.9 205.749 17.085 206.299 17.455C206.859 17.825 207.229 18.385 207.409 19.135L206.674 18.88C206.934 18.28 207.364 17.8 207.964 17.44C208.564 17.08 209.259 16.9 210.049 16.9Z" fill="white"/>
<path d="M23.2536 18.2683L15.3466 22.0732C14.8194 22.2683 13.8179 22.8927 14.0287 23.8293C14.2923 25 15.083 25 15.8737 25C16.5063 25 28.7886 25 34.8507 25C35.1142 25 35.6941 24.8244 35.9049 24.122C36.1685 23.2439 35.9049 22.6585 34.8507 22.0732C34.0072 21.6049 27.9979 18.7561 25.0986 17.3902V16.5122C25.0699 15.6341 26.8622 15.6341 26.6513 14.4634C26.4404 13.2927 25.5379 13 25.0986 13C24.6593 13 23.7281 13.2927 23.5172 14.4634" stroke="white" stroke-linecap="round"/>
</svg>
