<svg width="230" height="40" viewBox="0 0 230 40" fill="none" xmlns="http://www.w3.org/2000/svg">
<rect x="0.5" y="0.5" width="229" height="39" rx="19.5" stroke="white"/>
<path d="M26.7539 24.15C25.9539 24.15 25.2089 24.02 24.5189 23.76C23.8389 23.49 23.2439 23.115 22.7339 22.635C22.2339 22.145 21.8439 21.57 21.5639 20.91C21.2839 20.25 21.1439 19.53 21.1439 18.75C21.1439 17.97 21.2839 17.25 21.5639 16.59C21.8439 15.93 22.2389 15.36 22.7489 14.88C23.2589 14.39 23.8539 14.015 24.5339 13.755C25.2139 13.485 25.9589 13.35 26.7689 13.35C27.6289 13.35 28.4139 13.5 29.1239 13.8C29.8339 14.09 30.4339 14.525 30.9239 15.105L29.6639 16.29C29.2839 15.88 28.8589 15.575 28.3889 15.375C27.9189 15.165 27.4089 15.06 26.8589 15.06C26.3089 15.06 25.8039 15.15 25.3439 15.33C24.8939 15.51 24.4989 15.765 24.1589 16.095C23.8289 16.425 23.5689 16.815 23.3789 17.265C23.1989 17.715 23.1089 18.21 23.1089 18.75C23.1089 19.29 23.1989 19.785 23.3789 20.235C23.5689 20.685 23.8289 21.075 24.1589 21.405C24.4989 21.735 24.8939 21.99 25.3439 22.17C25.8039 22.35 26.3089 22.44 26.8589 22.44C27.4089 22.44 27.9189 22.34 28.3889 22.14C28.8589 21.93 29.2839 21.615 29.6639 21.195L30.9239 22.395C30.4339 22.965 29.8339 23.4 29.1239 23.7C28.4139 24 27.6239 24.15 26.7539 24.15ZM32.6123 24V15.99H34.3973V18.195L34.1873 17.55C34.4273 17.01 34.8023 16.6 35.3123 16.32C35.8323 16.04 36.4773 15.9 37.2473 15.9V17.685C37.1673 17.665 37.0923 17.655 37.0223 17.655C36.9523 17.645 36.8823 17.64 36.8123 17.64C36.1023 17.64 35.5373 17.85 35.1173 18.27C34.6973 18.68 34.4873 19.295 34.4873 20.115V24H32.6123ZM42.5297 24.105C41.6397 24.105 40.8597 23.93 40.1897 23.58C39.5297 23.22 39.0147 22.73 38.6447 22.11C38.2847 21.49 38.1047 20.785 38.1047 19.995C38.1047 19.195 38.2797 18.49 38.6297 17.88C38.9897 17.26 39.4797 16.775 40.0997 16.425C40.7297 16.075 41.4447 15.9 42.2447 15.9C43.0247 15.9 43.7197 16.07 44.3297 16.41C44.9397 16.75 45.4197 17.23 45.7697 17.85C46.1197 18.47 46.2947 19.2 46.2947 20.04C46.2947 20.12 46.2897 20.21 46.2797 20.31C46.2797 20.41 46.2747 20.505 46.2647 20.595H39.5897V19.35H45.2747L44.5397 19.74C44.5497 19.28 44.4547 18.875 44.2547 18.525C44.0547 18.175 43.7797 17.9 43.4297 17.7C43.0897 17.5 42.6947 17.4 42.2447 17.4C41.7847 17.4 41.3797 17.5 41.0297 17.7C40.6897 17.9 40.4197 18.18 40.2197 18.54C40.0297 18.89 39.9347 19.305 39.9347 19.785V20.085C39.9347 20.565 40.0447 20.99 40.2647 21.36C40.4847 21.73 40.7947 22.015 41.1947 22.215C41.5947 22.415 42.0547 22.515 42.5747 22.515C43.0247 22.515 43.4297 22.445 43.7897 22.305C44.1497 22.165 44.4697 21.945 44.7497 21.645L45.7547 22.8C45.3947 23.22 44.9397 23.545 44.3897 23.775C43.8497 23.995 43.2297 24.105 42.5297 24.105ZM52.811 24V22.38L52.706 22.035V19.2C52.706 18.65 52.541 18.225 52.211 17.925C51.881 17.615 51.381 17.46 50.711 17.46C50.261 17.46 49.816 17.53 49.376 17.67C48.946 17.81 48.581 18.005 48.281 18.255L47.546 16.89C47.976 16.56 48.486 16.315 49.076 16.155C49.676 15.985 50.296 15.9 50.936 15.9C52.096 15.9 52.991 16.18 53.621 16.74C54.261 17.29 54.581 18.145 54.581 19.305V24H52.811ZM50.291 24.105C49.691 24.105 49.166 24.005 48.716 23.805C48.266 23.595 47.916 23.31 47.666 22.95C47.426 22.58 47.306 22.165 47.306 21.705C47.306 21.255 47.411 20.85 47.621 20.49C47.841 20.13 48.196 19.845 48.686 19.635C49.176 19.425 49.826 19.32 50.636 19.32H52.961V20.565H50.771C50.131 20.565 49.701 20.67 49.481 20.88C49.261 21.08 49.151 21.33 49.151 21.63C49.151 21.97 49.286 22.24 49.556 22.44C49.826 22.64 50.201 22.74 50.681 22.74C51.141 22.74 51.551 22.635 51.911 22.425C52.281 22.215 52.546 21.905 52.706 21.495L53.021 22.62C52.841 23.09 52.516 23.455 52.046 23.715C51.586 23.975 51.001 24.105 50.291 24.105ZM60.0023 24.105C59.1223 24.105 58.4423 23.88 57.9623 23.43C57.4823 22.97 57.2423 22.295 57.2423 21.405V14.22H59.1173V21.36C59.1173 21.74 59.2123 22.035 59.4023 22.245C59.6023 22.455 59.8773 22.56 60.2273 22.56C60.6473 22.56 60.9973 22.45 61.2773 22.23L61.8023 23.565C61.5823 23.745 61.3123 23.88 60.9923 23.97C60.6723 24.06 60.3423 24.105 60.0023 24.105ZM55.9223 17.55V16.05H61.2623V17.55H55.9223ZM66.8461 24.105C65.9561 24.105 65.1761 23.93 64.5061 23.58C63.8461 23.22 63.3311 22.73 62.9611 22.11C62.6011 21.49 62.4211 20.785 62.4211 19.995C62.4211 19.195 62.5961 18.49 62.9461 17.88C63.3061 17.26 63.7961 16.775 64.4161 16.425C65.0461 16.075 65.7611 15.9 66.5611 15.9C67.3411 15.9 68.0361 16.07 68.6461 16.41C69.2561 16.75 69.7361 17.23 70.0861 17.85C70.4361 18.47 70.6111 19.2 70.6111 20.04C70.6111 20.12 70.6061 20.21 70.5961 20.31C70.5961 20.41 70.5911 20.505 70.5811 20.595H63.9061V19.35H69.5911L68.8561 19.74C68.8661 19.28 68.7711 18.875 68.5711 18.525C68.3711 18.175 68.0961 17.9 67.7461 17.7C67.4061 17.5 67.0111 17.4 66.5611 17.4C66.1011 17.4 65.6961 17.5 65.3461 17.7C65.0061 17.9 64.7361 18.18 64.5361 18.54C64.3461 18.89 64.2511 19.305 64.2511 19.785V20.085C64.2511 20.565 64.3611 20.99 64.5811 21.36C64.8011 21.73 65.1111 22.015 65.5111 22.215C65.9111 22.415 66.3711 22.515 66.8911 22.515C67.3411 22.515 67.7461 22.445 68.1061 22.305C68.4661 22.165 68.7861 21.945 69.0661 21.645L70.0711 22.8C69.7111 23.22 69.2561 23.545 68.7061 23.775C68.1661 23.995 67.5461 24.105 66.8461 24.105ZM80.9976 24.105C80.3176 24.105 79.7126 23.955 79.1826 23.655C78.6526 23.355 78.2326 22.905 77.9226 22.305C77.6226 21.695 77.4726 20.925 77.4726 19.995C77.4726 19.055 77.6276 18.285 77.9376 17.685C78.2576 17.085 78.6826 16.64 79.2126 16.35C79.7526 16.05 80.3476 15.9 80.9976 15.9C81.7876 15.9 82.4826 16.07 83.0826 16.41C83.6926 16.75 84.1726 17.225 84.5226 17.835C84.8826 18.445 85.0626 19.165 85.0626 19.995C85.0626 20.825 84.8826 21.545 84.5226 22.155C84.1726 22.765 83.6926 23.245 83.0826 23.595C82.4826 23.935 81.7876 24.105 80.9976 24.105ZM76.5576 24V12.87H78.4326V17.85L78.2826 19.98L78.3426 22.11V24H76.5576ZM80.7876 22.5C81.2376 22.5 81.6376 22.4 81.9876 22.2C82.3476 22 82.6326 21.71 82.8426 21.33C83.0526 20.95 83.1576 20.505 83.1576 19.995C83.1576 19.475 83.0526 19.03 82.8426 18.66C82.6326 18.28 82.3476 17.99 81.9876 17.79C81.6376 17.59 81.2376 17.49 80.7876 17.49C80.3376 17.49 79.9326 17.59 79.5726 17.79C79.2126 17.99 78.9276 18.28 78.7176 18.66C78.5076 19.03 78.4026 19.475 78.4026 19.995C78.4026 20.505 78.5076 20.95 78.7176 21.33C78.9276 21.71 79.2126 22 79.5726 22.2C79.9326 22.4 80.3376 22.5 80.7876 22.5ZM87.2811 27.015C86.8911 27.015 86.5011 26.95 86.1111 26.82C85.7211 26.69 85.3961 26.51 85.1361 26.28L85.8861 24.9C86.0761 25.07 86.2911 25.205 86.5311 25.305C86.7711 25.405 87.0161 25.455 87.2661 25.455C87.6061 25.455 87.8811 25.37 88.0911 25.2C88.3011 25.03 88.4961 24.745 88.6761 24.345L89.1411 23.295L89.2911 23.07L92.3211 15.99H94.1211L90.3711 24.645C90.1211 25.245 89.8411 25.72 89.5311 26.07C89.2311 26.42 88.8911 26.665 88.5111 26.805C88.1411 26.945 87.7311 27.015 87.2811 27.015ZM88.9311 24.285L85.3161 15.99H87.2661L90.2061 22.905L88.9311 24.285ZM103.203 24.105C102.313 24.105 101.533 23.93 100.863 23.58C100.203 23.22 99.6885 22.73 99.3185 22.11C98.9585 21.49 98.7785 20.785 98.7785 19.995C98.7785 19.195 98.9535 18.49 99.3035 17.88C99.6635 17.26 100.153 16.775 100.773 16.425C101.403 16.075 102.118 15.9 102.918 15.9C103.698 15.9 104.393 16.07 105.003 16.41C105.613 16.75 106.093 17.23 106.443 17.85C106.793 18.47 106.968 19.2 106.968 20.04C106.968 20.12 106.963 20.21 106.953 20.31C106.953 20.41 106.948 20.505 106.938 20.595H100.263V19.35H105.948L105.213 19.74C105.223 19.28 105.128 18.875 104.928 18.525C104.728 18.175 104.453 17.9 104.103 17.7C103.763 17.5 103.368 17.4 102.918 17.4C102.458 17.4 102.053 17.5 101.703 17.7C101.363 17.9 101.093 18.18 100.893 18.54C100.703 18.89 100.608 19.305 100.608 19.785V20.085C100.608 20.565 100.718 20.99 100.938 21.36C101.158 21.73 101.468 22.015 101.868 22.215C102.268 22.415 102.728 22.515 103.248 22.515C103.698 22.515 104.103 22.445 104.463 22.305C104.823 22.165 105.143 21.945 105.423 21.645L106.428 22.8C106.068 23.22 105.613 23.545 105.063 23.775C104.523 23.995 103.903 24.105 103.203 24.105ZM113.315 15.9C113.955 15.9 114.525 16.025 115.025 16.275C115.535 16.525 115.935 16.91 116.225 17.43C116.515 17.94 116.66 18.6 116.66 19.41V24H114.785V19.65C114.785 18.94 114.615 18.41 114.275 18.06C113.945 17.71 113.48 17.535 112.88 17.535C112.44 17.535 112.05 17.625 111.71 17.805C111.37 17.985 111.105 18.255 110.915 18.615C110.735 18.965 110.645 19.41 110.645 19.95V24H108.77V15.99H110.555V18.15L110.24 17.49C110.52 16.98 110.925 16.59 111.455 16.32C111.995 16.04 112.615 15.9 113.315 15.9ZM122.053 24.105C121.173 24.105 120.493 23.88 120.013 23.43C119.533 22.97 119.293 22.295 119.293 21.405V14.22H121.168V21.36C121.168 21.74 121.263 22.035 121.453 22.245C121.653 22.455 121.928 22.56 122.278 22.56C122.698 22.56 123.048 22.45 123.328 22.23L123.853 23.565C123.633 23.745 123.363 23.88 123.043 23.97C122.723 24.06 122.393 24.105 122.053 24.105ZM117.973 17.55V16.05H123.313V17.55H117.973ZM128.897 24.105C128.007 24.105 127.227 23.93 126.557 23.58C125.897 23.22 125.382 22.73 125.012 22.11C124.652 21.49 124.472 20.785 124.472 19.995C124.472 19.195 124.647 18.49 124.997 17.88C125.357 17.26 125.847 16.775 126.467 16.425C127.097 16.075 127.812 15.9 128.612 15.9C129.392 15.9 130.087 16.07 130.697 16.41C131.307 16.75 131.787 17.23 132.137 17.85C132.487 18.47 132.662 19.2 132.662 20.04C132.662 20.12 132.657 20.21 132.647 20.31C132.647 20.41 132.642 20.505 132.632 20.595H125.957V19.35H131.642L130.907 19.74C130.917 19.28 130.822 18.875 130.622 18.525C130.422 18.175 130.147 17.9 129.797 17.7C129.457 17.5 129.062 17.4 128.612 17.4C128.152 17.4 127.747 17.5 127.397 17.7C127.057 17.9 126.787 18.18 126.587 18.54C126.397 18.89 126.302 19.305 126.302 19.785V20.085C126.302 20.565 126.412 20.99 126.632 21.36C126.852 21.73 127.162 22.015 127.562 22.215C127.962 22.415 128.422 22.515 128.942 22.515C129.392 22.515 129.797 22.445 130.157 22.305C130.517 22.165 130.837 21.945 131.117 21.645L132.122 22.8C131.762 23.22 131.307 23.545 130.757 23.775C130.217 23.995 129.597 24.105 128.897 24.105ZM134.463 24V15.99H136.248V18.195L136.038 17.55C136.278 17.01 136.653 16.6 137.163 16.32C137.683 16.04 138.328 15.9 139.098 15.9V17.685C139.018 17.665 138.943 17.655 138.873 17.655C138.803 17.645 138.733 17.64 138.663 17.64C137.953 17.64 137.388 17.85 136.968 18.27C136.548 18.68 136.338 19.295 136.338 20.115V24H134.463ZM140.688 24V15.99H142.563V24H140.688ZM141.633 14.67C141.283 14.67 140.993 14.56 140.763 14.34C140.543 14.12 140.433 13.855 140.433 13.545C140.433 13.225 140.543 12.96 140.763 12.75C140.993 12.53 141.283 12.42 141.633 12.42C141.983 12.42 142.268 12.525 142.488 12.735C142.718 12.935 142.833 13.19 142.833 13.5C142.833 13.83 142.723 14.11 142.503 14.34C142.283 14.56 141.993 14.67 141.633 14.67ZM149.569 15.9C150.209 15.9 150.779 16.025 151.279 16.275C151.789 16.525 152.189 16.91 152.479 17.43C152.769 17.94 152.914 18.6 152.914 19.41V24H151.039V19.65C151.039 18.94 150.869 18.41 150.529 18.06C150.199 17.71 149.734 17.535 149.134 17.535C148.694 17.535 148.304 17.625 147.964 17.805C147.624 17.985 147.359 18.255 147.169 18.615C146.989 18.965 146.899 19.41 146.899 19.95V24H145.024V15.99H146.809V18.15L146.494 17.49C146.774 16.98 147.179 16.59 147.709 16.32C148.249 16.04 148.869 15.9 149.569 15.9ZM158.938 27.015C158.198 27.015 157.473 26.915 156.763 26.715C156.063 26.525 155.488 26.245 155.038 25.875L155.878 24.465C156.228 24.755 156.668 24.985 157.198 25.155C157.738 25.335 158.283 25.425 158.833 25.425C159.713 25.425 160.358 25.22 160.768 24.81C161.178 24.41 161.383 23.805 161.383 22.995V21.57L161.533 19.755L161.473 17.94V15.99H163.258V22.785C163.258 24.235 162.888 25.3 162.148 25.98C161.408 26.67 160.338 27.015 158.938 27.015ZM158.698 23.64C157.938 23.64 157.248 23.48 156.628 23.16C156.018 22.83 155.533 22.375 155.173 21.795C154.823 21.215 154.648 20.535 154.648 19.755C154.648 18.985 154.823 18.31 155.173 17.73C155.533 17.15 156.018 16.7 156.628 16.38C157.248 16.06 157.938 15.9 158.698 15.9C159.378 15.9 159.988 16.035 160.528 16.305C161.068 16.575 161.498 16.995 161.818 17.565C162.148 18.135 162.313 18.865 162.313 19.755C162.313 20.645 162.148 21.38 161.818 21.96C161.498 22.53 161.068 22.955 160.528 23.235C159.988 23.505 159.378 23.64 158.698 23.64ZM158.983 22.05C159.453 22.05 159.873 21.955 160.243 21.765C160.613 21.565 160.898 21.295 161.098 20.955C161.308 20.605 161.413 20.205 161.413 19.755C161.413 19.305 161.308 18.91 161.098 18.57C160.898 18.22 160.613 17.955 160.243 17.775C159.873 17.585 159.453 17.49 158.983 17.49C158.513 17.49 158.088 17.585 157.708 17.775C157.338 17.955 157.048 18.22 156.838 18.57C156.638 18.91 156.538 19.305 156.538 19.755C156.538 20.205 156.638 20.605 156.838 20.955C157.048 21.295 157.338 21.565 157.708 21.765C158.088 21.955 158.513 22.05 158.983 22.05ZM173.258 24.105C172.488 24.105 171.793 23.935 171.173 23.595C170.563 23.245 170.083 22.765 169.733 22.155C169.383 21.545 169.208 20.825 169.208 19.995C169.208 19.165 169.383 18.445 169.733 17.835C170.083 17.225 170.563 16.75 171.173 16.41C171.793 16.07 172.488 15.9 173.258 15.9C173.928 15.9 174.528 16.05 175.058 16.35C175.588 16.64 176.008 17.085 176.318 17.685C176.628 18.285 176.783 19.055 176.783 19.995C176.783 20.925 176.633 21.695 176.333 22.305C176.033 22.905 175.618 23.355 175.088 23.655C174.558 23.955 173.948 24.105 173.258 24.105ZM173.483 22.5C173.933 22.5 174.333 22.4 174.683 22.2C175.043 22 175.328 21.71 175.538 21.33C175.758 20.95 175.868 20.505 175.868 19.995C175.868 19.475 175.758 19.03 175.538 18.66C175.328 18.28 175.043 17.99 174.683 17.79C174.333 17.59 173.933 17.49 173.483 17.49C173.033 17.49 172.628 17.59 172.268 17.79C171.918 17.99 171.633 18.28 171.413 18.66C171.203 19.03 171.098 19.475 171.098 19.995C171.098 20.505 171.203 20.95 171.413 21.33C171.633 21.71 171.918 22 172.268 22.2C172.628 22.4 173.033 22.5 173.483 22.5ZM175.913 24V22.11L175.988 19.98L175.838 17.85V12.87H177.698V24H175.913ZM185.101 24V22.38L184.996 22.035V19.2C184.996 18.65 184.831 18.225 184.501 17.925C184.171 17.615 183.671 17.46 183.001 17.46C182.551 17.46 182.106 17.53 181.666 17.67C181.236 17.81 180.871 18.005 180.571 18.255L179.836 16.89C180.266 16.56 180.776 16.315 181.366 16.155C181.966 15.985 182.586 15.9 183.226 15.9C184.386 15.9 185.281 16.18 185.911 16.74C186.551 17.29 186.871 18.145 186.871 19.305V24H185.101ZM182.581 24.105C181.981 24.105 181.456 24.005 181.006 23.805C180.556 23.595 180.206 23.31 179.956 22.95C179.716 22.58 179.596 22.165 179.596 21.705C179.596 21.255 179.701 20.85 179.911 20.49C180.131 20.13 180.486 19.845 180.976 19.635C181.466 19.425 182.116 19.32 182.926 19.32H185.251V20.565H183.061C182.421 20.565 181.991 20.67 181.771 20.88C181.551 21.08 181.441 21.33 181.441 21.63C181.441 21.97 181.576 22.24 181.846 22.44C182.116 22.64 182.491 22.74 182.971 22.74C183.431 22.74 183.841 22.635 184.201 22.425C184.571 22.215 184.836 21.905 184.996 21.495L185.311 22.62C185.131 23.09 184.806 23.455 184.336 23.715C183.876 23.975 183.291 24.105 182.581 24.105ZM192.292 24.105C191.412 24.105 190.732 23.88 190.252 23.43C189.772 22.97 189.532 22.295 189.532 21.405V14.22H191.407V21.36C191.407 21.74 191.502 22.035 191.692 22.245C191.892 22.455 192.167 22.56 192.517 22.56C192.937 22.56 193.287 22.45 193.567 22.23L194.092 23.565C193.872 23.745 193.602 23.88 193.282 23.97C192.962 24.06 192.632 24.105 192.292 24.105ZM188.212 17.55V16.05H193.552V17.55H188.212ZM200.57 24V22.38L200.465 22.035V19.2C200.465 18.65 200.3 18.225 199.97 17.925C199.64 17.615 199.14 17.46 198.47 17.46C198.02 17.46 197.575 17.53 197.135 17.67C196.705 17.81 196.34 18.005 196.04 18.255L195.305 16.89C195.735 16.56 196.245 16.315 196.835 16.155C197.435 15.985 198.055 15.9 198.695 15.9C199.855 15.9 200.75 16.18 201.38 16.74C202.02 17.29 202.34 18.145 202.34 19.305V24H200.57ZM198.05 24.105C197.45 24.105 196.925 24.005 196.475 23.805C196.025 23.595 195.675 23.31 195.425 22.95C195.185 22.58 195.065 22.165 195.065 21.705C195.065 21.255 195.17 20.85 195.38 20.49C195.6 20.13 195.955 19.845 196.445 19.635C196.935 19.425 197.585 19.32 198.395 19.32H200.72V20.565H198.53C197.89 20.565 197.46 20.67 197.24 20.88C197.02 21.08 196.91 21.33 196.91 21.63C196.91 21.97 197.045 22.24 197.315 22.44C197.585 22.64 197.96 22.74 198.44 22.74C198.9 22.74 199.31 22.635 199.67 22.425C200.04 22.215 200.305 21.905 200.465 21.495L200.78 22.62C200.6 23.09 200.275 23.455 199.805 23.715C199.345 23.975 198.76 24.105 198.05 24.105Z" fill="white"/>
</svg>
