<svg width="230" height="40" viewBox="0 0 230 40" fill="none" xmlns="http://www.w3.org/2000/svg">
<rect x="0.5" y="0.5" width="229" height="39" rx="19.5" stroke="white"/>
<path d="M44.4389 24.15C43.6389 24.15 42.8939 24.02 42.2039 23.76C41.5239 23.49 40.9289 23.115 40.4189 22.635C39.9189 22.145 39.5289 21.57 39.2489 20.91C38.9689 20.25 38.8289 19.53 38.8289 18.75C38.8289 17.97 38.9689 17.25 39.2489 16.59C39.5289 15.93 39.9239 15.36 40.4339 14.88C40.9439 14.39 41.5389 14.015 42.2189 13.755C42.8989 13.485 43.6439 13.35 44.4539 13.35C45.3139 13.35 46.0989 13.5 46.8089 13.8C47.5189 14.09 48.1189 14.525 48.6089 15.105L47.3489 16.29C46.9689 15.88 46.5439 15.575 46.0739 15.375C45.6039 15.165 45.0939 15.06 44.5439 15.06C43.9939 15.06 43.4889 15.15 43.0289 15.33C42.5789 15.51 42.1839 15.765 41.8439 16.095C41.5139 16.425 41.2539 16.815 41.0639 17.265C40.8839 17.715 40.7939 18.21 40.7939 18.75C40.7939 19.29 40.8839 19.785 41.0639 20.235C41.2539 20.685 41.5139 21.075 41.8439 21.405C42.1839 21.735 42.5789 21.99 43.0289 22.17C43.4889 22.35 43.9939 22.44 44.5439 22.44C45.0939 22.44 45.6039 22.34 46.0739 22.14C46.5439 21.93 46.9689 21.615 47.3489 21.195L48.6089 22.395C48.1189 22.965 47.5189 23.4 46.8089 23.7C46.0989 24 45.3089 24.15 44.4389 24.15ZM50.2974 24V15.99H52.0824V18.195L51.8724 17.55C52.1124 17.01 52.4874 16.6 52.9974 16.32C53.5174 16.04 54.1624 15.9 54.9324 15.9V17.685C54.8524 17.665 54.7774 17.655 54.7074 17.655C54.6374 17.645 54.5674 17.64 54.4974 17.64C53.7874 17.64 53.2224 17.85 52.8024 18.27C52.3824 18.68 52.1724 19.295 52.1724 20.115V24H50.2974ZM60.2147 24.105C59.3247 24.105 58.5447 23.93 57.8747 23.58C57.2147 23.22 56.6997 22.73 56.3297 22.11C55.9697 21.49 55.7897 20.785 55.7897 19.995C55.7897 19.195 55.9647 18.49 56.3147 17.88C56.6747 17.26 57.1647 16.775 57.7847 16.425C58.4147 16.075 59.1297 15.9 59.9297 15.9C60.7097 15.9 61.4047 16.07 62.0147 16.41C62.6247 16.75 63.1047 17.23 63.4547 17.85C63.8047 18.47 63.9797 19.2 63.9797 20.04C63.9797 20.12 63.9747 20.21 63.9647 20.31C63.9647 20.41 63.9597 20.505 63.9497 20.595H57.2747V19.35H62.9597L62.2247 19.74C62.2347 19.28 62.1397 18.875 61.9397 18.525C61.7397 18.175 61.4647 17.9 61.1147 17.7C60.7747 17.5 60.3797 17.4 59.9297 17.4C59.4697 17.4 59.0647 17.5 58.7147 17.7C58.3747 17.9 58.1047 18.18 57.9047 18.54C57.7147 18.89 57.6197 19.305 57.6197 19.785V20.085C57.6197 20.565 57.7297 20.99 57.9497 21.36C58.1697 21.73 58.4797 22.015 58.8797 22.215C59.2797 22.415 59.7397 22.515 60.2597 22.515C60.7097 22.515 61.1147 22.445 61.4747 22.305C61.8347 22.165 62.1547 21.945 62.4347 21.645L63.4397 22.8C63.0797 23.22 62.6247 23.545 62.0747 23.775C61.5347 23.995 60.9147 24.105 60.2147 24.105ZM70.4961 24V22.38L70.3911 22.035V19.2C70.3911 18.65 70.2261 18.225 69.8961 17.925C69.5661 17.615 69.0661 17.46 68.3961 17.46C67.9461 17.46 67.5011 17.53 67.0611 17.67C66.6311 17.81 66.2661 18.005 65.9661 18.255L65.2311 16.89C65.6611 16.56 66.1711 16.315 66.7611 16.155C67.3611 15.985 67.9811 15.9 68.6211 15.9C69.7811 15.9 70.6761 16.18 71.3061 16.74C71.9461 17.29 72.2661 18.145 72.2661 19.305V24H70.4961ZM67.9761 24.105C67.3761 24.105 66.8511 24.005 66.4011 23.805C65.9511 23.595 65.6011 23.31 65.3511 22.95C65.1111 22.58 64.9911 22.165 64.9911 21.705C64.9911 21.255 65.0961 20.85 65.3061 20.49C65.5261 20.13 65.8811 19.845 66.3711 19.635C66.8611 19.425 67.5111 19.32 68.3211 19.32H70.6461V20.565H68.4561C67.8161 20.565 67.3861 20.67 67.1661 20.88C66.9461 21.08 66.8361 21.33 66.8361 21.63C66.8361 21.97 66.9711 22.24 67.2411 22.44C67.5111 22.64 67.8861 22.74 68.3661 22.74C68.8261 22.74 69.2361 22.635 69.5961 22.425C69.9661 22.215 70.2311 21.905 70.3911 21.495L70.7061 22.62C70.5261 23.09 70.2011 23.455 69.7311 23.715C69.2711 23.975 68.6861 24.105 67.9761 24.105ZM77.6874 24.105C76.8074 24.105 76.1274 23.88 75.6474 23.43C75.1674 22.97 74.9274 22.295 74.9274 21.405V14.22H76.8024V21.36C76.8024 21.74 76.8974 22.035 77.0874 22.245C77.2874 22.455 77.5624 22.56 77.9124 22.56C78.3324 22.56 78.6824 22.45 78.9624 22.23L79.4874 23.565C79.2674 23.745 78.9974 23.88 78.6774 23.97C78.3574 24.06 78.0274 24.105 77.6874 24.105ZM73.6074 17.55V16.05H78.9474V17.55H73.6074ZM84.5311 24.105C83.6411 24.105 82.8611 23.93 82.1911 23.58C81.5311 23.22 81.0161 22.73 80.6461 22.11C80.2861 21.49 80.1061 20.785 80.1061 19.995C80.1061 19.195 80.2811 18.49 80.6311 17.88C80.9911 17.26 81.4811 16.775 82.1011 16.425C82.7311 16.075 83.4461 15.9 84.2461 15.9C85.0261 15.9 85.7211 16.07 86.3311 16.41C86.9411 16.75 87.4211 17.23 87.7711 17.85C88.1211 18.47 88.2961 19.2 88.2961 20.04C88.2961 20.12 88.2911 20.21 88.2811 20.31C88.2811 20.41 88.2761 20.505 88.2661 20.595H81.5911V19.35H87.2761L86.5411 19.74C86.5511 19.28 86.4561 18.875 86.2561 18.525C86.0561 18.175 85.7811 17.9 85.4311 17.7C85.0911 17.5 84.6961 17.4 84.2461 17.4C83.7861 17.4 83.3811 17.5 83.0311 17.7C82.6911 17.9 82.4211 18.18 82.2211 18.54C82.0311 18.89 81.9361 19.305 81.9361 19.785V20.085C81.9361 20.565 82.0461 20.99 82.2661 21.36C82.4861 21.73 82.7961 22.015 83.1961 22.215C83.5961 22.415 84.0561 22.515 84.5761 22.515C85.0261 22.515 85.4311 22.445 85.7911 22.305C86.1511 22.165 86.4711 21.945 86.7511 21.645L87.7561 22.8C87.3961 23.22 86.9411 23.545 86.3911 23.775C85.8511 23.995 85.2311 24.105 84.5311 24.105ZM98.6827 24.105C98.0027 24.105 97.3977 23.955 96.8677 23.655C96.3377 23.355 95.9177 22.905 95.6077 22.305C95.3077 21.695 95.1577 20.925 95.1577 19.995C95.1577 19.055 95.3127 18.285 95.6227 17.685C95.9427 17.085 96.3677 16.64 96.8977 16.35C97.4377 16.05 98.0327 15.9 98.6827 15.9C99.4727 15.9 100.168 16.07 100.768 16.41C101.378 16.75 101.858 17.225 102.208 17.835C102.568 18.445 102.748 19.165 102.748 19.995C102.748 20.825 102.568 21.545 102.208 22.155C101.858 22.765 101.378 23.245 100.768 23.595C100.168 23.935 99.4727 24.105 98.6827 24.105ZM94.2427 24V12.87H96.1177V17.85L95.9677 19.98L96.0277 22.11V24H94.2427ZM98.4727 22.5C98.9227 22.5 99.3227 22.4 99.6727 22.2C100.033 22 100.318 21.71 100.528 21.33C100.738 20.95 100.843 20.505 100.843 19.995C100.843 19.475 100.738 19.03 100.528 18.66C100.318 18.28 100.033 17.99 99.6727 17.79C99.3227 17.59 98.9227 17.49 98.4727 17.49C98.0227 17.49 97.6177 17.59 97.2577 17.79C96.8977 17.99 96.6127 18.28 96.4027 18.66C96.1927 19.03 96.0877 19.475 96.0877 19.995C96.0877 20.505 96.1927 20.95 96.4027 21.33C96.6127 21.71 96.8977 22 97.2577 22.2C97.6177 22.4 98.0227 22.5 98.4727 22.5ZM104.966 27.015C104.576 27.015 104.186 26.95 103.796 26.82C103.406 26.69 103.081 26.51 102.821 26.28L103.571 24.9C103.761 25.07 103.976 25.205 104.216 25.305C104.456 25.405 104.701 25.455 104.951 25.455C105.291 25.455 105.566 25.37 105.776 25.2C105.986 25.03 106.181 24.745 106.361 24.345L106.826 23.295L106.976 23.07L110.006 15.99H111.806L108.056 24.645C107.806 25.245 107.526 25.72 107.216 26.07C106.916 26.42 106.576 26.665 106.196 26.805C105.826 26.945 105.416 27.015 104.966 27.015ZM106.616 24.285L103.001 15.99H104.951L107.891 22.905L106.616 24.285ZM120.799 24.105C119.959 24.105 119.209 23.93 118.549 23.58C117.899 23.22 117.389 22.73 117.019 22.11C116.649 21.49 116.464 20.785 116.464 19.995C116.464 19.195 116.649 18.49 117.019 17.88C117.389 17.26 117.899 16.775 118.549 16.425C119.209 16.075 119.959 15.9 120.799 15.9C121.579 15.9 122.264 16.06 122.854 16.38C123.454 16.69 123.909 17.15 124.219 17.76L122.779 18.6C122.539 18.22 122.244 17.94 121.894 17.76C121.554 17.58 121.184 17.49 120.784 17.49C120.324 17.49 119.909 17.59 119.539 17.79C119.169 17.99 118.879 18.28 118.669 18.66C118.459 19.03 118.354 19.475 118.354 19.995C118.354 20.515 118.459 20.965 118.669 21.345C118.879 21.715 119.169 22 119.539 22.2C119.909 22.4 120.324 22.5 120.784 22.5C121.184 22.5 121.554 22.41 121.894 22.23C122.244 22.05 122.539 21.77 122.779 21.39L124.219 22.23C123.909 22.83 123.454 23.295 122.854 23.625C122.264 23.945 121.579 24.105 120.799 24.105ZM130.774 24V22.38L130.669 22.035V19.2C130.669 18.65 130.504 18.225 130.174 17.925C129.844 17.615 129.344 17.46 128.674 17.46C128.224 17.46 127.779 17.53 127.339 17.67C126.909 17.81 126.544 18.005 126.244 18.255L125.509 16.89C125.939 16.56 126.449 16.315 127.039 16.155C127.639 15.985 128.259 15.9 128.899 15.9C130.059 15.9 130.954 16.18 131.584 16.74C132.224 17.29 132.544 18.145 132.544 19.305V24H130.774ZM128.254 24.105C127.654 24.105 127.129 24.005 126.679 23.805C126.229 23.595 125.879 23.31 125.629 22.95C125.389 22.58 125.269 22.165 125.269 21.705C125.269 21.255 125.374 20.85 125.584 20.49C125.804 20.13 126.159 19.845 126.649 19.635C127.139 19.425 127.789 19.32 128.599 19.32H130.924V20.565H128.734C128.094 20.565 127.664 20.67 127.444 20.88C127.224 21.08 127.114 21.33 127.114 21.63C127.114 21.97 127.249 22.24 127.519 22.44C127.789 22.64 128.164 22.74 128.644 22.74C129.104 22.74 129.514 22.635 129.874 22.425C130.244 22.215 130.509 21.905 130.669 21.495L130.984 22.62C130.804 23.09 130.479 23.455 130.009 23.715C129.549 23.975 128.964 24.105 128.254 24.105ZM139.391 24.105C138.741 24.105 138.146 23.955 137.606 23.655C137.076 23.355 136.651 22.905 136.331 22.305C136.021 21.695 135.866 20.925 135.866 19.995C135.866 19.055 136.016 18.285 136.316 17.685C136.626 17.085 137.046 16.64 137.576 16.35C138.106 16.05 138.711 15.9 139.391 15.9C140.181 15.9 140.876 16.07 141.476 16.41C142.086 16.75 142.566 17.225 142.916 17.835C143.276 18.445 143.456 19.165 143.456 19.995C143.456 20.825 143.276 21.55 142.916 22.17C142.566 22.78 142.086 23.255 141.476 23.595C140.876 23.935 140.181 24.105 139.391 24.105ZM134.951 26.91V15.99H136.736V17.88L136.676 20.01L136.826 22.14V26.91H134.951ZM139.181 22.5C139.631 22.5 140.031 22.4 140.381 22.2C140.741 22 141.026 21.71 141.236 21.33C141.446 20.95 141.551 20.505 141.551 19.995C141.551 19.475 141.446 19.03 141.236 18.66C141.026 18.28 140.741 17.99 140.381 17.79C140.031 17.59 139.631 17.49 139.181 17.49C138.731 17.49 138.326 17.59 137.966 17.79C137.606 17.99 137.321 18.28 137.111 18.66C136.901 19.03 136.796 19.475 136.796 19.995C136.796 20.505 136.901 20.95 137.111 21.33C137.321 21.71 137.606 22 137.966 22.2C138.326 22.4 138.731 22.5 139.181 22.5ZM148.249 24.105C147.369 24.105 146.689 23.88 146.209 23.43C145.729 22.97 145.489 22.295 145.489 21.405V14.22H147.364V21.36C147.364 21.74 147.459 22.035 147.649 22.245C147.849 22.455 148.124 22.56 148.474 22.56C148.894 22.56 149.244 22.45 149.524 22.23L150.049 23.565C149.829 23.745 149.559 23.88 149.239 23.97C148.919 24.06 148.589 24.105 148.249 24.105ZM144.169 17.55V16.05H149.509V17.55H144.169ZM154.981 24.105C154.301 24.105 153.701 23.98 153.181 23.73C152.661 23.47 152.256 23.08 151.966 22.56C151.676 22.03 151.531 21.365 151.531 20.565V15.99H153.406V20.31C153.406 21.03 153.566 21.57 153.886 21.93C154.216 22.28 154.681 22.455 155.281 22.455C155.721 22.455 156.101 22.365 156.421 22.185C156.751 22.005 157.006 21.735 157.186 21.375C157.376 21.015 157.471 20.57 157.471 20.04V15.99H159.346V24H157.561V21.84L157.876 22.5C157.606 23.02 157.211 23.42 156.691 23.7C156.171 23.97 155.601 24.105 154.981 24.105ZM161.801 24V15.99H163.586V18.195L163.376 17.55C163.616 17.01 163.991 16.6 164.501 16.32C165.021 16.04 165.666 15.9 166.436 15.9V17.685C166.356 17.665 166.281 17.655 166.211 17.655C166.141 17.645 166.071 17.64 166.001 17.64C165.291 17.64 164.726 17.85 164.306 18.27C163.886 18.68 163.676 19.295 163.676 20.115V24H161.801ZM168.027 24V15.99H169.902V24H168.027ZM168.972 14.67C168.622 14.67 168.332 14.56 168.102 14.34C167.882 14.12 167.772 13.855 167.772 13.545C167.772 13.225 167.882 12.96 168.102 12.75C168.332 12.53 168.622 12.42 168.972 12.42C169.322 12.42 169.607 12.525 169.827 12.735C170.057 12.935 170.172 13.19 170.172 13.5C170.172 13.83 170.062 14.11 169.842 14.34C169.622 14.56 169.332 14.67 168.972 14.67ZM176.908 15.9C177.548 15.9 178.118 16.025 178.618 16.275C179.128 16.525 179.528 16.91 179.818 17.43C180.108 17.94 180.253 18.6 180.253 19.41V24H178.378V19.65C178.378 18.94 178.208 18.41 177.868 18.06C177.538 17.71 177.073 17.535 176.473 17.535C176.033 17.535 175.643 17.625 175.303 17.805C174.963 17.985 174.698 18.255 174.508 18.615C174.328 18.965 174.238 19.41 174.238 19.95V24H172.363V15.99H174.148V18.15L173.833 17.49C174.113 16.98 174.518 16.59 175.048 16.32C175.588 16.04 176.208 15.9 176.908 15.9ZM186.276 27.015C185.536 27.015 184.811 26.915 184.101 26.715C183.401 26.525 182.826 26.245 182.376 25.875L183.216 24.465C183.566 24.755 184.006 24.985 184.536 25.155C185.076 25.335 185.621 25.425 186.171 25.425C187.051 25.425 187.696 25.22 188.106 24.81C188.516 24.41 188.721 23.805 188.721 22.995V21.57L188.871 19.755L188.811 17.94V15.99H190.596V22.785C190.596 24.235 190.226 25.3 189.486 25.98C188.746 26.67 187.676 27.015 186.276 27.015ZM186.036 23.64C185.276 23.64 184.586 23.48 183.966 23.16C183.356 22.83 182.871 22.375 182.511 21.795C182.161 21.215 181.986 20.535 181.986 19.755C181.986 18.985 182.161 18.31 182.511 17.73C182.871 17.15 183.356 16.7 183.966 16.38C184.586 16.06 185.276 15.9 186.036 15.9C186.716 15.9 187.326 16.035 187.866 16.305C188.406 16.575 188.836 16.995 189.156 17.565C189.486 18.135 189.651 18.865 189.651 19.755C189.651 20.645 189.486 21.38 189.156 21.96C188.836 22.53 188.406 22.955 187.866 23.235C187.326 23.505 186.716 23.64 186.036 23.64ZM186.321 22.05C186.791 22.05 187.211 21.955 187.581 21.765C187.951 21.565 188.236 21.295 188.436 20.955C188.646 20.605 188.751 20.205 188.751 19.755C188.751 19.305 188.646 18.91 188.436 18.57C188.236 18.22 187.951 17.955 187.581 17.775C187.211 17.585 186.791 17.49 186.321 17.49C185.851 17.49 185.426 17.585 185.046 17.775C184.676 17.955 184.386 18.22 184.176 18.57C183.976 18.91 183.876 19.305 183.876 19.755C183.876 20.205 183.976 20.605 184.176 20.955C184.386 21.295 184.676 21.565 185.046 21.765C185.426 21.955 185.851 22.05 186.321 22.05Z" fill="white"/>
</svg>
