<svg width="150" height="40" viewBox="0 0 150 40" fill="none" xmlns="http://www.w3.org/2000/svg">
<rect x="1" y="1" width="148" height="38" rx="19" fill="#6C6AEB" fill-opacity="0.5" stroke="#EA5820" stroke-width="2"/>
<path d="M50.3522 19.465H55.7672V20.755H50.3522V19.465ZM50.5022 25H49.0022V14.5H56.4122V15.805H50.5022V25ZM61.1047 25.09C60.2547 25.09 59.5047 24.915 58.8547 24.565C58.2147 24.215 57.7147 23.735 57.3547 23.125C57.0047 22.515 56.8297 21.815 56.8297 21.025C56.8297 20.235 56.9997 19.535 57.3397 18.925C57.6897 18.315 58.1647 17.84 58.7647 17.5C59.3747 17.15 60.0597 16.975 60.8197 16.975C61.5897 16.975 62.2697 17.145 62.8597 17.485C63.4497 17.825 63.9097 18.305 64.2397 18.925C64.5797 19.535 64.7497 20.25 64.7497 21.07C64.7497 21.13 64.7447 21.2 64.7347 21.28C64.7347 21.36 64.7297 21.435 64.7197 21.505H57.9547V20.47H63.9697L63.3847 20.83C63.3947 20.32 63.2897 19.865 63.0697 19.465C62.8497 19.065 62.5447 18.755 62.1547 18.535C61.7747 18.305 61.3297 18.19 60.8197 18.19C60.3197 18.19 59.8747 18.305 59.4847 18.535C59.0947 18.755 58.7897 19.07 58.5697 19.48C58.3497 19.88 58.2397 20.34 58.2397 20.86V21.1C58.2397 21.63 58.3597 22.105 58.5997 22.525C58.8497 22.935 59.1947 23.255 59.6347 23.485C60.0747 23.715 60.5797 23.83 61.1497 23.83C61.6197 23.83 62.0447 23.75 62.4247 23.59C62.8147 23.43 63.1547 23.19 63.4447 22.87L64.2397 23.8C63.8797 24.22 63.4297 24.54 62.8897 24.76C62.3597 24.98 61.7647 25.09 61.1047 25.09ZM76.1943 16.975C76.8343 16.975 77.3993 17.1 77.8893 17.35C78.3793 17.6 78.7593 17.98 79.0293 18.49C79.3093 19 79.4493 19.645 79.4493 20.425V25H78.0093V20.59C78.0093 19.82 77.8293 19.24 77.4693 18.85C77.1093 18.46 76.6043 18.265 75.9543 18.265C75.4743 18.265 75.0543 18.365 74.6943 18.565C74.3343 18.765 74.0543 19.06 73.8543 19.45C73.6643 19.84 73.5693 20.325 73.5693 20.905V25H72.1293V20.59C72.1293 19.82 71.9493 19.24 71.5893 18.85C71.2393 18.46 70.7343 18.265 70.0743 18.265C69.6043 18.265 69.1893 18.365 68.8293 18.565C68.4693 18.765 68.1893 19.06 67.9893 19.45C67.7893 19.84 67.6893 20.325 67.6893 20.905V25H66.2493V17.05H67.6293V19.165L67.4043 18.625C67.6543 18.105 68.0393 17.7 68.5593 17.41C69.0793 17.12 69.6843 16.975 70.3743 16.975C71.1343 16.975 71.7893 17.165 72.3393 17.545C72.8893 17.915 73.2493 18.48 73.4193 19.24L72.8343 19C73.0743 18.39 73.4943 17.9 74.0943 17.53C74.6943 17.16 75.3943 16.975 76.1943 16.975ZM86.5339 25V23.32L86.4589 23.005V20.14C86.4589 19.53 86.2789 19.06 85.9189 18.73C85.5689 18.39 85.0389 18.22 84.3289 18.22C83.8589 18.22 83.3989 18.3 82.9489 18.46C82.4989 18.61 82.1189 18.815 81.8089 19.075L81.2089 17.995C81.6189 17.665 82.1089 17.415 82.6789 17.245C83.2589 17.065 83.8639 16.975 84.4939 16.975C85.5839 16.975 86.4239 17.24 87.0139 17.77C87.6039 18.3 87.8989 19.11 87.8989 20.2V25H86.5339ZM83.9239 25.09C83.3339 25.09 82.8139 24.99 82.3639 24.79C81.9239 24.59 81.5839 24.315 81.3439 23.965C81.1039 23.605 80.9839 23.2 80.9839 22.75C80.9839 22.32 81.0839 21.93 81.2839 21.58C81.4939 21.23 81.8289 20.95 82.2889 20.74C82.7589 20.53 83.3889 20.425 84.1789 20.425H86.6989V21.46H84.2389C83.5189 21.46 83.0339 21.58 82.7839 21.82C82.5339 22.06 82.4089 22.35 82.4089 22.69C82.4089 23.08 82.5639 23.395 82.8739 23.635C83.1839 23.865 83.6139 23.98 84.1639 23.98C84.7039 23.98 85.1739 23.86 85.5739 23.62C85.9839 23.38 86.2789 23.03 86.4589 22.57L86.7439 23.56C86.5539 24.03 86.2189 24.405 85.7389 24.685C85.2589 24.955 84.6539 25.09 83.9239 25.09ZM90.0637 25V13.87H91.5037V25H90.0637ZM97.2932 25.09C96.4432 25.09 95.6932 24.915 95.0432 24.565C94.4032 24.215 93.9032 23.735 93.5432 23.125C93.1932 22.515 93.0182 21.815 93.0182 21.025C93.0182 20.235 93.1882 19.535 93.5282 18.925C93.8782 18.315 94.3532 17.84 94.9532 17.5C95.5632 17.15 96.2482 16.975 97.0082 16.975C97.7782 16.975 98.4582 17.145 99.0482 17.485C99.6382 17.825 100.098 18.305 100.428 18.925C100.768 19.535 100.938 20.25 100.938 21.07C100.938 21.13 100.933 21.2 100.923 21.28C100.923 21.36 100.918 21.435 100.908 21.505H94.1432V20.47H100.158L99.5732 20.83C99.5832 20.32 99.4782 19.865 99.2582 19.465C99.0382 19.065 98.7332 18.755 98.3432 18.535C97.9632 18.305 97.5182 18.19 97.0082 18.19C96.5082 18.19 96.0632 18.305 95.6732 18.535C95.2832 18.755 94.9782 19.07 94.7582 19.48C94.5382 19.88 94.4282 20.34 94.4282 20.86V21.1C94.4282 21.63 94.5482 22.105 94.7882 22.525C95.0382 22.935 95.3832 23.255 95.8232 23.485C96.2632 23.715 96.7682 23.83 97.3382 23.83C97.8082 23.83 98.2332 23.75 98.6132 23.59C99.0032 23.43 99.3432 23.19 99.6332 22.87L100.428 23.8C100.068 24.22 99.6182 24.54 99.0782 24.76C98.5482 24.98 97.9532 25.09 97.2932 25.09Z" fill="#EA5820"/>
</svg>
