<svg width="170" height="40" viewBox="0 0 170 40" fill="none" xmlns="http://www.w3.org/2000/svg">
<rect width="170" height="40" rx="20" fill="#6C6AEB"/>
<path d="M37.7584 24.15C36.9384 24.15 36.1834 24.02 35.4934 23.76C34.8134 23.49 34.2184 23.115 33.7084 22.635C33.1984 22.145 32.8034 21.57 32.5234 20.91C32.2434 20.25 32.1034 19.53 32.1034 18.75C32.1034 17.97 32.2434 17.25 32.5234 16.59C32.8034 15.93 33.1984 15.36 33.7084 14.88C34.2284 14.39 34.8334 14.015 35.5234 13.755C36.2134 13.485 36.9684 13.35 37.7884 13.35C38.6784 13.35 39.4784 13.495 40.1884 13.785C40.9084 14.075 41.5134 14.5 42.0034 15.06L40.7734 16.26C40.3634 15.85 39.9184 15.55 39.4384 15.36C38.9684 15.16 38.4484 15.06 37.8784 15.06C37.3284 15.06 36.8184 15.15 36.3484 15.33C35.8784 15.51 35.4734 15.765 35.1334 16.095C34.7934 16.425 34.5284 16.815 34.3384 17.265C34.1584 17.715 34.0684 18.21 34.0684 18.75C34.0684 19.28 34.1584 19.77 34.3384 20.22C34.5284 20.67 34.7934 21.065 35.1334 21.405C35.4734 21.735 35.8734 21.99 36.3334 22.17C36.7934 22.35 37.3034 22.44 37.8634 22.44C38.3834 22.44 38.8834 22.36 39.3634 22.2C39.8534 22.03 40.3184 21.75 40.7584 21.36L41.8684 22.815C41.3184 23.255 40.6784 23.59 39.9484 23.82C39.2284 24.04 38.4984 24.15 37.7584 24.15ZM40.0234 22.56V18.63H41.8684V22.815L40.0234 22.56ZM46.2403 17.865H51.4603V19.47H46.2403V17.865ZM46.3903 22.365H52.3153V24H44.4403V13.5H52.1053V15.135H46.3903V22.365ZM56.6191 24V15.15H53.1391V13.5H62.0491V15.15H58.5691V24H56.6191ZM70.913 24.15C70.093 24.15 69.308 24.035 68.558 23.805C67.808 23.565 67.213 23.26 66.773 22.89L67.448 21.375C67.868 21.705 68.388 21.98 69.008 22.2C69.628 22.42 70.263 22.53 70.913 22.53C71.463 22.53 71.908 22.47 72.248 22.35C72.588 22.23 72.838 22.07 72.998 21.87C73.158 21.66 73.238 21.425 73.238 21.165C73.238 20.845 73.123 20.59 72.893 20.4C72.663 20.2 72.363 20.045 71.993 19.935C71.633 19.815 71.228 19.705 70.778 19.605C70.338 19.505 69.893 19.39 69.443 19.26C69.003 19.12 68.598 18.945 68.228 18.735C67.868 18.515 67.573 18.225 67.343 17.865C67.113 17.505 66.998 17.045 66.998 16.485C66.998 15.915 67.148 15.395 67.448 14.925C67.758 14.445 68.223 14.065 68.843 13.785C69.473 13.495 70.268 13.35 71.228 13.35C71.858 13.35 72.483 13.43 73.103 13.59C73.723 13.75 74.263 13.98 74.723 14.28L74.108 15.795C73.638 15.515 73.153 15.31 72.653 15.18C72.153 15.04 71.673 14.97 71.213 14.97C70.673 14.97 70.233 15.035 69.893 15.165C69.563 15.295 69.318 15.465 69.158 15.675C69.008 15.885 68.933 16.125 68.933 16.395C68.933 16.715 69.043 16.975 69.263 17.175C69.493 17.365 69.788 17.515 70.148 17.625C70.518 17.735 70.928 17.845 71.378 17.955C71.828 18.055 72.273 18.17 72.713 18.3C73.163 18.43 73.568 18.6 73.928 18.81C74.298 19.02 74.593 19.305 74.813 19.665C75.043 20.025 75.158 20.48 75.158 21.03C75.158 21.59 75.003 22.11 74.693 22.59C74.393 23.06 73.928 23.44 73.298 23.73C72.668 24.01 71.873 24.15 70.913 24.15ZM79.0752 24V15.15H75.5952V13.5H84.5052V15.15H81.0252V24H79.0752ZM83.9562 24L88.6813 13.5H90.6013L95.3413 24H93.3013L89.2363 14.535H90.0163L85.9663 24H83.9562ZM86.1313 21.57L86.6563 20.04H92.3263L92.8512 21.57H86.1313ZM96.6766 24V13.5H100.997C101.927 13.5 102.722 13.65 103.382 13.95C104.052 14.25 104.567 14.68 104.927 15.24C105.287 15.8 105.467 16.465 105.467 17.235C105.467 18.005 105.287 18.67 104.927 19.23C104.567 19.78 104.052 20.205 103.382 20.505C102.722 20.795 101.927 20.94 100.997 20.94H97.7566L98.6266 20.055V24H96.6766ZM103.547 24L100.892 20.19H102.977L105.647 24H103.547ZM98.6266 20.265L97.7566 19.335H100.907C101.767 19.335 102.412 19.15 102.842 18.78C103.282 18.41 103.502 17.895 103.502 17.235C103.502 16.565 103.282 16.05 102.842 15.69C102.412 15.33 101.767 15.15 100.907 15.15H97.7566L98.6266 14.19V20.265ZM109.632 24V15.15H106.152V13.5H115.062V15.15H111.582V24H109.632ZM118.325 17.865H123.545V19.47H118.325V17.865ZM118.475 22.365H124.4V24H116.525V13.5H124.19V15.135H118.475V22.365ZM126.574 24V13.5H131.164C132.304 13.5 133.304 13.72 134.164 14.16C135.024 14.6 135.694 15.21 136.174 15.99C136.654 16.77 136.894 17.69 136.894 18.75C136.894 19.8 136.654 20.72 136.174 21.51C135.694 22.29 135.024 22.9 134.164 23.34C133.304 23.78 132.304 24 131.164 24H126.574ZM128.524 22.35H131.074C131.864 22.35 132.544 22.2 133.114 21.9C133.694 21.6 134.139 21.18 134.449 20.64C134.769 20.1 134.929 19.47 134.929 18.75C134.929 18.02 134.769 17.39 134.449 16.86C134.139 16.32 133.694 15.9 133.114 15.6C132.544 15.3 131.864 15.15 131.074 15.15H128.524V22.35Z" fill="white"/>
</svg>
