<svg width="230" height="40" viewBox="0 0 230 40" fill="none" xmlns="http://www.w3.org/2000/svg">
<rect x="0.5" y="0.5" width="229" height="39" rx="19.5" stroke="white"/>
<path d="M97.0894 24.15C96.2694 24.15 95.5144 24.02 94.8244 23.76C94.1444 23.49 93.5494 23.115 93.0394 22.635C92.5294 22.145 92.1344 21.57 91.8544 20.91C91.5744 20.25 91.4344 19.53 91.4344 18.75C91.4344 17.97 91.5744 17.25 91.8544 16.59C92.1344 15.93 92.5294 15.36 93.0394 14.88C93.5594 14.39 94.1644 14.015 94.8544 13.755C95.5444 13.485 96.2994 13.35 97.1194 13.35C98.0094 13.35 98.8094 13.495 99.5194 13.785C100.239 14.075 100.844 14.5 101.334 15.06L100.104 16.26C99.6944 15.85 99.2494 15.55 98.7694 15.36C98.2994 15.16 97.7794 15.06 97.2094 15.06C96.6594 15.06 96.1494 15.15 95.6794 15.33C95.2094 15.51 94.8044 15.765 94.4644 16.095C94.1244 16.425 93.8594 16.815 93.6694 17.265C93.4894 17.715 93.3994 18.21 93.3994 18.75C93.3994 19.28 93.4894 19.77 93.6694 20.22C93.8594 20.67 94.1244 21.065 94.4644 21.405C94.8044 21.735 95.2044 21.99 95.6644 22.17C96.1244 22.35 96.6344 22.44 97.1944 22.44C97.7144 22.44 98.2144 22.36 98.6944 22.2C99.1844 22.03 99.6494 21.75 100.089 21.36L101.199 22.815C100.649 23.255 100.009 23.59 99.2794 23.82C98.5594 24.04 97.8294 24.15 97.0894 24.15ZM99.3544 22.56V18.63H101.199V22.815L99.3544 22.56ZM107.191 24.105C106.371 24.105 105.641 23.93 105.001 23.58C104.361 23.22 103.856 22.73 103.486 22.11C103.116 21.49 102.931 20.785 102.931 19.995C102.931 19.195 103.116 18.49 103.486 17.88C103.856 17.26 104.361 16.775 105.001 16.425C105.641 16.075 106.371 15.9 107.191 15.9C108.021 15.9 108.756 16.075 109.396 16.425C110.046 16.775 110.551 17.255 110.911 17.865C111.281 18.475 111.466 19.185 111.466 19.995C111.466 20.785 111.281 21.49 110.911 22.11C110.551 22.73 110.046 23.22 109.396 23.58C108.756 23.93 108.021 24.105 107.191 24.105ZM107.191 22.5C107.651 22.5 108.061 22.4 108.421 22.2C108.781 22 109.061 21.71 109.261 21.33C109.471 20.95 109.576 20.505 109.576 19.995C109.576 19.475 109.471 19.03 109.261 18.66C109.061 18.28 108.781 17.99 108.421 17.79C108.061 17.59 107.656 17.49 107.206 17.49C106.746 17.49 106.336 17.59 105.976 17.79C105.626 17.99 105.346 18.28 105.136 18.66C104.926 19.03 104.821 19.475 104.821 19.995C104.821 20.505 104.926 20.95 105.136 21.33C105.346 21.71 105.626 22 105.976 22.2C106.336 22.4 106.741 22.5 107.191 22.5ZM116.274 24.105C115.394 24.105 114.714 23.88 114.234 23.43C113.754 22.97 113.514 22.295 113.514 21.405V14.22H115.389V21.36C115.389 21.74 115.484 22.035 115.674 22.245C115.874 22.455 116.149 22.56 116.499 22.56C116.919 22.56 117.269 22.45 117.549 22.23L118.074 23.565C117.854 23.745 117.584 23.88 117.264 23.97C116.944 24.06 116.614 24.105 116.274 24.105ZM112.194 17.55V16.05H117.534V17.55H112.194ZM123.762 24V15.99H125.637V24H123.762ZM124.707 14.67C124.357 14.67 124.067 14.56 123.837 14.34C123.617 14.12 123.507 13.855 123.507 13.545C123.507 13.225 123.617 12.96 123.837 12.75C124.067 12.53 124.357 12.42 124.707 12.42C125.057 12.42 125.342 12.525 125.562 12.735C125.792 12.935 125.907 13.19 125.907 13.5C125.907 13.83 125.797 14.11 125.577 14.34C125.357 14.56 125.067 14.67 124.707 14.67ZM131.113 24.105C130.233 24.105 129.553 23.88 129.073 23.43C128.593 22.97 128.353 22.295 128.353 21.405V14.22H130.228V21.36C130.228 21.74 130.323 22.035 130.513 22.245C130.713 22.455 130.988 22.56 131.338 22.56C131.758 22.56 132.108 22.45 132.388 22.23L132.913 23.565C132.693 23.745 132.423 23.88 132.103 23.97C131.783 24.06 131.453 24.105 131.113 24.105ZM127.033 17.55V16.05H132.373V17.55H127.033Z" fill="white"/>
</svg>
