<svg width="230" height="41" viewBox="0 0 230 41" fill="none" xmlns="http://www.w3.org/2000/svg">
<rect x="0.5" y="0.880615" width="229" height="39" rx="19.5" stroke="white"/>
<path d="M64.0547 24.5306C63.2347 24.5306 62.4797 24.4006 61.7897 24.1406C61.1097 23.8706 60.5147 23.4956 60.0047 23.0156C59.4947 22.5256 59.0997 21.9506 58.8197 21.2906C58.5397 20.6306 58.3997 19.9106 58.3997 19.1306C58.3997 18.3506 58.5397 17.6306 58.8197 16.9706C59.0997 16.3106 59.4947 15.7406 60.0047 15.2606C60.5247 14.7706 61.1297 14.3956 61.8197 14.1356C62.5097 13.8656 63.2647 13.7306 64.0847 13.7306C64.9747 13.7306 65.7747 13.8756 66.4847 14.1656C67.2047 14.4556 67.8097 14.8806 68.2997 15.4406L67.0697 16.6406C66.6597 16.2306 66.2147 15.9306 65.7347 15.7406C65.2647 15.5406 64.7447 15.4406 64.1747 15.4406C63.6247 15.4406 63.1147 15.5306 62.6447 15.7106C62.1747 15.8906 61.7697 16.1456 61.4297 16.4756C61.0897 16.8056 60.8247 17.1956 60.6347 17.6456C60.4547 18.0956 60.3647 18.5906 60.3647 19.1306C60.3647 19.6606 60.4547 20.1506 60.6347 20.6006C60.8247 21.0506 61.0897 21.4456 61.4297 21.7856C61.7697 22.1156 62.1697 22.3706 62.6297 22.5506C63.0897 22.7306 63.5997 22.8206 64.1597 22.8206C64.6797 22.8206 65.1797 22.7406 65.6597 22.5806C66.1497 22.4106 66.6147 22.1306 67.0547 21.7406L68.1647 23.1956C67.6147 23.6356 66.9747 23.9706 66.2447 24.2006C65.5247 24.4206 64.7947 24.5306 64.0547 24.5306ZM66.3197 22.9406V19.0106H68.1647V23.1956L66.3197 22.9406ZM74.1567 24.4856C73.3367 24.4856 72.6067 24.3106 71.9667 23.9606C71.3267 23.6006 70.8217 23.1106 70.4517 22.4906C70.0817 21.8706 69.8967 21.1656 69.8967 20.3756C69.8967 19.5756 70.0817 18.8706 70.4517 18.2606C70.8217 17.6406 71.3267 17.1556 71.9667 16.8056C72.6067 16.4556 73.3367 16.2806 74.1567 16.2806C74.9867 16.2806 75.7217 16.4556 76.3617 16.8056C77.0117 17.1556 77.5167 17.6356 77.8767 18.2456C78.2467 18.8556 78.4317 19.5656 78.4317 20.3756C78.4317 21.1656 78.2467 21.8706 77.8767 22.4906C77.5167 23.1106 77.0117 23.6006 76.3617 23.9606C75.7217 24.3106 74.9867 24.4856 74.1567 24.4856ZM74.1567 22.8806C74.6167 22.8806 75.0267 22.7806 75.3867 22.5806C75.7467 22.3806 76.0267 22.0906 76.2267 21.7106C76.4367 21.3306 76.5417 20.8856 76.5417 20.3756C76.5417 19.8556 76.4367 19.4106 76.2267 19.0406C76.0267 18.6606 75.7467 18.3706 75.3867 18.1706C75.0267 17.9706 74.6217 17.8706 74.1717 17.8706C73.7117 17.8706 73.3017 17.9706 72.9417 18.1706C72.5917 18.3706 72.3117 18.6606 72.1017 19.0406C71.8917 19.4106 71.7867 19.8556 71.7867 20.3756C71.7867 20.8856 71.8917 21.3306 72.1017 21.7106C72.3117 22.0906 72.5917 22.3806 72.9417 22.5806C73.3017 22.7806 73.7067 22.8806 74.1567 22.8806ZM87.3851 24.4856C86.5051 24.4856 85.8251 24.2606 85.3451 23.8106C84.8651 23.3506 84.6251 22.6756 84.6251 21.7856V14.6006H86.5001V21.7406C86.5001 22.1206 86.5951 22.4156 86.7851 22.6256C86.9851 22.8356 87.2601 22.9406 87.6101 22.9406C88.0301 22.9406 88.3801 22.8306 88.6601 22.6106L89.1851 23.9456C88.9651 24.1256 88.6951 24.2606 88.3751 24.3506C88.0551 24.4406 87.7251 24.4856 87.3851 24.4856ZM83.3051 17.9306V16.4306H88.6451V17.9306H83.3051ZM94.0639 24.4856C93.2439 24.4856 92.5139 24.3106 91.8739 23.9606C91.2339 23.6006 90.7289 23.1106 90.3589 22.4906C89.9889 21.8706 89.8039 21.1656 89.8039 20.3756C89.8039 19.5756 89.9889 18.8706 90.3589 18.2606C90.7289 17.6406 91.2339 17.1556 91.8739 16.8056C92.5139 16.4556 93.2439 16.2806 94.0639 16.2806C94.8939 16.2806 95.6289 16.4556 96.2689 16.8056C96.9189 17.1556 97.4239 17.6356 97.7839 18.2456C98.1539 18.8556 98.3389 19.5656 98.3389 20.3756C98.3389 21.1656 98.1539 21.8706 97.7839 22.4906C97.4239 23.1106 96.9189 23.6006 96.2689 23.9606C95.6289 24.3106 94.8939 24.4856 94.0639 24.4856ZM94.0639 22.8806C94.5239 22.8806 94.9339 22.7806 95.2939 22.5806C95.6539 22.3806 95.9339 22.0906 96.1339 21.7106C96.3439 21.3306 96.4489 20.8856 96.4489 20.3756C96.4489 19.8556 96.3439 19.4106 96.1339 19.0406C95.9339 18.6606 95.6539 18.3706 95.2939 18.1706C94.9339 17.9706 94.5289 17.8706 94.0789 17.8706C93.6189 17.8706 93.2089 17.9706 92.8489 18.1706C92.4989 18.3706 92.2189 18.6606 92.0089 19.0406C91.7989 19.4106 91.6939 19.8556 91.6939 20.3756C91.6939 20.8856 91.7989 21.3306 92.0089 21.7106C92.2189 22.0906 92.4989 22.3806 92.8489 22.5806C93.2089 22.7806 93.6139 22.8806 94.0639 22.8806ZM102.972 24.3806L107.697 13.8806H109.617L114.357 24.3806H112.317L108.252 14.9156H109.032L104.982 24.3806H102.972ZM105.147 21.9506L105.672 20.4206H111.342L111.867 21.9506H105.147ZM115.693 24.3806V13.8806H120.013C120.943 13.8806 121.738 14.0306 122.398 14.3306C123.068 14.6306 123.583 15.0606 123.943 15.6206C124.303 16.1806 124.483 16.8456 124.483 17.6156C124.483 18.3856 124.303 19.0506 123.943 19.6106C123.583 20.1606 123.068 20.5856 122.398 20.8856C121.738 21.1756 120.943 21.3206 120.013 21.3206H116.773L117.643 20.4356V24.3806H115.693ZM122.563 24.3806L119.908 20.5706H121.993L124.663 24.3806H122.563ZM117.643 20.6456L116.773 19.7156H119.923C120.783 19.7156 121.428 19.5306 121.858 19.1606C122.298 18.7906 122.518 18.2756 122.518 17.6156C122.518 16.9456 122.298 16.4306 121.858 16.0706C121.428 15.7106 120.783 15.5306 119.923 15.5306H116.773L117.643 14.5706V20.6456ZM133.285 24.3806L129.805 13.8806H131.83L134.935 23.3756H133.93L137.155 13.8806H138.955L142.09 23.3756H141.115L144.295 13.8806H146.155L142.675 24.3806H140.605L137.74 15.8156H138.28L135.37 24.3806H133.285ZM150.563 24.4856C149.743 24.4856 149.013 24.3106 148.373 23.9606C147.733 23.6006 147.228 23.1106 146.858 22.4906C146.488 21.8706 146.303 21.1656 146.303 20.3756C146.303 19.5756 146.488 18.8706 146.858 18.2606C147.228 17.6406 147.733 17.1556 148.373 16.8056C149.013 16.4556 149.743 16.2806 150.563 16.2806C151.393 16.2806 152.128 16.4556 152.768 16.8056C153.418 17.1556 153.923 17.6356 154.283 18.2456C154.653 18.8556 154.838 19.5656 154.838 20.3756C154.838 21.1656 154.653 21.8706 154.283 22.4906C153.923 23.1106 153.418 23.6006 152.768 23.9606C152.128 24.3106 151.393 24.4856 150.563 24.4856ZM150.563 22.8806C151.023 22.8806 151.433 22.7806 151.793 22.5806C152.153 22.3806 152.433 22.0906 152.633 21.7106C152.843 21.3306 152.948 20.8856 152.948 20.3756C152.948 19.8556 152.843 19.4106 152.633 19.0406C152.433 18.6606 152.153 18.3706 151.793 18.1706C151.433 17.9706 151.028 17.8706 150.578 17.8706C150.118 17.8706 149.708 17.9706 149.348 18.1706C148.998 18.3706 148.718 18.6606 148.508 19.0406C148.298 19.4106 148.193 19.8556 148.193 20.3756C148.193 20.8856 148.298 21.3306 148.508 21.7106C148.718 22.0906 148.998 22.3806 149.348 22.5806C149.708 22.7806 150.113 22.8806 150.563 22.8806ZM156.631 24.3806V16.3706H158.416V18.5756L158.206 17.9306C158.446 17.3906 158.821 16.9806 159.331 16.7006C159.851 16.4206 160.496 16.2806 161.266 16.2806V18.0656C161.186 18.0456 161.111 18.0356 161.041 18.0356C160.971 18.0256 160.901 18.0206 160.831 18.0206C160.121 18.0206 159.556 18.2306 159.136 18.6506C158.716 19.0606 158.506 19.6756 158.506 20.4956V24.3806H156.631ZM162.856 24.3806V13.2506H164.731V24.3806H162.856ZM170.582 24.4856C169.812 24.4856 169.117 24.3156 168.497 23.9756C167.887 23.6256 167.407 23.1456 167.057 22.5356C166.707 21.9256 166.532 21.2056 166.532 20.3756C166.532 19.5456 166.707 18.8256 167.057 18.2156C167.407 17.6056 167.887 17.1306 168.497 16.7906C169.117 16.4506 169.812 16.2806 170.582 16.2806C171.252 16.2806 171.852 16.4306 172.382 16.7306C172.912 17.0206 173.332 17.4656 173.642 18.0656C173.952 18.6656 174.107 19.4356 174.107 20.3756C174.107 21.3056 173.957 22.0756 173.657 22.6856C173.357 23.2856 172.942 23.7356 172.412 24.0356C171.882 24.3356 171.272 24.4856 170.582 24.4856ZM170.807 22.8806C171.257 22.8806 171.657 22.7806 172.007 22.5806C172.367 22.3806 172.652 22.0906 172.862 21.7106C173.082 21.3306 173.192 20.8856 173.192 20.3756C173.192 19.8556 173.082 19.4106 172.862 19.0406C172.652 18.6606 172.367 18.3706 172.007 18.1706C171.657 17.9706 171.257 17.8706 170.807 17.8706C170.357 17.8706 169.952 17.9706 169.592 18.1706C169.242 18.3706 168.957 18.6606 168.737 19.0406C168.527 19.4106 168.422 19.8556 168.422 20.3756C168.422 20.8856 168.527 21.3306 168.737 21.7106C168.957 22.0906 169.242 22.3806 169.592 22.5806C169.952 22.7806 170.357 22.8806 170.807 22.8806ZM173.237 24.3806V22.4906L173.312 20.3606L173.162 18.2306V13.2506H175.022V24.3806H173.237Z" fill="white"/>
</svg>
