<svg width="150" height="40" viewBox="0 0 150 40" fill="none" xmlns="http://www.w3.org/2000/svg">
<rect x="1" y="1" width="148" height="38" rx="19" fill="#6C6AEB" fill-opacity="0.5" stroke="#EA5820" stroke-width="2"/>
<path d="M58.4925 26V15.5H59.7225L64.4325 23.435H63.7725L68.4225 15.5H69.6525L69.6675 26H68.2275L68.2125 17.765H68.5575L64.4175 24.725H63.7275L59.5575 17.765H59.9325V26H58.4925ZM77.0437 26V24.32L76.9687 24.005V21.14C76.9687 20.53 76.7887 20.06 76.4287 19.73C76.0787 19.39 75.5487 19.22 74.8387 19.22C74.3687 19.22 73.9087 19.3 73.4587 19.46C73.0087 19.61 72.6287 19.815 72.3187 20.075L71.7187 18.995C72.1287 18.665 72.6187 18.415 73.1887 18.245C73.7687 18.065 74.3737 17.975 75.0037 17.975C76.0937 17.975 76.9337 18.24 77.5237 18.77C78.1137 19.3 78.4087 20.11 78.4087 21.2V26H77.0437ZM74.4337 26.09C73.8437 26.09 73.3237 25.99 72.8737 25.79C72.4337 25.59 72.0937 25.315 71.8537 24.965C71.6137 24.605 71.4937 24.2 71.4937 23.75C71.4937 23.32 71.5937 22.93 71.7937 22.58C72.0037 22.23 72.3387 21.95 72.7987 21.74C73.2687 21.53 73.8987 21.425 74.6887 21.425H77.2087V22.46H74.7487C74.0287 22.46 73.5437 22.58 73.2937 22.82C73.0437 23.06 72.9187 23.35 72.9187 23.69C72.9187 24.08 73.0737 24.395 73.3837 24.635C73.6937 24.865 74.1237 24.98 74.6737 24.98C75.2137 24.98 75.6837 24.86 76.0837 24.62C76.4937 24.38 76.7887 24.03 76.9687 23.57L77.2537 24.56C77.0637 25.03 76.7287 25.405 76.2487 25.685C75.7687 25.955 75.1637 26.09 74.4337 26.09ZM80.5735 26V14.87H82.0135V26H80.5735ZM87.8029 26.09C86.9529 26.09 86.2029 25.915 85.5529 25.565C84.9129 25.215 84.4129 24.735 84.0529 24.125C83.7029 23.515 83.5279 22.815 83.5279 22.025C83.5279 21.235 83.6979 20.535 84.0379 19.925C84.3879 19.315 84.8629 18.84 85.4629 18.5C86.0729 18.15 86.7579 17.975 87.5179 17.975C88.2879 17.975 88.9679 18.145 89.5579 18.485C90.1479 18.825 90.6079 19.305 90.9379 19.925C91.2779 20.535 91.448 21.25 91.448 22.07C91.448 22.13 91.4429 22.2 91.4329 22.28C91.4329 22.36 91.4279 22.435 91.4179 22.505H84.6529V21.47H90.6679L90.0829 21.83C90.0929 21.32 89.9879 20.865 89.7679 20.465C89.5479 20.065 89.2429 19.755 88.8529 19.535C88.4729 19.305 88.0279 19.19 87.5179 19.19C87.0179 19.19 86.5729 19.305 86.1829 19.535C85.7929 19.755 85.4879 20.07 85.2679 20.48C85.0479 20.88 84.9379 21.34 84.9379 21.86V22.1C84.9379 22.63 85.0579 23.105 85.2979 23.525C85.5479 23.935 85.8929 24.255 86.3329 24.485C86.7729 24.715 87.2779 24.83 87.8479 24.83C88.3179 24.83 88.7429 24.75 89.1229 24.59C89.5129 24.43 89.8529 24.19 90.1429 23.87L90.9379 24.8C90.5779 25.22 90.1279 25.54 89.5879 25.76C89.0579 25.98 88.4629 26.09 87.8029 26.09Z" fill="#EA5820"/>
</svg>
