<svg width="150" height="40" viewBox="0 0 150 40" fill="none" xmlns="http://www.w3.org/2000/svg">
<rect width="150" height="40" rx="20" fill="#6C6AEB"/>
<path d="M58.3045 25V14.5H59.9095L66.4945 22.585H65.6995V14.5H67.6345V25H66.0295L59.4445 16.915H60.2395V25H58.3045ZM74.0331 25.105C73.1431 25.105 72.3631 24.93 71.6931 24.58C71.0331 24.22 70.5181 23.73 70.1481 23.11C69.7881 22.49 69.6081 21.785 69.6081 20.995C69.6081 20.195 69.7831 19.49 70.1331 18.88C70.4931 18.26 70.9831 17.775 71.6031 17.425C72.2331 17.075 72.9481 16.9 73.7481 16.9C74.5281 16.9 75.2231 17.07 75.8331 17.41C76.4431 17.75 76.9231 18.23 77.2731 18.85C77.6231 19.47 77.7981 20.2 77.7981 21.04C77.7981 21.12 77.7931 21.21 77.7831 21.31C77.7831 21.41 77.7781 21.505 77.7681 21.595H71.0931V20.35H76.7781L76.0431 20.74C76.0531 20.28 75.9581 19.875 75.7581 19.525C75.5581 19.175 75.2831 18.9 74.9331 18.7C74.5931 18.5 74.1981 18.4 73.7481 18.4C73.2881 18.4 72.8831 18.5 72.5331 18.7C72.1931 18.9 71.9231 19.18 71.7231 19.54C71.5331 19.89 71.4381 20.305 71.4381 20.785V21.085C71.4381 21.565 71.5481 21.99 71.7681 22.36C71.9881 22.73 72.2981 23.015 72.6981 23.215C73.0981 23.415 73.5581 23.515 74.0781 23.515C74.5281 23.515 74.9331 23.445 75.2931 23.305C75.6531 23.165 75.9731 22.945 76.2531 22.645L77.2581 23.8C76.8981 24.22 76.4431 24.545 75.8931 24.775C75.3531 24.995 74.7331 25.105 74.0331 25.105ZM78.2844 25L81.8094 20.41L81.7794 21.415L78.4194 16.99H80.5044L82.8594 20.14H82.0644L84.4344 16.99H86.4594L83.0694 21.415L83.0844 20.41L86.5944 25H84.4794L82.0044 21.655L82.7844 21.76L80.3544 25H78.2844ZM90.993 25.105C90.113 25.105 89.433 24.88 88.953 24.43C88.473 23.97 88.233 23.295 88.233 22.405V15.22H90.108V22.36C90.108 22.74 90.203 23.035 90.393 23.245C90.593 23.455 90.868 23.56 91.218 23.56C91.638 23.56 91.988 23.45 92.268 23.23L92.793 24.565C92.573 24.745 92.303 24.88 91.983 24.97C91.663 25.06 91.333 25.105 90.993 25.105ZM86.913 18.55V17.05H92.253V18.55H86.913Z" fill="white"/>
</svg>
