<svg width="24" height="24" viewBox="0 0 24 24" fill="none" xmlns="http://www.w3.org/2000/svg">
<g filter="url(#filter0_d_1646_24030)">
<path d="M11.2039 9.91994L11.2039 9.27313C11.2039 7.18973 11.8648 7.49516 12.96 6.39994C13.97 5.38996 12.64 4.41186 11.9777 4.41186C11.0527 4.41186 10.6625 5.07484 10.5034 5.74899C10.3784 6.27864 9.95886 6.72675 9.41467 6.72675V6.72675C8.89186 6.72675 8.46426 6.31634 8.53708 5.79862C8.7098 4.57073 9.388 2.55994 11.9777 2.55994C15.4727 2.55994 16.6379 6.26377 14.3079 7.8842C13.2282 8.63512 12.7309 9.04164 12.758 9.73611L12.758 10.0005C12.758 10.5282 12.3323 10.9479 11.853 11.1685C11.5834 11.2925 11.335 11.4747 11.2039 11.7346C10.8406 12.4545 11.103 13.4207 11.991 13.4396C12.8791 13.4586 13.2828 12.6439 12.758 12.0946" stroke="white" stroke-linecap="round" stroke-linejoin="round"/>
<circle cx="12" cy="8" r="7.5" transform="rotate(90 12 8)" stroke="white"/>
</g>
<defs>
<filter id="filter0_d_1646_24030" x="0" y="0" width="24" height="24" filterUnits="userSpaceOnUse" color-interpolation-filters="sRGB">
<feFlood flood-opacity="0" result="BackgroundImageFix"/>
<feColorMatrix in="SourceAlpha" type="matrix" values="0 0 0 0 0 0 0 0 0 0 0 0 0 0 0 0 0 0 127 0" result="hardAlpha"/>
<feOffset dy="4"/>
<feGaussianBlur stdDeviation="2"/>
<feComposite in2="hardAlpha" operator="out"/>
<feColorMatrix type="matrix" values="0 0 0 0 0 0 0 0 0 0 0 0 0 0 0 0 0 0 0.25 0"/>
<feBlend mode="normal" in2="BackgroundImageFix" result="effect1_dropShadow_1646_24030"/>
<feBlend mode="normal" in="SourceGraphic" in2="effect1_dropShadow_1646_24030" result="shape"/>
</filter>
</defs>
</svg>
