<svg width="230" height="41" viewBox="0 0 230 41" fill="none" xmlns="http://www.w3.org/2000/svg">
<rect x="0.5" y="0.880615" width="229" height="39" rx="19.5" stroke="white"/>
<path d="M50.7782 24.3806V13.8806H55.0982C56.0282 13.8806 56.8232 14.0306 57.4832 14.3306C58.1532 14.6306 58.6682 15.0606 59.0282 15.6206C59.3882 16.1806 59.5682 16.8456 59.5682 17.6156C59.5682 18.3856 59.3882 19.0506 59.0282 19.6106C58.6682 20.1606 58.1532 20.5856 57.4832 20.8856C56.8232 21.1756 56.0282 21.3206 55.0982 21.3206H51.8582L52.7282 20.4356V24.3806H50.7782ZM57.6482 24.3806L54.9932 20.5706H57.0782L59.7482 24.3806H57.6482ZM52.7282 20.6456L51.8582 19.7156H55.0082C55.8682 19.7156 56.5132 19.5306 56.9432 19.1606C57.3832 18.7906 57.6032 18.2756 57.6032 17.6156C57.6032 16.9456 57.3832 16.4306 56.9432 16.0706C56.5132 15.7106 55.8682 15.5306 55.0082 15.5306H51.8582L52.7282 14.5706V20.6456ZM65.3348 24.4856C64.4448 24.4856 63.6648 24.3106 62.9948 23.9606C62.3348 23.6006 61.8198 23.1106 61.4498 22.4906C61.0898 21.8706 60.9098 21.1656 60.9098 20.3756C60.9098 19.5756 61.0848 18.8706 61.4348 18.2606C61.7948 17.6406 62.2848 17.1556 62.9048 16.8056C63.5348 16.4556 64.2498 16.2806 65.0498 16.2806C65.8298 16.2806 66.5248 16.4506 67.1348 16.7906C67.7448 17.1306 68.2248 17.6106 68.5748 18.2306C68.9248 18.8506 69.0998 19.5806 69.0998 20.4206C69.0998 20.5006 69.0948 20.5906 69.0848 20.6906C69.0848 20.7906 69.0798 20.8856 69.0698 20.9756H62.3948V19.7306H68.0798L67.3448 20.1206C67.3548 19.6606 67.2598 19.2556 67.0598 18.9056C66.8598 18.5556 66.5848 18.2806 66.2348 18.0806C65.8948 17.8806 65.4998 17.7806 65.0498 17.7806C64.5898 17.7806 64.1848 17.8806 63.8348 18.0806C63.4948 18.2806 63.2248 18.5606 63.0248 18.9206C62.8348 19.2706 62.7398 19.6856 62.7398 20.1656V20.4656C62.7398 20.9456 62.8498 21.3706 63.0698 21.7406C63.2898 22.1106 63.5998 22.3956 63.9998 22.5956C64.3998 22.7956 64.8598 22.8956 65.3798 22.8956C65.8298 22.8956 66.2348 22.8256 66.5948 22.6856C66.9548 22.5456 67.2748 22.3256 67.5548 22.0256L68.5598 23.1806C68.1998 23.6006 67.7448 23.9256 67.1948 24.1556C66.6548 24.3756 66.0348 24.4856 65.3348 24.4856ZM81.0109 16.2806C81.6509 16.2806 82.2159 16.4056 82.7059 16.6556C83.2059 16.9056 83.5959 17.2906 83.8759 17.8106C84.1559 18.3206 84.2959 18.9806 84.2959 19.7906V24.3806H82.4209V20.0306C82.4209 19.3206 82.2659 18.7906 81.9559 18.4406C81.6459 18.0906 81.2009 17.9156 80.6209 17.9156C80.2109 17.9156 79.8459 18.0056 79.5259 18.1856C79.2159 18.3656 78.9709 18.6306 78.7909 18.9806C78.6209 19.3306 78.5359 19.7756 78.5359 20.3156V24.3806H76.6609V20.0306C76.6609 19.3206 76.5059 18.7906 76.1959 18.4406C75.8859 18.0906 75.4409 17.9156 74.8609 17.9156C74.4509 17.9156 74.0859 18.0056 73.7659 18.1856C73.4559 18.3656 73.2109 18.6306 73.0309 18.9806C72.8609 19.3306 72.7759 19.7756 72.7759 20.3156V24.3806H70.9009V16.3706H72.6859V18.5006L72.3709 17.8706C72.6409 17.3506 73.0309 16.9556 73.5409 16.6856C74.0609 16.4156 74.6509 16.2806 75.3109 16.2806C76.0609 16.2806 76.7109 16.4656 77.2609 16.8356C77.8209 17.2056 78.1909 17.7656 78.3709 18.5156L77.6359 18.2606C77.8959 17.6606 78.3259 17.1806 78.9259 16.8206C79.5259 16.4606 80.2209 16.2806 81.0109 16.2806ZM90.3066 24.4856C89.4866 24.4856 88.7566 24.3106 88.1166 23.9606C87.4766 23.6006 86.9716 23.1106 86.6016 22.4906C86.2316 21.8706 86.0466 21.1656 86.0466 20.3756C86.0466 19.5756 86.2316 18.8706 86.6016 18.2606C86.9716 17.6406 87.4766 17.1556 88.1166 16.8056C88.7566 16.4556 89.4866 16.2806 90.3066 16.2806C91.1366 16.2806 91.8716 16.4556 92.5116 16.8056C93.1616 17.1556 93.6666 17.6356 94.0266 18.2456C94.3966 18.8556 94.5816 19.5656 94.5816 20.3756C94.5816 21.1656 94.3966 21.8706 94.0266 22.4906C93.6666 23.1106 93.1616 23.6006 92.5116 23.9606C91.8716 24.3106 91.1366 24.4856 90.3066 24.4856ZM90.3066 22.8806C90.7666 22.8806 91.1766 22.7806 91.5366 22.5806C91.8966 22.3806 92.1766 22.0906 92.3766 21.7106C92.5866 21.3306 92.6916 20.8856 92.6916 20.3756C92.6916 19.8556 92.5866 19.4106 92.3766 19.0406C92.1766 18.6606 91.8966 18.3706 91.5366 18.1706C91.1766 17.9706 90.7716 17.8706 90.3216 17.8706C89.8616 17.8706 89.4516 17.9706 89.0916 18.1706C88.7416 18.3706 88.4616 18.6606 88.2516 19.0406C88.0416 19.4106 87.9366 19.8556 87.9366 20.3756C87.9366 20.8856 88.0416 21.3306 88.2516 21.7106C88.4616 22.0906 88.7416 22.3806 89.0916 22.5806C89.4516 22.7806 89.8566 22.8806 90.3066 22.8806ZM98.2848 24.3806L94.8498 16.3706H96.7998L99.7548 23.4356H98.7948L101.855 16.3706H103.655L100.22 24.3806H98.2848ZM108.372 24.4856C107.482 24.4856 106.702 24.3106 106.032 23.9606C105.372 23.6006 104.857 23.1106 104.487 22.4906C104.127 21.8706 103.947 21.1656 103.947 20.3756C103.947 19.5756 104.122 18.8706 104.472 18.2606C104.832 17.6406 105.322 17.1556 105.942 16.8056C106.572 16.4556 107.287 16.2806 108.087 16.2806C108.867 16.2806 109.562 16.4506 110.172 16.7906C110.782 17.1306 111.262 17.6106 111.612 18.2306C111.962 18.8506 112.137 19.5806 112.137 20.4206C112.137 20.5006 112.132 20.5906 112.122 20.6906C112.122 20.7906 112.117 20.8856 112.107 20.9756H105.432V19.7306H111.117L110.382 20.1206C110.392 19.6606 110.297 19.2556 110.097 18.9056C109.897 18.5556 109.622 18.2806 109.272 18.0806C108.932 17.8806 108.537 17.7806 108.087 17.7806C107.627 17.7806 107.222 17.8806 106.872 18.0806C106.532 18.2806 106.262 18.5606 106.062 18.9206C105.872 19.2706 105.777 19.6856 105.777 20.1656V20.4656C105.777 20.9456 105.887 21.3706 106.107 21.7406C106.327 22.1106 106.637 22.3956 107.037 22.5956C107.437 22.7956 107.897 22.8956 108.417 22.8956C108.867 22.8956 109.272 22.8256 109.632 22.6856C109.992 22.5456 110.312 22.3256 110.592 22.0256L111.597 23.1806C111.237 23.6006 110.782 23.9256 110.232 24.1556C109.692 24.3756 109.072 24.4856 108.372 24.4856ZM116.779 24.3806L121.504 13.8806H123.424L128.164 24.3806H126.124L122.059 14.9156H122.839L118.789 24.3806H116.779ZM118.954 21.9506L119.479 20.4206H125.149L125.674 21.9506H118.954ZM129.319 24.3806V13.2506H131.194V24.3806H129.319ZM133.655 24.3806V13.2506H135.53V24.3806H133.655ZM142.316 24.3806V13.8806H144.266V24.3806H142.316ZM149.941 24.4856C149.061 24.4856 148.381 24.2606 147.901 23.8106C147.421 23.3506 147.181 22.6756 147.181 21.7856V14.6006H149.056V21.7406C149.056 22.1206 149.151 22.4156 149.341 22.6256C149.541 22.8356 149.816 22.9406 150.166 22.9406C150.586 22.9406 150.936 22.8306 151.216 22.6106L151.741 23.9456C151.521 24.1256 151.251 24.2606 150.931 24.3506C150.611 24.4406 150.281 24.4856 149.941 24.4856ZM145.861 17.9306V16.4306H151.201V17.9306H145.861ZM156.785 24.4856C155.895 24.4856 155.115 24.3106 154.445 23.9606C153.785 23.6006 153.27 23.1106 152.9 22.4906C152.54 21.8706 152.36 21.1656 152.36 20.3756C152.36 19.5756 152.535 18.8706 152.885 18.2606C153.245 17.6406 153.735 17.1556 154.355 16.8056C154.985 16.4556 155.7 16.2806 156.5 16.2806C157.28 16.2806 157.975 16.4506 158.585 16.7906C159.195 17.1306 159.675 17.6106 160.025 18.2306C160.375 18.8506 160.55 19.5806 160.55 20.4206C160.55 20.5006 160.545 20.5906 160.535 20.6906C160.535 20.7906 160.53 20.8856 160.52 20.9756H153.845V19.7306H159.53L158.795 20.1206C158.805 19.6606 158.71 19.2556 158.51 18.9056C158.31 18.5556 158.035 18.2806 157.685 18.0806C157.345 17.8806 156.95 17.7806 156.5 17.7806C156.04 17.7806 155.635 17.8806 155.285 18.0806C154.945 18.2806 154.675 18.5606 154.475 18.9206C154.285 19.2706 154.19 19.6856 154.19 20.1656V20.4656C154.19 20.9456 154.3 21.3706 154.52 21.7406C154.74 22.1106 155.05 22.3956 155.45 22.5956C155.85 22.7956 156.31 22.8956 156.83 22.8956C157.28 22.8956 157.685 22.8256 158.045 22.6856C158.405 22.5456 158.725 22.3256 159.005 22.0256L160.01 23.1806C159.65 23.6006 159.195 23.9256 158.645 24.1556C158.105 24.3756 157.485 24.4856 156.785 24.4856ZM172.461 16.2806C173.101 16.2806 173.666 16.4056 174.156 16.6556C174.656 16.9056 175.046 17.2906 175.326 17.8106C175.606 18.3206 175.746 18.9806 175.746 19.7906V24.3806H173.871V20.0306C173.871 19.3206 173.716 18.7906 173.406 18.4406C173.096 18.0906 172.651 17.9156 172.071 17.9156C171.661 17.9156 171.296 18.0056 170.976 18.1856C170.666 18.3656 170.421 18.6306 170.241 18.9806C170.071 19.3306 169.986 19.7756 169.986 20.3156V24.3806H168.111V20.0306C168.111 19.3206 167.956 18.7906 167.646 18.4406C167.336 18.0906 166.891 17.9156 166.311 17.9156C165.901 17.9156 165.536 18.0056 165.216 18.1856C164.906 18.3656 164.661 18.6306 164.481 18.9806C164.311 19.3306 164.226 19.7756 164.226 20.3156V24.3806H162.351V16.3706H164.136V18.5006L163.821 17.8706C164.091 17.3506 164.481 16.9556 164.991 16.6856C165.511 16.4156 166.101 16.2806 166.761 16.2806C167.511 16.2806 168.161 16.4656 168.711 16.8356C169.271 17.2056 169.641 17.7656 169.821 18.5156L169.086 18.2606C169.346 17.6606 169.776 17.1806 170.376 16.8206C170.976 16.4606 171.671 16.2806 172.461 16.2806ZM180.617 24.4856C179.947 24.4856 179.302 24.4006 178.682 24.2306C178.072 24.0506 177.587 23.8356 177.227 23.5856L177.947 22.1606C178.307 22.3906 178.737 22.5806 179.237 22.7306C179.737 22.8806 180.237 22.9556 180.737 22.9556C181.327 22.9556 181.752 22.8756 182.012 22.7156C182.282 22.5556 182.417 22.3406 182.417 22.0706C182.417 21.8506 182.327 21.6856 182.147 21.5756C181.967 21.4556 181.732 21.3656 181.442 21.3056C181.152 21.2456 180.827 21.1906 180.467 21.1406C180.117 21.0906 179.762 21.0256 179.402 20.9456C179.052 20.8556 178.732 20.7306 178.442 20.5706C178.152 20.4006 177.917 20.1756 177.737 19.8956C177.557 19.6156 177.467 19.2456 177.467 18.7856C177.467 18.2756 177.612 17.8356 177.902 17.4656C178.192 17.0856 178.597 16.7956 179.117 16.5956C179.647 16.3856 180.272 16.2806 180.992 16.2806C181.532 16.2806 182.077 16.3406 182.627 16.4606C183.177 16.5806 183.632 16.7506 183.992 16.9706L183.272 18.3956C182.892 18.1656 182.507 18.0106 182.117 17.9306C181.737 17.8406 181.357 17.7956 180.977 17.7956C180.407 17.7956 179.982 17.8806 179.702 18.0506C179.432 18.2206 179.297 18.4356 179.297 18.6956C179.297 18.9356 179.387 19.1156 179.567 19.2356C179.747 19.3556 179.982 19.4506 180.272 19.5206C180.562 19.5906 180.882 19.6506 181.232 19.7006C181.592 19.7406 181.947 19.8056 182.297 19.8956C182.647 19.9856 182.967 20.1106 183.257 20.2706C183.557 20.4206 183.797 20.6356 183.977 20.9156C184.157 21.1956 184.247 21.5606 184.247 22.0106C184.247 22.5106 184.097 22.9456 183.797 23.3156C183.507 23.6856 183.092 23.9756 182.552 24.1856C182.012 24.3856 181.367 24.4856 180.617 24.4856Z" fill="white"/>
</svg>
