<svg width="250" height="41" viewBox="0 0 250 41" fill="none" xmlns="http://www.w3.org/2000/svg">
<rect x="0.5" y="0.9375" width="249" height="39" rx="19.5" fill="#6C6AEB" stroke="#6C6AEB"/>
<path d="M20.41 25.4375V14.9375H24.73C25.66 14.9375 26.455 15.0875 27.115 15.3875C27.785 15.6875 28.3 16.1175 28.66 16.6775C29.02 17.2375 29.2 17.9025 29.2 18.6725C29.2 19.4425 29.02 20.1075 28.66 20.6675C28.3 21.2175 27.785 21.6425 27.115 21.9425C26.455 22.2325 25.66 22.3775 24.73 22.3775H21.49L22.36 21.4925V25.4375H20.41ZM27.28 25.4375L24.625 21.6275H26.71L29.38 25.4375H27.28ZM22.36 21.7025L21.49 20.7725H24.64C25.5 20.7725 26.145 20.5875 26.575 20.2175C27.015 19.8475 27.235 19.3325 27.235 18.6725C27.235 18.0025 27.015 17.4875 26.575 17.1275C26.145 16.7675 25.5 16.5875 24.64 16.5875H21.49L22.36 15.6275V21.7025ZM34.9667 25.5425C34.0767 25.5425 33.2967 25.3675 32.6267 25.0175C31.9667 24.6575 31.4517 24.1675 31.0817 23.5475C30.7217 22.9275 30.5417 22.2225 30.5417 21.4325C30.5417 20.6325 30.7167 19.9275 31.0667 19.3175C31.4267 18.6975 31.9167 18.2125 32.5367 17.8625C33.1667 17.5125 33.8817 17.3375 34.6817 17.3375C35.4617 17.3375 36.1567 17.5075 36.7667 17.8475C37.3767 18.1875 37.8567 18.6675 38.2067 19.2875C38.5567 19.9075 38.7317 20.6375 38.7317 21.4775C38.7317 21.5575 38.7267 21.6475 38.7167 21.7475C38.7167 21.8475 38.7117 21.9425 38.7017 22.0325H32.0267V20.7875H37.7117L36.9767 21.1775C36.9867 20.7175 36.8917 20.3125 36.6917 19.9625C36.4917 19.6125 36.2167 19.3375 35.8667 19.1375C35.5267 18.9375 35.1317 18.8375 34.6817 18.8375C34.2217 18.8375 33.8167 18.9375 33.4667 19.1375C33.1267 19.3375 32.8567 19.6175 32.6567 19.9775C32.4667 20.3275 32.3717 20.7425 32.3717 21.2225V21.5225C32.3717 22.0025 32.4817 22.4275 32.7017 22.7975C32.9217 23.1675 33.2317 23.4525 33.6317 23.6525C34.0317 23.8525 34.4917 23.9525 35.0117 23.9525C35.4617 23.9525 35.8667 23.8825 36.2267 23.7425C36.5867 23.6025 36.9067 23.3825 37.1867 23.0825L38.1917 24.2375C37.8317 24.6575 37.3767 24.9825 36.8267 25.2125C36.2867 25.4325 35.6667 25.5425 34.9667 25.5425ZM50.6427 17.3375C51.2827 17.3375 51.8477 17.4625 52.3377 17.7125C52.8377 17.9625 53.2277 18.3475 53.5077 18.8675C53.7877 19.3775 53.9277 20.0375 53.9277 20.8475V25.4375H52.0527V21.0875C52.0527 20.3775 51.8977 19.8475 51.5877 19.4975C51.2777 19.1475 50.8327 18.9725 50.2527 18.9725C49.8427 18.9725 49.4777 19.0625 49.1577 19.2425C48.8477 19.4225 48.6027 19.6875 48.4227 20.0375C48.2527 20.3875 48.1677 20.8325 48.1677 21.3725V25.4375H46.2927V21.0875C46.2927 20.3775 46.1377 19.8475 45.8277 19.4975C45.5177 19.1475 45.0727 18.9725 44.4927 18.9725C44.0827 18.9725 43.7177 19.0625 43.3977 19.2425C43.0877 19.4225 42.8427 19.6875 42.6627 20.0375C42.4927 20.3875 42.4077 20.8325 42.4077 21.3725V25.4375H40.5327V17.4275H42.3177V19.5575L42.0027 18.9275C42.2727 18.4075 42.6627 18.0125 43.1727 17.7425C43.6927 17.4725 44.2827 17.3375 44.9427 17.3375C45.6927 17.3375 46.3427 17.5225 46.8927 17.8925C47.4527 18.2625 47.8227 18.8225 48.0027 19.5725L47.2677 19.3175C47.5277 18.7175 47.9577 18.2375 48.5577 17.8775C49.1577 17.5175 49.8527 17.3375 50.6427 17.3375ZM59.9384 25.5425C59.1184 25.5425 58.3884 25.3675 57.7484 25.0175C57.1084 24.6575 56.6034 24.1675 56.2334 23.5475C55.8634 22.9275 55.6784 22.2225 55.6784 21.4325C55.6784 20.6325 55.8634 19.9275 56.2334 19.3175C56.6034 18.6975 57.1084 18.2125 57.7484 17.8625C58.3884 17.5125 59.1184 17.3375 59.9384 17.3375C60.7684 17.3375 61.5034 17.5125 62.1434 17.8625C62.7934 18.2125 63.2984 18.6925 63.6584 19.3025C64.0284 19.9125 64.2134 20.6225 64.2134 21.4325C64.2134 22.2225 64.0284 22.9275 63.6584 23.5475C63.2984 24.1675 62.7934 24.6575 62.1434 25.0175C61.5034 25.3675 60.7684 25.5425 59.9384 25.5425ZM59.9384 23.9375C60.3984 23.9375 60.8084 23.8375 61.1684 23.6375C61.5284 23.4375 61.8084 23.1475 62.0084 22.7675C62.2184 22.3875 62.3234 21.9425 62.3234 21.4325C62.3234 20.9125 62.2184 20.4675 62.0084 20.0975C61.8084 19.7175 61.5284 19.4275 61.1684 19.2275C60.8084 19.0275 60.4034 18.9275 59.9534 18.9275C59.4934 18.9275 59.0834 19.0275 58.7234 19.2275C58.3734 19.4275 58.0934 19.7175 57.8834 20.0975C57.6734 20.4675 57.5684 20.9125 57.5684 21.4325C57.5684 21.9425 57.6734 22.3875 57.8834 22.7675C58.0934 23.1475 58.3734 23.4375 58.7234 23.6375C59.0834 23.8375 59.4884 23.9375 59.9384 23.9375ZM67.9166 25.4375L64.4816 17.4275H66.4316L69.3866 24.4925H68.4266L71.4866 17.4275H73.2866L69.8516 25.4375H67.9166ZM78.0038 25.5425C77.1138 25.5425 76.3338 25.3675 75.6638 25.0175C75.0038 24.6575 74.4888 24.1675 74.1188 23.5475C73.7588 22.9275 73.5788 22.2225 73.5788 21.4325C73.5788 20.6325 73.7538 19.9275 74.1038 19.3175C74.4638 18.6975 74.9538 18.2125 75.5738 17.8625C76.2038 17.5125 76.9188 17.3375 77.7188 17.3375C78.4988 17.3375 79.1938 17.5075 79.8038 17.8475C80.4138 18.1875 80.8938 18.6675 81.2438 19.2875C81.5938 19.9075 81.7688 20.6375 81.7688 21.4775C81.7688 21.5575 81.7638 21.6475 81.7538 21.7475C81.7538 21.8475 81.7488 21.9425 81.7388 22.0325H75.0638V20.7875H80.7488L80.0138 21.1775C80.0238 20.7175 79.9288 20.3125 79.7288 19.9625C79.5288 19.6125 79.2538 19.3375 78.9038 19.1375C78.5638 18.9375 78.1688 18.8375 77.7188 18.8375C77.2588 18.8375 76.8538 18.9375 76.5038 19.1375C76.1638 19.3375 75.8938 19.6175 75.6938 19.9775C75.5038 20.3275 75.4088 20.7425 75.4088 21.2225V21.5225C75.4088 22.0025 75.5188 22.4275 75.7388 22.7975C75.9588 23.1675 76.2688 23.4525 76.6688 23.6525C77.0688 23.8525 77.5288 23.9525 78.0488 23.9525C78.4988 23.9525 78.9038 23.8825 79.2638 23.7425C79.6238 23.6025 79.9438 23.3825 80.2238 23.0825L81.2288 24.2375C80.8688 24.6575 80.4138 24.9825 79.8638 25.2125C79.3238 25.4325 78.7038 25.5425 78.0038 25.5425ZM87.9704 25.4375V16.9775C87.9704 16.1375 88.2154 15.4675 88.7054 14.9675C89.2054 14.4575 89.9154 14.2025 90.8354 14.2025C91.1654 14.2025 91.4754 14.2375 91.7654 14.3075C92.0654 14.3775 92.3154 14.4875 92.5154 14.6375L92.0054 16.0475C91.8654 15.9375 91.7054 15.8575 91.5254 15.8075C91.3454 15.7475 91.1604 15.7175 90.9704 15.7175C90.5804 15.7175 90.2854 15.8275 90.0854 16.0475C89.8854 16.2575 89.7854 16.5775 89.7854 17.0075V17.9075L89.8454 18.7475V25.4375H87.9704ZM86.6504 18.9875V17.4875H91.9904V18.9875H86.6504ZM93.2671 25.4375V17.4275H95.0521V19.6325L94.8421 18.9875C95.0821 18.4475 95.4571 18.0375 95.9671 17.7575C96.4871 17.4775 97.1321 17.3375 97.9021 17.3375V19.1225C97.8221 19.1025 97.7471 19.0925 97.6771 19.0925C97.6071 19.0825 97.5371 19.0775 97.4671 19.0775C96.7571 19.0775 96.1921 19.2875 95.7721 19.7075C95.3521 20.1175 95.1421 20.7325 95.1421 21.5525V25.4375H93.2671ZM103.019 25.5425C102.199 25.5425 101.469 25.3675 100.829 25.0175C100.189 24.6575 99.6845 24.1675 99.3145 23.5475C98.9445 22.9275 98.7595 22.2225 98.7595 21.4325C98.7595 20.6325 98.9445 19.9275 99.3145 19.3175C99.6845 18.6975 100.189 18.2125 100.829 17.8625C101.469 17.5125 102.199 17.3375 103.019 17.3375C103.849 17.3375 104.584 17.5125 105.224 17.8625C105.874 18.2125 106.379 18.6925 106.739 19.3025C107.109 19.9125 107.294 20.6225 107.294 21.4325C107.294 22.2225 107.109 22.9275 106.739 23.5475C106.379 24.1675 105.874 24.6575 105.224 25.0175C104.584 25.3675 103.849 25.5425 103.019 25.5425ZM103.019 23.9375C103.479 23.9375 103.889 23.8375 104.249 23.6375C104.609 23.4375 104.889 23.1475 105.089 22.7675C105.299 22.3875 105.404 21.9425 105.404 21.4325C105.404 20.9125 105.299 20.4675 105.089 20.0975C104.889 19.7175 104.609 19.4275 104.249 19.2275C103.889 19.0275 103.484 18.9275 103.034 18.9275C102.574 18.9275 102.164 19.0275 101.804 19.2275C101.454 19.4275 101.174 19.7175 100.964 20.0975C100.754 20.4675 100.649 20.9125 100.649 21.4325C100.649 21.9425 100.754 22.3875 100.964 22.7675C101.174 23.1475 101.454 23.4375 101.804 23.6375C102.164 23.8375 102.569 23.9375 103.019 23.9375ZM119.197 17.3375C119.837 17.3375 120.402 17.4625 120.892 17.7125C121.392 17.9625 121.782 18.3475 122.062 18.8675C122.342 19.3775 122.482 20.0375 122.482 20.8475V25.4375H120.607V21.0875C120.607 20.3775 120.452 19.8475 120.142 19.4975C119.832 19.1475 119.387 18.9725 118.807 18.9725C118.397 18.9725 118.032 19.0625 117.712 19.2425C117.402 19.4225 117.157 19.6875 116.977 20.0375C116.807 20.3875 116.722 20.8325 116.722 21.3725V25.4375H114.847V21.0875C114.847 20.3775 114.692 19.8475 114.382 19.4975C114.072 19.1475 113.627 18.9725 113.047 18.9725C112.637 18.9725 112.272 19.0625 111.952 19.2425C111.642 19.4225 111.397 19.6875 111.217 20.0375C111.047 20.3875 110.962 20.8325 110.962 21.3725V25.4375H109.087V17.4275H110.872V19.5575L110.557 18.9275C110.827 18.4075 111.217 18.0125 111.727 17.7425C112.247 17.4725 112.837 17.3375 113.497 17.3375C114.247 17.3375 114.897 17.5225 115.447 17.8925C116.007 18.2625 116.377 18.8225 116.557 19.5725L115.822 19.3175C116.082 18.7175 116.512 18.2375 117.112 17.8775C117.712 17.5175 118.407 17.3375 119.197 17.3375ZM130.989 19.7675H136.224V21.4175H130.989V19.7675ZM131.154 25.4375H129.204V14.9375H136.869V16.5725H131.154V25.4375ZM138.575 25.4375V17.4275H140.45V25.4375H138.575ZM139.52 16.1075C139.17 16.1075 138.88 15.9975 138.65 15.7775C138.43 15.5575 138.32 15.2925 138.32 14.9825C138.32 14.6625 138.43 14.3975 138.65 14.1875C138.88 13.9675 139.17 13.8575 139.52 13.8575C139.87 13.8575 140.155 13.9625 140.375 14.1725C140.605 14.3725 140.72 14.6275 140.72 14.9375C140.72 15.2675 140.61 15.5475 140.39 15.7775C140.17 15.9975 139.88 16.1075 139.52 16.1075ZM145.926 25.5425C145.046 25.5425 144.366 25.3175 143.886 24.8675C143.406 24.4075 143.166 23.7325 143.166 22.8425V15.6575H145.041V22.7975C145.041 23.1775 145.136 23.4725 145.326 23.6825C145.526 23.8925 145.801 23.9975 146.151 23.9975C146.571 23.9975 146.921 23.8875 147.201 23.6675L147.726 25.0025C147.506 25.1825 147.236 25.3175 146.916 25.4075C146.596 25.4975 146.266 25.5425 145.926 25.5425ZM141.846 18.9875V17.4875H147.186V18.9875H141.846ZM152.093 25.5425C151.213 25.5425 150.533 25.3175 150.053 24.8675C149.573 24.4075 149.333 23.7325 149.333 22.8425V15.6575H151.208V22.7975C151.208 23.1775 151.303 23.4725 151.493 23.6825C151.693 23.8925 151.968 23.9975 152.318 23.9975C152.738 23.9975 153.088 23.8875 153.368 23.6675L153.893 25.0025C153.673 25.1825 153.403 25.3175 153.083 25.4075C152.763 25.4975 152.433 25.5425 152.093 25.5425ZM148.013 18.9875V17.4875H153.353V18.9875H148.013ZM155.435 25.4375V17.4275H157.31V25.4375H155.435ZM156.38 16.1075C156.03 16.1075 155.74 15.9975 155.51 15.7775C155.29 15.5575 155.18 15.2925 155.18 14.9825C155.18 14.6625 155.29 14.3975 155.51 14.1875C155.74 13.9675 156.03 13.8575 156.38 13.8575C156.73 13.8575 157.015 13.9625 157.235 14.1725C157.465 14.3725 157.58 14.6275 157.58 14.9375C157.58 15.2675 157.47 15.5475 157.25 15.7775C157.03 15.9975 156.74 16.1075 156.38 16.1075ZM164.316 17.3375C164.956 17.3375 165.526 17.4625 166.026 17.7125C166.536 17.9625 166.936 18.3475 167.226 18.8675C167.516 19.3775 167.661 20.0375 167.661 20.8475V25.4375H165.786V21.0875C165.786 20.3775 165.616 19.8475 165.276 19.4975C164.946 19.1475 164.481 18.9725 163.881 18.9725C163.441 18.9725 163.051 19.0625 162.711 19.2425C162.371 19.4225 162.106 19.6925 161.916 20.0525C161.736 20.4025 161.646 20.8475 161.646 21.3875V25.4375H159.771V17.4275H161.556V19.5875L161.241 18.9275C161.521 18.4175 161.926 18.0275 162.456 17.7575C162.996 17.4775 163.616 17.3375 164.316 17.3375ZM173.684 28.4525C172.944 28.4525 172.219 28.3525 171.509 28.1525C170.809 27.9625 170.234 27.6825 169.784 27.3125L170.624 25.9025C170.974 26.1925 171.414 26.4225 171.944 26.5925C172.484 26.7725 173.029 26.8625 173.579 26.8625C174.459 26.8625 175.104 26.6575 175.514 26.2475C175.924 25.8475 176.129 25.2425 176.129 24.4325V23.0075L176.279 21.1925L176.219 19.3775V17.4275H178.004V24.2225C178.004 25.6725 177.634 26.7375 176.894 27.4175C176.154 28.1075 175.084 28.4525 173.684 28.4525ZM173.444 25.0775C172.684 25.0775 171.994 24.9175 171.374 24.5975C170.764 24.2675 170.279 23.8125 169.919 23.2325C169.569 22.6525 169.394 21.9725 169.394 21.1925C169.394 20.4225 169.569 19.7475 169.919 19.1675C170.279 18.5875 170.764 18.1375 171.374 17.8175C171.994 17.4975 172.684 17.3375 173.444 17.3375C174.124 17.3375 174.734 17.4725 175.274 17.7425C175.814 18.0125 176.244 18.4325 176.564 19.0025C176.894 19.5725 177.059 20.3025 177.059 21.1925C177.059 22.0825 176.894 22.8175 176.564 23.3975C176.244 23.9675 175.814 24.3925 175.274 24.6725C174.734 24.9425 174.124 25.0775 173.444 25.0775ZM173.729 23.4875C174.199 23.4875 174.619 23.3925 174.989 23.2025C175.359 23.0025 175.644 22.7325 175.844 22.3925C176.054 22.0425 176.159 21.6425 176.159 21.1925C176.159 20.7425 176.054 20.3475 175.844 20.0075C175.644 19.6575 175.359 19.3925 174.989 19.2125C174.619 19.0225 174.199 18.9275 173.729 18.9275C173.259 18.9275 172.834 19.0225 172.454 19.2125C172.084 19.3925 171.794 19.6575 171.584 20.0075C171.384 20.3475 171.284 20.7425 171.284 21.1925C171.284 21.6425 171.384 22.0425 171.584 22.3925C171.794 22.7325 172.084 23.0025 172.454 23.2025C172.834 23.3925 173.259 23.4875 173.729 23.4875ZM184.795 25.4375V14.9375H189.115C190.045 14.9375 190.84 15.0875 191.5 15.3875C192.17 15.6875 192.685 16.1175 193.045 16.6775C193.405 17.2375 193.585 17.9025 193.585 18.6725C193.585 19.4425 193.405 20.1075 193.045 20.6675C192.685 21.2175 192.17 21.6425 191.5 21.9425C190.84 22.2325 190.045 22.3775 189.115 22.3775H185.875L186.745 21.4925V25.4375H184.795ZM191.665 25.4375L189.01 21.6275H191.095L193.765 25.4375H191.665ZM186.745 21.7025L185.875 20.7725H189.025C189.885 20.7725 190.53 20.5875 190.96 20.2175C191.4 19.8475 191.62 19.3325 191.62 18.6725C191.62 18.0025 191.4 17.4875 190.96 17.1275C190.53 16.7675 189.885 16.5875 189.025 16.5875H185.875L186.745 15.6275V21.7025ZM199.186 25.5425C198.366 25.5425 197.636 25.3675 196.996 25.0175C196.356 24.6575 195.851 24.1675 195.481 23.5475C195.111 22.9275 194.926 22.2225 194.926 21.4325C194.926 20.6325 195.111 19.9275 195.481 19.3175C195.851 18.6975 196.356 18.2125 196.996 17.8625C197.636 17.5125 198.366 17.3375 199.186 17.3375C200.016 17.3375 200.751 17.5125 201.391 17.8625C202.041 18.2125 202.546 18.6925 202.906 19.3025C203.276 19.9125 203.461 20.6225 203.461 21.4325C203.461 22.2225 203.276 22.9275 202.906 23.5475C202.546 24.1675 202.041 24.6575 201.391 25.0175C200.751 25.3675 200.016 25.5425 199.186 25.5425ZM199.186 23.9375C199.646 23.9375 200.056 23.8375 200.416 23.6375C200.776 23.4375 201.056 23.1475 201.256 22.7675C201.466 22.3875 201.571 21.9425 201.571 21.4325C201.571 20.9125 201.466 20.4675 201.256 20.0975C201.056 19.7175 200.776 19.4275 200.416 19.2275C200.056 19.0275 199.651 18.9275 199.201 18.9275C198.741 18.9275 198.331 19.0275 197.971 19.2275C197.621 19.4275 197.341 19.7175 197.131 20.0975C196.921 20.4675 196.816 20.9125 196.816 21.4325C196.816 21.9425 196.921 22.3875 197.131 22.7675C197.341 23.1475 197.621 23.4375 197.971 23.6375C198.331 23.8375 198.736 23.9375 199.186 23.9375ZM208.854 25.5425C208.034 25.5425 207.304 25.3675 206.664 25.0175C206.024 24.6575 205.519 24.1675 205.149 23.5475C204.779 22.9275 204.594 22.2225 204.594 21.4325C204.594 20.6325 204.779 19.9275 205.149 19.3175C205.519 18.6975 206.024 18.2125 206.664 17.8625C207.304 17.5125 208.034 17.3375 208.854 17.3375C209.684 17.3375 210.419 17.5125 211.059 17.8625C211.709 18.2125 212.214 18.6925 212.574 19.3025C212.944 19.9125 213.129 20.6225 213.129 21.4325C213.129 22.2225 212.944 22.9275 212.574 23.5475C212.214 24.1675 211.709 24.6575 211.059 25.0175C210.419 25.3675 209.684 25.5425 208.854 25.5425ZM208.854 23.9375C209.314 23.9375 209.724 23.8375 210.084 23.6375C210.444 23.4375 210.724 23.1475 210.924 22.7675C211.134 22.3875 211.239 21.9425 211.239 21.4325C211.239 20.9125 211.134 20.4675 210.924 20.0975C210.724 19.7175 210.444 19.4275 210.084 19.2275C209.724 19.0275 209.319 18.9275 208.869 18.9275C208.409 18.9275 207.999 19.0275 207.639 19.2275C207.289 19.4275 207.009 19.7175 206.799 20.0975C206.589 20.4675 206.484 20.9125 206.484 21.4325C206.484 21.9425 206.589 22.3875 206.799 22.7675C207.009 23.1475 207.289 23.4375 207.639 23.6375C207.999 23.8375 208.404 23.9375 208.854 23.9375ZM225.032 17.3375C225.672 17.3375 226.237 17.4625 226.727 17.7125C227.227 17.9625 227.617 18.3475 227.897 18.8675C228.177 19.3775 228.317 20.0375 228.317 20.8475V25.4375H226.442V21.0875C226.442 20.3775 226.287 19.8475 225.977 19.4975C225.667 19.1475 225.222 18.9725 224.642 18.9725C224.232 18.9725 223.867 19.0625 223.547 19.2425C223.237 19.4225 222.992 19.6875 222.812 20.0375C222.642 20.3875 222.557 20.8325 222.557 21.3725V25.4375H220.682V21.0875C220.682 20.3775 220.527 19.8475 220.217 19.4975C219.907 19.1475 219.462 18.9725 218.882 18.9725C218.472 18.9725 218.107 19.0625 217.787 19.2425C217.477 19.4225 217.232 19.6875 217.052 20.0375C216.882 20.3875 216.797 20.8325 216.797 21.3725V25.4375H214.922V17.4275H216.707V19.5575L216.392 18.9275C216.662 18.4075 217.052 18.0125 217.562 17.7425C218.082 17.4725 218.672 17.3375 219.332 17.3375C220.082 17.3375 220.732 17.5225 221.282 17.8925C221.842 18.2625 222.212 18.8225 222.392 19.5725L221.657 19.3175C221.917 18.7175 222.347 18.2375 222.947 17.8775C223.547 17.5175 224.242 17.3375 225.032 17.3375Z" fill="white"/>
</svg>
