<svg width="150" height="40" viewBox="0 0 150 40" fill="none" xmlns="http://www.w3.org/2000/svg">
<rect x="0.5" y="0.5" width="149" height="39" rx="19.5" stroke="white"/>
<path d="M49.2519 25V14.5H53.5719C54.5019 14.5 55.2969 14.65 55.9569 14.95C56.6269 15.25 57.1419 15.68 57.5019 16.24C57.8619 16.8 58.0419 17.465 58.0419 18.235C58.0419 19.005 57.8619 19.67 57.5019 20.23C57.1419 20.78 56.6269 21.205 55.9569 21.505C55.2969 21.795 54.5019 21.94 53.5719 21.94H50.3319L51.2019 21.055V25H49.2519ZM56.1219 25L53.4669 21.19H55.5519L58.2219 25H56.1219ZM51.2019 21.265L50.3319 20.335H53.4819C54.3419 20.335 54.9869 20.15 55.4169 19.78C55.8569 19.41 56.0769 18.895 56.0769 18.235C56.0769 17.565 55.8569 17.05 55.4169 16.69C54.9869 16.33 54.3419 16.15 53.4819 16.15H50.3319L51.2019 15.19V21.265ZM63.8085 25.105C62.9185 25.105 62.1385 24.93 61.4685 24.58C60.8085 24.22 60.2935 23.73 59.9235 23.11C59.5635 22.49 59.3835 21.785 59.3835 20.995C59.3835 20.195 59.5585 19.49 59.9085 18.88C60.2685 18.26 60.7585 17.775 61.3785 17.425C62.0085 17.075 62.7235 16.9 63.5235 16.9C64.3035 16.9 64.9985 17.07 65.6085 17.41C66.2185 17.75 66.6985 18.23 67.0485 18.85C67.3985 19.47 67.5735 20.2 67.5735 21.04C67.5735 21.12 67.5685 21.21 67.5585 21.31C67.5585 21.41 67.5535 21.505 67.5435 21.595H60.8685V20.35H66.5535L65.8185 20.74C65.8285 20.28 65.7335 19.875 65.5335 19.525C65.3335 19.175 65.0585 18.9 64.7085 18.7C64.3685 18.5 63.9735 18.4 63.5235 18.4C63.0635 18.4 62.6585 18.5 62.3085 18.7C61.9685 18.9 61.6985 19.18 61.4985 19.54C61.3085 19.89 61.2135 20.305 61.2135 20.785V21.085C61.2135 21.565 61.3235 21.99 61.5435 22.36C61.7635 22.73 62.0735 23.015 62.4735 23.215C62.8735 23.415 63.3335 23.515 63.8535 23.515C64.3035 23.515 64.7085 23.445 65.0685 23.305C65.4285 23.165 65.7485 22.945 66.0285 22.645L67.0335 23.8C66.6735 24.22 66.2185 24.545 65.6685 24.775C65.1285 24.995 64.5085 25.105 63.8085 25.105ZM72.3896 25.105C71.5096 25.105 70.8296 24.88 70.3496 24.43C69.8696 23.97 69.6296 23.295 69.6296 22.405V15.22H71.5046V22.36C71.5046 22.74 71.5996 23.035 71.7896 23.245C71.9896 23.455 72.2646 23.56 72.6146 23.56C73.0346 23.56 73.3846 23.45 73.6646 23.23L74.1896 24.565C73.9696 24.745 73.6996 24.88 73.3796 24.97C73.0596 25.06 72.7296 25.105 72.3896 25.105ZM68.3096 18.55V17.05H73.6496V18.55H68.3096ZM80.667 25V23.38L80.562 23.035V20.2C80.562 19.65 80.397 19.225 80.067 18.925C79.737 18.615 79.237 18.46 78.567 18.46C78.117 18.46 77.672 18.53 77.232 18.67C76.802 18.81 76.437 19.005 76.137 19.255L75.402 17.89C75.832 17.56 76.342 17.315 76.932 17.155C77.532 16.985 78.152 16.9 78.792 16.9C79.952 16.9 80.847 17.18 81.477 17.74C82.117 18.29 82.437 19.145 82.437 20.305V25H80.667ZM78.147 25.105C77.547 25.105 77.022 25.005 76.572 24.805C76.122 24.595 75.772 24.31 75.522 23.95C75.282 23.58 75.162 23.165 75.162 22.705C75.162 22.255 75.267 21.85 75.477 21.49C75.697 21.13 76.052 20.845 76.542 20.635C77.032 20.425 77.682 20.32 78.492 20.32H80.817V21.565H78.627C77.987 21.565 77.557 21.67 77.337 21.88C77.117 22.08 77.007 22.33 77.007 22.63C77.007 22.97 77.142 23.24 77.412 23.44C77.682 23.64 78.057 23.74 78.537 23.74C78.997 23.74 79.407 23.635 79.767 23.425C80.137 23.215 80.402 22.905 80.562 22.495L80.877 23.62C80.697 24.09 80.372 24.455 79.902 24.715C79.442 24.975 78.857 25.105 78.147 25.105ZM86.3733 23.215L86.4183 20.86L90.6033 16.99H92.8533L89.2983 20.56L88.3083 21.385L86.3733 23.215ZM84.8433 25V13.87H86.7183V25H84.8433ZM90.8883 25L87.9633 21.385L89.1483 19.885L93.1683 25H90.8883ZM97.8222 25.105C96.9322 25.105 96.1522 24.93 95.4822 24.58C94.8222 24.22 94.3072 23.73 93.9372 23.11C93.5772 22.49 93.3972 21.785 93.3972 20.995C93.3972 20.195 93.5722 19.49 93.9222 18.88C94.2822 18.26 94.7722 17.775 95.3922 17.425C96.0222 17.075 96.7372 16.9 97.5372 16.9C98.3172 16.9 99.0122 17.07 99.6222 17.41C100.232 17.75 100.712 18.23 101.062 18.85C101.412 19.47 101.587 20.2 101.587 21.04C101.587 21.12 101.582 21.21 101.572 21.31C101.572 21.41 101.567 21.505 101.557 21.595H94.8822V20.35H100.567L99.8322 20.74C99.8422 20.28 99.7472 19.875 99.5472 19.525C99.3472 19.175 99.0722 18.9 98.7222 18.7C98.3822 18.5 97.9872 18.4 97.5372 18.4C97.0772 18.4 96.6722 18.5 96.3222 18.7C95.9822 18.9 95.7122 19.18 95.5122 19.54C95.3222 19.89 95.2272 20.305 95.2272 20.785V21.085C95.2272 21.565 95.3372 21.99 95.5572 22.36C95.7772 22.73 96.0872 23.015 96.4872 23.215C96.8872 23.415 97.3472 23.515 97.8672 23.515C98.3172 23.515 98.7222 23.445 99.0822 23.305C99.4422 23.165 99.7622 22.945 100.042 22.645L101.047 23.8C100.687 24.22 100.232 24.545 99.6822 24.775C99.1422 24.995 98.5222 25.105 97.8222 25.105Z" fill="white"/>
</svg>
