<svg width="150" height="40" viewBox="0 0 150 40" fill="none" xmlns="http://www.w3.org/2000/svg">
<rect width="150" height="40" rx="20" fill="#6C6AEB"/>
<path d="M36.1005 25.15C35.2805 25.15 34.4955 25.035 33.7455 24.805C32.9955 24.565 32.4005 24.26 31.9605 23.89L32.6355 22.375C33.0555 22.705 33.5755 22.98 34.1955 23.2C34.8155 23.42 35.4505 23.53 36.1005 23.53C36.6505 23.53 37.0955 23.47 37.4355 23.35C37.7755 23.23 38.0255 23.07 38.1855 22.87C38.3455 22.66 38.4255 22.425 38.4255 22.165C38.4255 21.845 38.3105 21.59 38.0805 21.4C37.8505 21.2 37.5505 21.045 37.1805 20.935C36.8205 20.815 36.4155 20.705 35.9655 20.605C35.5255 20.505 35.0805 20.39 34.6305 20.26C34.1905 20.12 33.7855 19.945 33.4155 19.735C33.0555 19.515 32.7605 19.225 32.5305 18.865C32.3005 18.505 32.1855 18.045 32.1855 17.485C32.1855 16.915 32.3355 16.395 32.6355 15.925C32.9455 15.445 33.4105 15.065 34.0305 14.785C34.6605 14.495 35.4555 14.35 36.4155 14.35C37.0455 14.35 37.6705 14.43 38.2905 14.59C38.9105 14.75 39.4505 14.98 39.9105 15.28L39.2955 16.795C38.8255 16.515 38.3405 16.31 37.8405 16.18C37.3405 16.04 36.8605 15.97 36.4005 15.97C35.8605 15.97 35.4205 16.035 35.0805 16.165C34.7505 16.295 34.5055 16.465 34.3455 16.675C34.1955 16.885 34.1205 17.125 34.1205 17.395C34.1205 17.715 34.2305 17.975 34.4505 18.175C34.6805 18.365 34.9755 18.515 35.3355 18.625C35.7055 18.735 36.1155 18.845 36.5655 18.955C37.0155 19.055 37.4605 19.17 37.9005 19.3C38.3505 19.43 38.7555 19.6 39.1155 19.81C39.4855 20.02 39.7805 20.305 40.0005 20.665C40.2305 21.025 40.3455 21.48 40.3455 22.03C40.3455 22.59 40.1905 23.11 39.8805 23.59C39.5805 24.06 39.1155 24.44 38.4855 24.73C37.8555 25.01 37.0605 25.15 36.1005 25.15ZM45.8641 25.105C44.9741 25.105 44.1941 24.93 43.5241 24.58C42.8641 24.22 42.3491 23.73 41.9791 23.11C41.6191 22.49 41.4391 21.785 41.4391 20.995C41.4391 20.195 41.6141 19.49 41.9641 18.88C42.3241 18.26 42.8141 17.775 43.4341 17.425C44.0641 17.075 44.7791 16.9 45.5791 16.9C46.3591 16.9 47.0541 17.07 47.6641 17.41C48.2741 17.75 48.7541 18.23 49.1041 18.85C49.4541 19.47 49.6291 20.2 49.6291 21.04C49.6291 21.12 49.6241 21.21 49.6141 21.31C49.6141 21.41 49.6091 21.505 49.5991 21.595H42.9241V20.35H48.6091L47.8741 20.74C47.8841 20.28 47.7891 19.875 47.5891 19.525C47.3891 19.175 47.1141 18.9 46.7641 18.7C46.4241 18.5 46.0291 18.4 45.5791 18.4C45.1191 18.4 44.7141 18.5 44.3641 18.7C44.0241 18.9 43.7541 19.18 43.5541 19.54C43.3641 19.89 43.2691 20.305 43.2691 20.785V21.085C43.2691 21.565 43.3791 21.99 43.5991 22.36C43.8191 22.73 44.1291 23.015 44.5291 23.215C44.9291 23.415 45.3891 23.515 45.9091 23.515C46.3591 23.515 46.7641 23.445 47.1241 23.305C47.4841 23.165 47.8041 22.945 48.0841 22.645L49.0891 23.8C48.7291 24.22 48.2741 24.545 47.7241 24.775C47.1841 24.995 46.5641 25.105 45.8641 25.105ZM51.4302 25V13.87H53.3052V25H51.4302ZM59.5311 25.105C58.6411 25.105 57.8611 24.93 57.1911 24.58C56.5311 24.22 56.0161 23.73 55.6461 23.11C55.2861 22.49 55.1061 21.785 55.1061 20.995C55.1061 20.195 55.2811 19.49 55.6311 18.88C55.9911 18.26 56.4811 17.775 57.1011 17.425C57.7311 17.075 58.4461 16.9 59.2461 16.9C60.0261 16.9 60.7211 17.07 61.3311 17.41C61.9411 17.75 62.4211 18.23 62.7711 18.85C63.1211 19.47 63.2961 20.2 63.2961 21.04C63.2961 21.12 63.2911 21.21 63.2811 21.31C63.2811 21.41 63.2761 21.505 63.2661 21.595H56.5911V20.35H62.2761L61.5411 20.74C61.5511 20.28 61.4561 19.875 61.2561 19.525C61.0561 19.175 60.7811 18.9 60.4311 18.7C60.0911 18.5 59.6961 18.4 59.2461 18.4C58.7861 18.4 58.3811 18.5 58.0311 18.7C57.6911 18.9 57.4211 19.18 57.2211 19.54C57.0311 19.89 56.9361 20.305 56.9361 20.785V21.085C56.9361 21.565 57.0461 21.99 57.2661 22.36C57.4861 22.73 57.7961 23.015 58.1961 23.215C58.5961 23.415 59.0561 23.515 59.5761 23.515C60.0261 23.515 60.4311 23.445 60.7911 23.305C61.1511 23.165 61.4711 22.945 61.7511 22.645L62.7561 23.8C62.3961 24.22 61.9411 24.545 61.3911 24.775C60.8511 24.995 60.2311 25.105 59.5311 25.105ZM68.7722 25.105C67.9322 25.105 67.1822 24.93 66.5222 24.58C65.8722 24.22 65.3622 23.73 64.9922 23.11C64.6222 22.49 64.4372 21.785 64.4372 20.995C64.4372 20.195 64.6222 19.49 64.9922 18.88C65.3622 18.26 65.8722 17.775 66.5222 17.425C67.1822 17.075 67.9322 16.9 68.7722 16.9C69.5522 16.9 70.2372 17.06 70.8272 17.38C71.4272 17.69 71.8822 18.15 72.1922 18.76L70.7522 19.6C70.5122 19.22 70.2172 18.94 69.8672 18.76C69.5272 18.58 69.1572 18.49 68.7572 18.49C68.2972 18.49 67.8822 18.59 67.5122 18.79C67.1422 18.99 66.8522 19.28 66.6422 19.66C66.4322 20.03 66.3272 20.475 66.3272 20.995C66.3272 21.515 66.4322 21.965 66.6422 22.345C66.8522 22.715 67.1422 23 67.5122 23.2C67.8822 23.4 68.2972 23.5 68.7572 23.5C69.1572 23.5 69.5272 23.41 69.8672 23.23C70.2172 23.05 70.5122 22.77 70.7522 22.39L72.1922 23.23C71.8822 23.83 71.4272 24.295 70.8272 24.625C70.2372 24.945 69.5522 25.105 68.7722 25.105ZM76.9305 25.105C76.0505 25.105 75.3705 24.88 74.8905 24.43C74.4105 23.97 74.1705 23.295 74.1705 22.405V15.22H76.0455V22.36C76.0455 22.74 76.1405 23.035 76.3305 23.245C76.5305 23.455 76.8055 23.56 77.1555 23.56C77.5755 23.56 77.9255 23.45 78.2055 23.23L78.7305 24.565C78.5105 24.745 78.2405 24.88 77.9205 24.97C77.6005 25.06 77.2705 25.105 76.9305 25.105ZM72.8505 18.55V17.05H78.1905V18.55H72.8505ZM84.5985 25V14.5H86.2035L92.7885 22.585H91.9935V14.5H93.9285V25H92.3235L85.7385 16.915H86.5335V25H84.5985ZM100.162 25.105C99.342 25.105 98.612 24.93 97.972 24.58C97.332 24.22 96.827 23.73 96.457 23.11C96.087 22.49 95.902 21.785 95.902 20.995C95.902 20.195 96.087 19.49 96.457 18.88C96.827 18.26 97.332 17.775 97.972 17.425C98.612 17.075 99.342 16.9 100.162 16.9C100.992 16.9 101.727 17.075 102.367 17.425C103.017 17.775 103.522 18.255 103.882 18.865C104.252 19.475 104.437 20.185 104.437 20.995C104.437 21.785 104.252 22.49 103.882 23.11C103.522 23.73 103.017 24.22 102.367 24.58C101.727 24.93 100.992 25.105 100.162 25.105ZM100.162 23.5C100.622 23.5 101.032 23.4 101.392 23.2C101.752 23 102.032 22.71 102.232 22.33C102.442 21.95 102.547 21.505 102.547 20.995C102.547 20.475 102.442 20.03 102.232 19.66C102.032 19.28 101.752 18.99 101.392 18.79C101.032 18.59 100.627 18.49 100.177 18.49C99.717 18.49 99.307 18.59 98.947 18.79C98.597 18.99 98.317 19.28 98.107 19.66C97.897 20.03 97.792 20.475 97.792 20.995C97.792 21.505 97.897 21.95 98.107 22.33C98.317 22.71 98.597 23 98.947 23.2C99.307 23.4 99.712 23.5 100.162 23.5ZM107.78 25L104.84 16.99H106.61L109.13 24.055H108.29L110.93 16.99H112.505L115.07 24.055H114.245L116.84 16.99H118.505L115.55 25H113.75L111.41 18.745H111.965L109.58 25H107.78Z" fill="white"/>
</svg>
